<svg width="143" height="2" viewBox="0 0 143 2" fill="none" xmlns="http://www.w3.org/2000/svg">
<rect width="143" height="2" fill="#E5E5E5"/>
<g id="CV">
<rect width="1280" height="1399" transform="translate(-706 -511)" fill="#F5F7FA"/>
<g id="Rectangle 1" filter="url(#filter0_d_0_1)">
<rect x="-666" y="-471" width="1200" height="1319" fill="white"/>
</g>
<g id="Projects">
<g id="https://barbershop.goit.global/ https://cryptohub.goit.global/ https://kidslike.goit.global/">
<path d="M-176.862 -54.42C-176.265 -54.42 -175.742 -54.3033 -175.294 -54.07C-174.837 -53.846 -174.482 -53.5007 -174.23 -53.034C-173.969 -52.5673 -173.838 -51.9793 -173.838 -51.27V-47H-174.832V-51.172C-174.832 -51.9467 -175.028 -52.53 -175.42 -52.922C-175.803 -53.3233 -176.344 -53.524 -177.044 -53.524C-177.567 -53.524 -178.024 -53.4167 -178.416 -53.202C-178.799 -52.9967 -179.097 -52.6933 -179.312 -52.292C-179.517 -51.9 -179.62 -51.424 -179.62 -50.864V-47H-180.614V-57.388H-179.62V-52.334L-179.816 -52.712C-179.583 -53.244 -179.209 -53.6593 -178.696 -53.958C-178.183 -54.266 -177.571 -54.42 -176.862 -54.42ZM-168.829 -46.93C-169.52 -46.93 -170.052 -47.1167 -170.425 -47.49C-170.798 -47.8633 -170.985 -48.3907 -170.985 -49.072V-55.974H-169.991V-49.128C-169.991 -48.6987 -169.884 -48.3673 -169.669 -48.134C-169.445 -47.9007 -169.128 -47.784 -168.717 -47.784C-168.278 -47.784 -167.914 -47.91 -167.625 -48.162L-167.275 -47.448C-167.471 -47.2707 -167.709 -47.14 -167.989 -47.056C-168.26 -46.972 -168.54 -46.93 -168.829 -46.93ZM-172.301 -53.524V-54.35H-167.751V-53.524H-172.301ZM-163.333 -46.93C-164.024 -46.93 -164.556 -47.1167 -164.929 -47.49C-165.302 -47.8633 -165.489 -48.3907 -165.489 -49.072V-55.974H-164.495V-49.128C-164.495 -48.6987 -164.388 -48.3673 -164.173 -48.134C-163.949 -47.9007 -163.632 -47.784 -163.221 -47.784C-162.782 -47.784 -162.418 -47.91 -162.129 -48.162L-161.779 -47.448C-161.975 -47.2707 -162.213 -47.14 -162.493 -47.056C-162.764 -46.972 -163.044 -46.93 -163.333 -46.93ZM-166.805 -53.524V-54.35H-162.255V-53.524H-166.805ZM-156.175 -46.93C-156.81 -46.93 -157.384 -47.0747 -157.897 -47.364C-158.411 -47.6627 -158.821 -48.0873 -159.129 -48.638C-159.428 -49.198 -159.577 -49.8793 -159.577 -50.682C-159.577 -51.4847 -159.428 -52.1613 -159.129 -52.712C-158.831 -53.272 -158.425 -53.6967 -157.911 -53.986C-157.398 -54.2753 -156.819 -54.42 -156.175 -54.42C-155.475 -54.42 -154.85 -54.2613 -154.299 -53.944C-153.739 -53.636 -153.301 -53.1973 -152.983 -52.628C-152.666 -52.068 -152.507 -51.4193 -152.507 -50.682C-152.507 -49.9353 -152.666 -49.282 -152.983 -48.722C-153.301 -48.162 -153.739 -47.7233 -154.299 -47.406C-154.85 -47.0887 -155.475 -46.93 -156.175 -46.93ZM-159.969 -44.284V-54.35H-159.017V-52.138L-159.115 -50.668L-158.975 -49.184V-44.284H-159.969ZM-156.245 -47.812C-155.723 -47.812 -155.256 -47.9287 -154.845 -48.162C-154.435 -48.4047 -154.108 -48.7407 -153.865 -49.17C-153.623 -49.6087 -153.501 -50.1127 -153.501 -50.682C-153.501 -51.2513 -153.623 -51.7507 -153.865 -52.18C-154.108 -52.6093 -154.435 -52.9453 -154.845 -53.188C-155.256 -53.4307 -155.723 -53.552 -156.245 -53.552C-156.768 -53.552 -157.239 -53.4307 -157.659 -53.188C-158.07 -52.9453 -158.397 -52.6093 -158.639 -52.18C-158.873 -51.7507 -158.989 -51.2513 -158.989 -50.682C-158.989 -50.1127 -158.873 -49.6087 -158.639 -49.17C-158.397 -48.7407 -158.07 -48.4047 -157.659 -48.162C-157.239 -47.9287 -156.768 -47.812 -156.245 -47.812ZM-148.507 -46.93C-149.114 -46.93 -149.688 -47.014 -150.229 -47.182C-150.771 -47.3593 -151.195 -47.5787 -151.503 -47.84L-151.055 -48.624C-150.757 -48.4 -150.374 -48.204 -149.907 -48.036C-149.441 -47.8773 -148.951 -47.798 -148.437 -47.798C-147.737 -47.798 -147.233 -47.9053 -146.925 -48.12C-146.617 -48.344 -146.463 -48.638 -146.463 -49.002C-146.463 -49.2727 -146.552 -49.4827 -146.729 -49.632C-146.897 -49.7907 -147.121 -49.9073 -147.401 -49.982C-147.681 -50.066 -147.994 -50.136 -148.339 -50.192C-148.685 -50.248 -149.03 -50.3133 -149.375 -50.388C-149.711 -50.4627 -150.019 -50.57 -150.299 -50.71C-150.579 -50.8593 -150.808 -51.06 -150.985 -51.312C-151.153 -51.564 -151.237 -51.9 -151.237 -52.32C-151.237 -52.7213 -151.125 -53.0807 -150.901 -53.398C-150.677 -53.7153 -150.351 -53.9627 -149.921 -54.14C-149.483 -54.3267 -148.951 -54.42 -148.325 -54.42C-147.849 -54.42 -147.373 -54.3547 -146.897 -54.224C-146.421 -54.1027 -146.029 -53.9393 -145.721 -53.734L-146.155 -52.936C-146.482 -53.16 -146.832 -53.3187 -147.205 -53.412C-147.579 -53.5147 -147.952 -53.566 -148.325 -53.566C-148.988 -53.566 -149.478 -53.4493 -149.795 -53.216C-150.103 -52.992 -150.257 -52.7027 -150.257 -52.348C-150.257 -52.068 -150.173 -51.8487 -150.005 -51.69C-149.828 -51.5313 -149.599 -51.4053 -149.319 -51.312C-149.03 -51.228 -148.717 -51.158 -148.381 -51.102C-148.036 -51.046 -147.695 -50.976 -147.359 -50.892C-147.014 -50.8173 -146.701 -50.71 -146.421 -50.57C-146.132 -50.4393 -145.903 -50.248 -145.735 -49.996C-145.558 -49.7533 -145.469 -49.4313 -145.469 -49.03C-145.469 -48.6007 -145.591 -48.2273 -145.833 -47.91C-146.067 -47.602 -146.412 -47.3593 -146.869 -47.182C-147.317 -47.014 -147.863 -46.93 -148.507 -46.93ZM-143.547 -52.894C-143.753 -52.894 -143.93 -52.9687 -144.079 -53.118C-144.219 -53.2673 -144.289 -53.4493 -144.289 -53.664C-144.289 -53.888 -144.219 -54.07 -144.079 -54.21C-143.93 -54.35 -143.753 -54.42 -143.547 -54.42C-143.342 -54.42 -143.169 -54.35 -143.029 -54.21C-142.88 -54.07 -142.805 -53.888 -142.805 -53.664C-142.805 -53.4493 -142.88 -53.2673 -143.029 -53.118C-143.169 -52.9687 -143.342 -52.894 -143.547 -52.894ZM-143.547 -46.93C-143.753 -46.93 -143.93 -47.0047 -144.079 -47.154C-144.219 -47.3033 -144.289 -47.4853 -144.289 -47.7C-144.289 -47.924 -144.219 -48.106 -144.079 -48.246C-143.93 -48.386 -143.753 -48.456 -143.547 -48.456C-143.342 -48.456 -143.169 -48.386 -143.029 -48.246C-142.88 -48.106 -142.805 -47.924 -142.805 -47.7C-142.805 -47.4853 -142.88 -47.3033 -143.029 -47.154C-143.169 -47.0047 -143.342 -46.93 -143.547 -46.93ZM-141.786 -45.6L-137.166 -58.788H-136.256L-140.876 -45.6H-141.786ZM-137.998 -45.6L-133.378 -58.788H-132.468L-137.088 -45.6H-137.998ZM-127.779 -46.93C-128.423 -46.93 -129.002 -47.0747 -129.515 -47.364C-130.028 -47.6627 -130.434 -48.092 -130.733 -48.652C-131.032 -49.212 -131.181 -49.8887 -131.181 -50.682C-131.181 -51.4847 -131.032 -52.1613 -130.733 -52.712C-130.425 -53.272 -130.014 -53.6967 -129.501 -53.986C-128.988 -54.2753 -128.414 -54.42 -127.779 -54.42C-127.079 -54.42 -126.454 -54.2613 -125.903 -53.944C-125.343 -53.636 -124.904 -53.202 -124.587 -52.642C-124.27 -52.082 -124.111 -51.4287 -124.111 -50.682C-124.111 -49.9447 -124.27 -49.2913 -124.587 -48.722C-124.904 -48.162 -125.343 -47.7233 -125.903 -47.406C-126.454 -47.0887 -127.079 -46.93 -127.779 -46.93ZM-131.573 -47V-57.388H-130.579V-52.18L-130.719 -50.696L-130.621 -49.212V-47H-131.573ZM-127.849 -47.812C-127.326 -47.812 -126.86 -47.9287 -126.449 -48.162C-126.038 -48.4047 -125.712 -48.7407 -125.469 -49.17C-125.226 -49.6087 -125.105 -50.1127 -125.105 -50.682C-125.105 -51.2607 -125.226 -51.7647 -125.469 -52.194C-125.712 -52.6233 -126.038 -52.9547 -126.449 -53.188C-126.86 -53.4307 -127.326 -53.552 -127.849 -53.552C-128.372 -53.552 -128.843 -53.4307 -129.263 -53.188C-129.674 -52.9547 -130 -52.6233 -130.243 -52.194C-130.476 -51.7647 -130.593 -51.2607 -130.593 -50.682C-130.593 -50.1127 -130.476 -49.6087 -130.243 -49.17C-130 -48.7407 -129.674 -48.4047 -129.263 -48.162C-128.843 -47.9287 -128.372 -47.812 -127.849 -47.812ZM-117.52 -47V-48.624L-117.562 -48.89V-51.606C-117.562 -52.2313 -117.739 -52.712 -118.094 -53.048C-118.439 -53.384 -118.957 -53.552 -119.648 -53.552C-120.124 -53.552 -120.576 -53.4727 -121.006 -53.314C-121.435 -53.1553 -121.799 -52.9453 -122.098 -52.684L-122.546 -53.426C-122.172 -53.7433 -121.724 -53.986 -121.202 -54.154C-120.679 -54.3313 -120.128 -54.42 -119.55 -54.42C-118.598 -54.42 -117.865 -54.182 -117.352 -53.706C-116.829 -53.2393 -116.568 -52.5253 -116.568 -51.564V-47H-117.52ZM-120.054 -46.93C-120.604 -46.93 -121.085 -47.0187 -121.496 -47.196C-121.897 -47.3827 -122.205 -47.6347 -122.42 -47.952C-122.634 -48.2787 -122.742 -48.652 -122.742 -49.072C-122.742 -49.4547 -122.653 -49.8 -122.476 -50.108C-122.289 -50.4253 -121.99 -50.6773 -121.58 -50.864C-121.16 -51.06 -120.6 -51.158 -119.9 -51.158H-117.366V-50.416H-119.872C-120.581 -50.416 -121.076 -50.29 -121.356 -50.038C-121.626 -49.786 -121.762 -49.4733 -121.762 -49.1C-121.762 -48.68 -121.598 -48.344 -121.272 -48.092C-120.945 -47.84 -120.488 -47.714 -119.9 -47.714C-119.34 -47.714 -118.859 -47.84 -118.458 -48.092C-118.047 -48.3533 -117.748 -48.7267 -117.562 -49.212L-117.338 -48.526C-117.524 -48.0407 -117.851 -47.6533 -118.318 -47.364C-118.775 -47.0747 -119.354 -46.93 -120.054 -46.93ZM-113.868 -47V-54.35H-112.916V-52.348L-113.014 -52.698C-112.809 -53.258 -112.463 -53.6827 -111.978 -53.972C-111.493 -54.2707 -110.891 -54.42 -110.172 -54.42V-53.454C-110.209 -53.454 -110.247 -53.454 -110.284 -53.454C-110.321 -53.4633 -110.359 -53.468 -110.396 -53.468C-111.171 -53.468 -111.777 -53.23 -112.216 -52.754C-112.655 -52.2873 -112.874 -51.62 -112.874 -50.752V-47H-113.868ZM-104.564 -46.93C-105.208 -46.93 -105.787 -47.0747 -106.3 -47.364C-106.813 -47.6627 -107.219 -48.092 -107.518 -48.652C-107.817 -49.212 -107.966 -49.8887 -107.966 -50.682C-107.966 -51.4847 -107.817 -52.1613 -107.518 -52.712C-107.21 -53.272 -106.799 -53.6967 -106.286 -53.986C-105.773 -54.2753 -105.199 -54.42 -104.564 -54.42C-103.864 -54.42 -103.239 -54.2613 -102.688 -53.944C-102.128 -53.636 -101.689 -53.202 -101.372 -52.642C-101.055 -52.082 -100.896 -51.4287 -100.896 -50.682C-100.896 -49.9447 -101.055 -49.2913 -101.372 -48.722C-101.689 -48.162 -102.128 -47.7233 -102.688 -47.406C-103.239 -47.0887 -103.864 -46.93 -104.564 -46.93ZM-108.358 -47V-57.388H-107.364V-52.18L-107.504 -50.696L-107.406 -49.212V-47H-108.358ZM-104.634 -47.812C-104.111 -47.812 -103.645 -47.9287 -103.234 -48.162C-102.823 -48.4047 -102.497 -48.7407 -102.254 -49.17C-102.011 -49.6087 -101.89 -50.1127 -101.89 -50.682C-101.89 -51.2607 -102.011 -51.7647 -102.254 -52.194C-102.497 -52.6233 -102.823 -52.9547 -103.234 -53.188C-103.645 -53.4307 -104.111 -53.552 -104.634 -53.552C-105.157 -53.552 -105.628 -53.4307 -106.048 -53.188C-106.459 -52.9547 -106.785 -52.6233 -107.028 -52.194C-107.261 -51.7647 -107.378 -51.2607 -107.378 -50.682C-107.378 -50.1127 -107.261 -49.6087 -107.028 -49.17C-106.785 -48.7407 -106.459 -48.4047 -106.048 -48.162C-105.628 -47.9287 -105.157 -47.812 -104.634 -47.812ZM-95.7479 -46.93C-96.5132 -46.93 -97.1852 -47.0887 -97.7639 -47.406C-98.3425 -47.7327 -98.7952 -48.176 -99.1219 -48.736C-99.4485 -49.3053 -99.6119 -49.954 -99.6119 -50.682C-99.6119 -51.41 -99.4579 -52.054 -99.1499 -52.614C-98.8325 -53.174 -98.4032 -53.6127 -97.8619 -53.93C-97.3112 -54.2567 -96.6952 -54.42 -96.0139 -54.42C-95.3232 -54.42 -94.7119 -54.2613 -94.1799 -53.944C-93.6385 -53.636 -93.2139 -53.1973 -92.9059 -52.628C-92.5979 -52.068 -92.4439 -51.4193 -92.4439 -50.682C-92.4439 -50.6353 -92.4485 -50.584 -92.4579 -50.528C-92.4579 -50.4813 -92.4579 -50.43 -92.4579 -50.374H-98.8559V-51.116H-92.9899L-93.3819 -50.822C-93.3819 -51.354 -93.4985 -51.8253 -93.7319 -52.236C-93.9559 -52.656 -94.2639 -52.9827 -94.6559 -53.216C-95.0479 -53.4493 -95.5005 -53.566 -96.0139 -53.566C-96.5179 -53.566 -96.9705 -53.4493 -97.3719 -53.216C-97.7732 -52.9827 -98.0859 -52.656 -98.3099 -52.236C-98.5339 -51.816 -98.6459 -51.3353 -98.6459 -50.794V-50.64C-98.6459 -50.08 -98.5245 -49.5853 -98.2819 -49.156C-98.0299 -48.736 -97.6845 -48.4047 -97.2459 -48.162C-96.7979 -47.9287 -96.2892 -47.812 -95.7199 -47.812C-95.2719 -47.812 -94.8565 -47.8913 -94.4739 -48.05C-94.0819 -48.2087 -93.7459 -48.4513 -93.4659 -48.778L-92.9059 -48.134C-93.2325 -47.742 -93.6432 -47.4433 -94.1379 -47.238C-94.6232 -47.0327 -95.1599 -46.93 -95.7479 -46.93ZM-90.4206 -47V-54.35H-89.4686V-52.348L-89.5666 -52.698C-89.3613 -53.258 -89.016 -53.6827 -88.5306 -53.972C-88.0453 -54.2707 -87.4433 -54.42 -86.7246 -54.42V-53.454C-86.762 -53.454 -86.7993 -53.454 -86.8366 -53.454C-86.874 -53.4633 -86.9113 -53.468 -86.9486 -53.468C-87.7233 -53.468 -88.33 -53.23 -88.7686 -52.754C-89.2073 -52.2873 -89.4266 -51.62 -89.4266 -50.752V-47H-90.4206ZM-82.8548 -46.93C-83.4615 -46.93 -84.0355 -47.014 -84.5768 -47.182C-85.1182 -47.3593 -85.5428 -47.5787 -85.8508 -47.84L-85.4028 -48.624C-85.1042 -48.4 -84.7215 -48.204 -84.2548 -48.036C-83.7882 -47.8773 -83.2982 -47.798 -82.7848 -47.798C-82.0848 -47.798 -81.5808 -47.9053 -81.2728 -48.12C-80.9648 -48.344 -80.8108 -48.638 -80.8108 -49.002C-80.8108 -49.2727 -80.8995 -49.4827 -81.0768 -49.632C-81.2448 -49.7907 -81.4688 -49.9073 -81.7488 -49.982C-82.0288 -50.066 -82.3415 -50.136 -82.6868 -50.192C-83.0322 -50.248 -83.3775 -50.3133 -83.7228 -50.388C-84.0588 -50.4627 -84.3668 -50.57 -84.6468 -50.71C-84.9268 -50.8593 -85.1555 -51.06 -85.3328 -51.312C-85.5008 -51.564 -85.5848 -51.9 -85.5848 -52.32C-85.5848 -52.7213 -85.4728 -53.0807 -85.2488 -53.398C-85.0248 -53.7153 -84.6982 -53.9627 -84.2688 -54.14C-83.8302 -54.3267 -83.2982 -54.42 -82.6728 -54.42C-82.1968 -54.42 -81.7208 -54.3547 -81.2448 -54.224C-80.7688 -54.1027 -80.3768 -53.9393 -80.0688 -53.734L-80.5028 -52.936C-80.8295 -53.16 -81.1795 -53.3187 -81.5528 -53.412C-81.9262 -53.5147 -82.2995 -53.566 -82.6728 -53.566C-83.3355 -53.566 -83.8255 -53.4493 -84.1428 -53.216C-84.4508 -52.992 -84.6048 -52.7027 -84.6048 -52.348C-84.6048 -52.068 -84.5208 -51.8487 -84.3528 -51.69C-84.1755 -51.5313 -83.9468 -51.4053 -83.6668 -51.312C-83.3775 -51.228 -83.0648 -51.158 -82.7288 -51.102C-82.3835 -51.046 -82.0428 -50.976 -81.7068 -50.892C-81.3615 -50.8173 -81.0488 -50.71 -80.7688 -50.57C-80.4795 -50.4393 -80.2508 -50.248 -80.0828 -49.996C-79.9055 -49.7533 -79.8168 -49.4313 -79.8168 -49.03C-79.8168 -48.6007 -79.9382 -48.2273 -80.1808 -47.91C-80.4142 -47.602 -80.7595 -47.3593 -81.2168 -47.182C-81.6648 -47.014 -82.2108 -46.93 -82.8548 -46.93ZM-74.2409 -54.42C-73.6436 -54.42 -73.1209 -54.3033 -72.6729 -54.07C-72.2156 -53.846 -71.8609 -53.5007 -71.6089 -53.034C-71.3476 -52.5673 -71.2169 -51.9793 -71.2169 -51.27V-47H-72.2109V-51.172C-72.2109 -51.9467 -72.4069 -52.53 -72.7989 -52.922C-73.1816 -53.3233 -73.7229 -53.524 -74.4229 -53.524C-74.9456 -53.524 -75.4029 -53.4167 -75.7949 -53.202C-76.1776 -52.9967 -76.4762 -52.6933 -76.6909 -52.292C-76.8962 -51.9 -76.9989 -51.424 -76.9989 -50.864V-47H-77.9929V-57.388H-76.9989V-52.334L-77.1949 -52.712C-76.9616 -53.244 -76.5882 -53.6593 -76.0749 -53.958C-75.5616 -54.266 -74.9502 -54.42 -74.2409 -54.42ZM-65.536 -46.93C-66.2453 -46.93 -66.8846 -47.0887 -67.454 -47.406C-68.014 -47.7327 -68.4573 -48.176 -68.784 -48.736C-69.1106 -49.3053 -69.274 -49.954 -69.274 -50.682C-69.274 -51.4193 -69.1106 -52.068 -68.784 -52.628C-68.4573 -53.188 -68.014 -53.6267 -67.454 -53.944C-66.894 -54.2613 -66.2546 -54.42 -65.536 -54.42C-64.808 -54.42 -64.164 -54.2613 -63.604 -53.944C-63.0346 -53.6267 -62.5913 -53.188 -62.274 -52.628C-61.9473 -52.068 -61.784 -51.4193 -61.784 -50.682C-61.784 -49.954 -61.9473 -49.3053 -62.274 -48.736C-62.5913 -48.176 -63.0346 -47.7327 -63.604 -47.406C-64.1733 -47.0887 -64.8173 -46.93 -65.536 -46.93ZM-65.536 -47.812C-65.004 -47.812 -64.5326 -47.9287 -64.122 -48.162C-63.7113 -48.4047 -63.3893 -48.7407 -63.156 -49.17C-62.9133 -49.6087 -62.792 -50.1127 -62.792 -50.682C-62.792 -51.2607 -62.9133 -51.7647 -63.156 -52.194C-63.3893 -52.6233 -63.7113 -52.9547 -64.122 -53.188C-64.5326 -53.4307 -64.9993 -53.552 -65.522 -53.552C-66.0446 -53.552 -66.5113 -53.4307 -66.922 -53.188C-67.3326 -52.9547 -67.6593 -52.6233 -67.902 -52.194C-68.1446 -51.7647 -68.266 -51.2607 -68.266 -50.682C-68.266 -50.1127 -68.1446 -49.6087 -67.902 -49.17C-67.6593 -48.7407 -67.3326 -48.4047 -66.922 -48.162C-66.5113 -47.9287 -66.0493 -47.812 -65.536 -47.812ZM-55.9606 -46.93C-56.5953 -46.93 -57.1693 -47.0747 -57.6826 -47.364C-58.196 -47.6627 -58.6066 -48.0873 -58.9146 -48.638C-59.2133 -49.198 -59.3626 -49.8793 -59.3626 -50.682C-59.3626 -51.4847 -59.2133 -52.1613 -58.9146 -52.712C-58.616 -53.272 -58.21 -53.6967 -57.6966 -53.986C-57.1833 -54.2753 -56.6046 -54.42 -55.9606 -54.42C-55.2606 -54.42 -54.6353 -54.2613 -54.0846 -53.944C-53.5246 -53.636 -53.086 -53.1973 -52.7686 -52.628C-52.4513 -52.068 -52.2926 -51.4193 -52.2926 -50.682C-52.2926 -49.9353 -52.4513 -49.282 -52.7686 -48.722C-53.086 -48.162 -53.5246 -47.7233 -54.0846 -47.406C-54.6353 -47.0887 -55.2606 -46.93 -55.9606 -46.93ZM-59.7546 -44.284V-54.35H-58.8026V-52.138L-58.9006 -50.668L-58.7606 -49.184V-44.284H-59.7546ZM-56.0306 -47.812C-55.508 -47.812 -55.0413 -47.9287 -54.6306 -48.162C-54.22 -48.4047 -53.8933 -48.7407 -53.6506 -49.17C-53.408 -49.6087 -53.2866 -50.1127 -53.2866 -50.682C-53.2866 -51.2513 -53.408 -51.7507 -53.6506 -52.18C-53.8933 -52.6093 -54.22 -52.9453 -54.6306 -53.188C-55.0413 -53.4307 -55.508 -53.552 -56.0306 -53.552C-56.5533 -53.552 -57.0246 -53.4307 -57.4446 -53.188C-57.8553 -52.9453 -58.182 -52.6093 -58.4246 -52.18C-58.658 -51.7507 -58.7746 -51.2513 -58.7746 -50.682C-58.7746 -50.1127 -58.658 -49.6087 -58.4246 -49.17C-58.182 -48.7407 -57.8553 -48.4047 -57.4446 -48.162C-57.0246 -47.9287 -56.5533 -47.812 -56.0306 -47.812ZM-50.3734 -46.93C-50.5788 -46.93 -50.7561 -47.0047 -50.9054 -47.154C-51.0454 -47.3033 -51.1154 -47.4853 -51.1154 -47.7C-51.1154 -47.924 -51.0454 -48.106 -50.9054 -48.246C-50.7561 -48.386 -50.5788 -48.456 -50.3734 -48.456C-50.1681 -48.456 -49.9954 -48.386 -49.8554 -48.246C-49.7061 -48.106 -49.6314 -47.924 -49.6314 -47.7C-49.6314 -47.4853 -49.7061 -47.3033 -49.8554 -47.154C-49.9954 -47.0047 -50.1681 -46.93 -50.3734 -46.93ZM-44.5737 -44.214C-45.2457 -44.214 -45.8897 -44.312 -46.5057 -44.508C-47.1217 -44.704 -47.621 -44.984 -48.0037 -45.348L-47.4997 -46.104C-47.1544 -45.796 -46.7297 -45.5533 -46.2257 -45.376C-45.7124 -45.1893 -45.171 -45.096 -44.6017 -45.096C-43.6684 -45.096 -42.9824 -45.3153 -42.5437 -45.754C-42.105 -46.1833 -41.8857 -46.8553 -41.8857 -47.77V-49.604L-41.7457 -50.864L-41.8437 -52.124V-54.35H-40.8917V-47.896C-40.8917 -46.6267 -41.2044 -45.698 -41.8297 -45.11C-42.4457 -44.5127 -43.3604 -44.214 -44.5737 -44.214ZM-44.7557 -47.28C-45.4557 -47.28 -46.0857 -47.4293 -46.6457 -47.728C-47.2057 -48.036 -47.649 -48.4607 -47.9757 -49.002C-48.293 -49.5433 -48.4517 -50.164 -48.4517 -50.864C-48.4517 -51.564 -48.293 -52.18 -47.9757 -52.712C-47.649 -53.2533 -47.2057 -53.6733 -46.6457 -53.972C-46.0857 -54.2707 -45.4557 -54.42 -44.7557 -54.42C-44.1024 -54.42 -43.5144 -54.2847 -42.9917 -54.014C-42.469 -53.7433 -42.0537 -53.342 -41.7457 -52.81C-41.4377 -52.278 -41.2837 -51.6293 -41.2837 -50.864C-41.2837 -50.0987 -41.4377 -49.45 -41.7457 -48.918C-42.0537 -48.386 -42.469 -47.98 -42.9917 -47.7C-43.5144 -47.42 -44.1024 -47.28 -44.7557 -47.28ZM-44.6577 -48.162C-44.1164 -48.162 -43.6357 -48.274 -43.2157 -48.498C-42.7957 -48.7313 -42.4644 -49.0487 -42.2217 -49.45C-41.979 -49.8607 -41.8577 -50.332 -41.8577 -50.864C-41.8577 -51.396 -41.979 -51.8627 -42.2217 -52.264C-42.4644 -52.6653 -42.7957 -52.978 -43.2157 -53.202C-43.6357 -53.4353 -44.1164 -53.552 -44.6577 -53.552C-45.1897 -53.552 -45.6704 -53.4353 -46.0997 -53.202C-46.5197 -52.978 -46.851 -52.6653 -47.0937 -52.264C-47.327 -51.8627 -47.4437 -51.396 -47.4437 -50.864C-47.4437 -50.332 -47.327 -49.8607 -47.0937 -49.45C-46.851 -49.0487 -46.5197 -48.7313 -46.0997 -48.498C-45.6704 -48.274 -45.1897 -48.162 -44.6577 -48.162ZM-35.1297 -46.93C-35.8391 -46.93 -36.4784 -47.0887 -37.0477 -47.406C-37.6077 -47.7327 -38.0511 -48.176 -38.3777 -48.736C-38.7044 -49.3053 -38.8677 -49.954 -38.8677 -50.682C-38.8677 -51.4193 -38.7044 -52.068 -38.3777 -52.628C-38.0511 -53.188 -37.6077 -53.6267 -37.0477 -53.944C-36.4877 -54.2613 -35.8484 -54.42 -35.1297 -54.42C-34.4017 -54.42 -33.7577 -54.2613 -33.1977 -53.944C-32.6284 -53.6267 -32.1851 -53.188 -31.8677 -52.628C-31.5411 -52.068 -31.3777 -51.4193 -31.3777 -50.682C-31.3777 -49.954 -31.5411 -49.3053 -31.8677 -48.736C-32.1851 -48.176 -32.6284 -47.7327 -33.1977 -47.406C-33.7671 -47.0887 -34.4111 -46.93 -35.1297 -46.93ZM-35.1297 -47.812C-34.5977 -47.812 -34.1264 -47.9287 -33.7157 -48.162C-33.3051 -48.4047 -32.9831 -48.7407 -32.7497 -49.17C-32.5071 -49.6087 -32.3857 -50.1127 -32.3857 -50.682C-32.3857 -51.2607 -32.5071 -51.7647 -32.7497 -52.194C-32.9831 -52.6233 -33.3051 -52.9547 -33.7157 -53.188C-34.1264 -53.4307 -34.5931 -53.552 -35.1157 -53.552C-35.6384 -53.552 -36.1051 -53.4307 -36.5157 -53.188C-36.9264 -52.9547 -37.2531 -52.6233 -37.4957 -52.194C-37.7384 -51.7647 -37.8597 -51.2607 -37.8597 -50.682C-37.8597 -50.1127 -37.7384 -49.6087 -37.4957 -49.17C-37.2531 -48.7407 -36.9264 -48.4047 -36.5157 -48.162C-36.1051 -47.9287 -35.6431 -47.812 -35.1297 -47.812ZM-29.3484 -47V-54.35H-28.3544V-47H-29.3484ZM-28.8444 -55.974C-29.0497 -55.974 -29.2224 -56.044 -29.3624 -56.184C-29.5024 -56.324 -29.5724 -56.492 -29.5724 -56.688C-29.5724 -56.884 -29.5024 -57.0473 -29.3624 -57.178C-29.2224 -57.318 -29.0497 -57.388 -28.8444 -57.388C-28.639 -57.388 -28.4664 -57.3227 -28.3264 -57.192C-28.1864 -57.0613 -28.1164 -56.898 -28.1164 -56.702C-28.1164 -56.4967 -28.1864 -56.324 -28.3264 -56.184C-28.457 -56.044 -28.6297 -55.974 -28.8444 -55.974ZM-23.2646 -46.93C-23.9553 -46.93 -24.4873 -47.1167 -24.8606 -47.49C-25.2339 -47.8633 -25.4206 -48.3907 -25.4206 -49.072V-55.974H-24.4266V-49.128C-24.4266 -48.6987 -24.3193 -48.3673 -24.1046 -48.134C-23.8806 -47.9007 -23.5633 -47.784 -23.1526 -47.784C-22.7139 -47.784 -22.3499 -47.91 -22.0606 -48.162L-21.7106 -47.448C-21.9066 -47.2707 -22.1446 -47.14 -22.4246 -47.056C-22.6953 -46.972 -22.9753 -46.93 -23.2646 -46.93ZM-26.7366 -53.524V-54.35H-22.1866V-53.524H-26.7366ZM-19.6664 -46.93C-19.8717 -46.93 -20.0491 -47.0047 -20.1984 -47.154C-20.3384 -47.3033 -20.4084 -47.4853 -20.4084 -47.7C-20.4084 -47.924 -20.3384 -48.106 -20.1984 -48.246C-20.0491 -48.386 -19.8717 -48.456 -19.6664 -48.456C-19.4611 -48.456 -19.2884 -48.386 -19.1484 -48.246C-18.9991 -48.106 -18.9244 -47.924 -18.9244 -47.7C-18.9244 -47.4853 -18.9991 -47.3033 -19.1484 -47.154C-19.2884 -47.0047 -19.4611 -46.93 -19.6664 -46.93ZM-13.8667 -44.214C-14.5387 -44.214 -15.1827 -44.312 -15.7987 -44.508C-16.4147 -44.704 -16.914 -44.984 -17.2967 -45.348L-16.7927 -46.104C-16.4473 -45.796 -16.0227 -45.5533 -15.5187 -45.376C-15.0053 -45.1893 -14.464 -45.096 -13.8947 -45.096C-12.9613 -45.096 -12.2753 -45.3153 -11.8367 -45.754C-11.398 -46.1833 -11.1787 -46.8553 -11.1787 -47.77V-49.604L-11.0387 -50.864L-11.1367 -52.124V-54.35H-10.1847V-47.896C-10.1847 -46.6267 -10.4973 -45.698 -11.1227 -45.11C-11.7387 -44.5127 -12.6533 -44.214 -13.8667 -44.214ZM-14.0487 -47.28C-14.7487 -47.28 -15.3787 -47.4293 -15.9387 -47.728C-16.4987 -48.036 -16.942 -48.4607 -17.2687 -49.002C-17.586 -49.5433 -17.7447 -50.164 -17.7447 -50.864C-17.7447 -51.564 -17.586 -52.18 -17.2687 -52.712C-16.942 -53.2533 -16.4987 -53.6733 -15.9387 -53.972C-15.3787 -54.2707 -14.7487 -54.42 -14.0487 -54.42C-13.3953 -54.42 -12.8073 -54.2847 -12.2847 -54.014C-11.762 -53.7433 -11.3467 -53.342 -11.0387 -52.81C-10.7307 -52.278 -10.5767 -51.6293 -10.5767 -50.864C-10.5767 -50.0987 -10.7307 -49.45 -11.0387 -48.918C-11.3467 -48.386 -11.762 -47.98 -12.2847 -47.7C-12.8073 -47.42 -13.3953 -47.28 -14.0487 -47.28ZM-13.9507 -48.162C-13.4093 -48.162 -12.9287 -48.274 -12.5087 -48.498C-12.0887 -48.7313 -11.7573 -49.0487 -11.5147 -49.45C-11.272 -49.8607 -11.1507 -50.332 -11.1507 -50.864C-11.1507 -51.396 -11.272 -51.8627 -11.5147 -52.264C-11.7573 -52.6653 -12.0887 -52.978 -12.5087 -53.202C-12.9287 -53.4353 -13.4093 -53.552 -13.9507 -53.552C-14.4827 -53.552 -14.9633 -53.4353 -15.3927 -53.202C-15.8127 -52.978 -16.144 -52.6653 -16.3867 -52.264C-16.62 -51.8627 -16.7367 -51.396 -16.7367 -50.864C-16.7367 -50.332 -16.62 -49.8607 -16.3867 -49.45C-16.144 -49.0487 -15.8127 -48.7313 -15.3927 -48.498C-14.9633 -48.274 -14.4827 -48.162 -13.9507 -48.162ZM-7.41869 -47V-57.388H-6.42469V-47H-7.41869ZM-0.662922 -46.93C-1.37225 -46.93 -2.01159 -47.0887 -2.58092 -47.406C-3.14092 -47.7327 -3.58426 -48.176 -3.91092 -48.736C-4.23759 -49.3053 -4.40092 -49.954 -4.40092 -50.682C-4.40092 -51.4193 -4.23759 -52.068 -3.91092 -52.628C-3.58426 -53.188 -3.14092 -53.6267 -2.58092 -53.944C-2.02092 -54.2613 -1.38159 -54.42 -0.662922 -54.42C0.0650785 -54.42 0.709079 -54.2613 1.26908 -53.944C1.83841 -53.6267 2.28175 -53.188 2.59908 -52.628C2.92575 -52.068 3.08908 -51.4193 3.08908 -50.682C3.08908 -49.954 2.92575 -49.3053 2.59908 -48.736C2.28175 -48.176 1.83841 -47.7327 1.26908 -47.406C0.699745 -47.0887 0.055745 -46.93 -0.662922 -46.93ZM-0.662922 -47.812C-0.130922 -47.812 0.340412 -47.9287 0.751079 -48.162C1.16175 -48.4047 1.48375 -48.7407 1.71708 -49.17C1.95974 -49.6087 2.08108 -50.1127 2.08108 -50.682C2.08108 -51.2607 1.95974 -51.7647 1.71708 -52.194C1.48375 -52.6233 1.16175 -52.9547 0.751079 -53.188C0.340412 -53.4307 -0.126255 -53.552 -0.648922 -53.552C-1.17159 -53.552 -1.63825 -53.4307 -2.04892 -53.188C-2.45959 -52.9547 -2.78626 -52.6233 -3.02892 -52.194C-3.27159 -51.7647 -3.39292 -51.2607 -3.39292 -50.682C-3.39292 -50.1127 -3.27159 -49.6087 -3.02892 -49.17C-2.78626 -48.7407 -2.45959 -48.4047 -2.04892 -48.162C-1.63825 -47.9287 -1.17625 -47.812 -0.662922 -47.812ZM8.91242 -46.93C8.26842 -46.93 7.68976 -47.0747 7.17642 -47.364C6.66309 -47.6627 6.25709 -48.092 5.95842 -48.652C5.65976 -49.212 5.51042 -49.8887 5.51042 -50.682C5.51042 -51.4847 5.65976 -52.1613 5.95842 -52.712C6.26642 -53.272 6.67709 -53.6967 7.19042 -53.986C7.70376 -54.2753 8.27776 -54.42 8.91242 -54.42C9.61242 -54.42 10.2378 -54.2613 10.7884 -53.944C11.3484 -53.636 11.7871 -53.202 12.1044 -52.642C12.4218 -52.082 12.5804 -51.4287 12.5804 -50.682C12.5804 -49.9447 12.4218 -49.2913 12.1044 -48.722C11.7871 -48.162 11.3484 -47.7233 10.7884 -47.406C10.2378 -47.0887 9.61242 -46.93 8.91242 -46.93ZM5.11842 -47V-57.388H6.11242V-52.18L5.97242 -50.696L6.07042 -49.212V-47H5.11842ZM8.84242 -47.812C9.36509 -47.812 9.83176 -47.9287 10.2424 -48.162C10.6531 -48.4047 10.9798 -48.7407 11.2224 -49.17C11.4651 -49.6087 11.5864 -50.1127 11.5864 -50.682C11.5864 -51.2607 11.4651 -51.7647 11.2224 -52.194C10.9798 -52.6233 10.6531 -52.9547 10.2424 -53.188C9.83176 -53.4307 9.36509 -53.552 8.84242 -53.552C8.31976 -53.552 7.84842 -53.4307 7.42842 -53.188C7.01776 -52.9547 6.69109 -52.6233 6.44842 -52.194C6.21509 -51.7647 6.09842 -51.2607 6.09842 -50.682C6.09842 -50.1127 6.21509 -49.6087 6.44842 -49.17C6.69109 -48.7407 7.01776 -48.4047 7.42842 -48.162C7.84842 -47.9287 8.31976 -47.812 8.84242 -47.812ZM19.1717 -47V-48.624L19.1297 -48.89V-51.606C19.1297 -52.2313 18.9524 -52.712 18.5977 -53.048C18.2524 -53.384 17.7344 -53.552 17.0437 -53.552C16.5677 -53.552 16.115 -53.4727 15.6857 -53.314C15.2564 -53.1553 14.8924 -52.9453 14.5937 -52.684L14.1457 -53.426C14.519 -53.7433 14.967 -53.986 15.4897 -54.154C16.0124 -54.3313 16.563 -54.42 17.1417 -54.42C18.0937 -54.42 18.8264 -54.182 19.3397 -53.706C19.8624 -53.2393 20.1237 -52.5253 20.1237 -51.564V-47H19.1717ZM16.6377 -46.93C16.087 -46.93 15.6064 -47.0187 15.1957 -47.196C14.7944 -47.3827 14.4864 -47.6347 14.2717 -47.952C14.057 -48.2787 13.9497 -48.652 13.9497 -49.072C13.9497 -49.4547 14.0384 -49.8 14.2157 -50.108C14.4024 -50.4253 14.701 -50.6773 15.1117 -50.864C15.5317 -51.06 16.0917 -51.158 16.7917 -51.158H19.3257V-50.416H16.8197C16.1104 -50.416 15.6157 -50.29 15.3357 -50.038C15.065 -49.786 14.9297 -49.4733 14.9297 -49.1C14.9297 -48.68 15.093 -48.344 15.4197 -48.092C15.7464 -47.84 16.2037 -47.714 16.7917 -47.714C17.3517 -47.714 17.8324 -47.84 18.2337 -48.092C18.6444 -48.3533 18.943 -48.7267 19.1297 -49.212L19.3537 -48.526C19.167 -48.0407 18.8404 -47.6533 18.3737 -47.364C17.9164 -47.0747 17.3377 -46.93 16.6377 -46.93ZM22.8235 -47V-57.388H23.8175V-47H22.8235ZM24.8473 -45.6L29.4673 -58.788H30.3773L25.7573 -45.6H24.8473ZM-176.862 -30.42C-176.265 -30.42 -175.742 -30.3033 -175.294 -30.07C-174.837 -29.846 -174.482 -29.5007 -174.23 -29.034C-173.969 -28.5673 -173.838 -27.9793 -173.838 -27.27V-23H-174.832V-27.172C-174.832 -27.9467 -175.028 -28.53 -175.42 -28.922C-175.803 -29.3233 -176.344 -29.524 -177.044 -29.524C-177.567 -29.524 -178.024 -29.4167 -178.416 -29.202C-178.799 -28.9967 -179.097 -28.6933 -179.312 -28.292C-179.517 -27.9 -179.62 -27.424 -179.62 -26.864V-23H-180.614V-33.388H-179.62V-28.334L-179.816 -28.712C-179.583 -29.244 -179.209 -29.6593 -178.696 -29.958C-178.183 -30.266 -177.571 -30.42 -176.862 -30.42ZM-168.829 -22.93C-169.52 -22.93 -170.052 -23.1167 -170.425 -23.49C-170.798 -23.8633 -170.985 -24.3907 -170.985 -25.072V-31.974H-169.991V-25.128C-169.991 -24.6987 -169.884 -24.3673 -169.669 -24.134C-169.445 -23.9007 -169.128 -23.784 -168.717 -23.784C-168.278 -23.784 -167.914 -23.91 -167.625 -24.162L-167.275 -23.448C-167.471 -23.2707 -167.709 -23.14 -167.989 -23.056C-168.26 -22.972 -168.54 -22.93 -168.829 -22.93ZM-172.301 -29.524V-30.35H-167.751V-29.524H-172.301ZM-163.333 -22.93C-164.024 -22.93 -164.556 -23.1167 -164.929 -23.49C-165.302 -23.8633 -165.489 -24.3907 -165.489 -25.072V-31.974H-164.495V-25.128C-164.495 -24.6987 -164.388 -24.3673 -164.173 -24.134C-163.949 -23.9007 -163.632 -23.784 -163.221 -23.784C-162.782 -23.784 -162.418 -23.91 -162.129 -24.162L-161.779 -23.448C-161.975 -23.2707 -162.213 -23.14 -162.493 -23.056C-162.764 -22.972 -163.044 -22.93 -163.333 -22.93ZM-166.805 -29.524V-30.35H-162.255V-29.524H-166.805ZM-156.175 -22.93C-156.81 -22.93 -157.384 -23.0747 -157.897 -23.364C-158.411 -23.6627 -158.821 -24.0873 -159.129 -24.638C-159.428 -25.198 -159.577 -25.8793 -159.577 -26.682C-159.577 -27.4847 -159.428 -28.1613 -159.129 -28.712C-158.831 -29.272 -158.425 -29.6967 -157.911 -29.986C-157.398 -30.2753 -156.819 -30.42 -156.175 -30.42C-155.475 -30.42 -154.85 -30.2613 -154.299 -29.944C-153.739 -29.636 -153.301 -29.1973 -152.983 -28.628C-152.666 -28.068 -152.507 -27.4193 -152.507 -26.682C-152.507 -25.9353 -152.666 -25.282 -152.983 -24.722C-153.301 -24.162 -153.739 -23.7233 -154.299 -23.406C-154.85 -23.0887 -155.475 -22.93 -156.175 -22.93ZM-159.969 -20.284V-30.35H-159.017V-28.138L-159.115 -26.668L-158.975 -25.184V-20.284H-159.969ZM-156.245 -23.812C-155.723 -23.812 -155.256 -23.9287 -154.845 -24.162C-154.435 -24.4047 -154.108 -24.7407 -153.865 -25.17C-153.623 -25.6087 -153.501 -26.1127 -153.501 -26.682C-153.501 -27.2513 -153.623 -27.7507 -153.865 -28.18C-154.108 -28.6093 -154.435 -28.9453 -154.845 -29.188C-155.256 -29.4307 -155.723 -29.552 -156.245 -29.552C-156.768 -29.552 -157.239 -29.4307 -157.659 -29.188C-158.07 -28.9453 -158.397 -28.6093 -158.639 -28.18C-158.873 -27.7507 -158.989 -27.2513 -158.989 -26.682C-158.989 -26.1127 -158.873 -25.6087 -158.639 -25.17C-158.397 -24.7407 -158.07 -24.4047 -157.659 -24.162C-157.239 -23.9287 -156.768 -23.812 -156.245 -23.812ZM-148.507 -22.93C-149.114 -22.93 -149.688 -23.014 -150.229 -23.182C-150.771 -23.3593 -151.195 -23.5787 -151.503 -23.84L-151.055 -24.624C-150.757 -24.4 -150.374 -24.204 -149.907 -24.036C-149.441 -23.8773 -148.951 -23.798 -148.437 -23.798C-147.737 -23.798 -147.233 -23.9053 -146.925 -24.12C-146.617 -24.344 -146.463 -24.638 -146.463 -25.002C-146.463 -25.2727 -146.552 -25.4827 -146.729 -25.632C-146.897 -25.7907 -147.121 -25.9073 -147.401 -25.982C-147.681 -26.066 -147.994 -26.136 -148.339 -26.192C-148.685 -26.248 -149.03 -26.3133 -149.375 -26.388C-149.711 -26.4627 -150.019 -26.57 -150.299 -26.71C-150.579 -26.8593 -150.808 -27.06 -150.985 -27.312C-151.153 -27.564 -151.237 -27.9 -151.237 -28.32C-151.237 -28.7213 -151.125 -29.0807 -150.901 -29.398C-150.677 -29.7153 -150.351 -29.9627 -149.921 -30.14C-149.483 -30.3267 -148.951 -30.42 -148.325 -30.42C-147.849 -30.42 -147.373 -30.3547 -146.897 -30.224C-146.421 -30.1027 -146.029 -29.9393 -145.721 -29.734L-146.155 -28.936C-146.482 -29.16 -146.832 -29.3187 -147.205 -29.412C-147.579 -29.5147 -147.952 -29.566 -148.325 -29.566C-148.988 -29.566 -149.478 -29.4493 -149.795 -29.216C-150.103 -28.992 -150.257 -28.7027 -150.257 -28.348C-150.257 -28.068 -150.173 -27.8487 -150.005 -27.69C-149.828 -27.5313 -149.599 -27.4053 -149.319 -27.312C-149.03 -27.228 -148.717 -27.158 -148.381 -27.102C-148.036 -27.046 -147.695 -26.976 -147.359 -26.892C-147.014 -26.8173 -146.701 -26.71 -146.421 -26.57C-146.132 -26.4393 -145.903 -26.248 -145.735 -25.996C-145.558 -25.7533 -145.469 -25.4313 -145.469 -25.03C-145.469 -24.6007 -145.591 -24.2273 -145.833 -23.91C-146.067 -23.602 -146.412 -23.3593 -146.869 -23.182C-147.317 -23.014 -147.863 -22.93 -148.507 -22.93ZM-143.547 -28.894C-143.753 -28.894 -143.93 -28.9687 -144.079 -29.118C-144.219 -29.2673 -144.289 -29.4493 -144.289 -29.664C-144.289 -29.888 -144.219 -30.07 -144.079 -30.21C-143.93 -30.35 -143.753 -30.42 -143.547 -30.42C-143.342 -30.42 -143.169 -30.35 -143.029 -30.21C-142.88 -30.07 -142.805 -29.888 -142.805 -29.664C-142.805 -29.4493 -142.88 -29.2673 -143.029 -29.118C-143.169 -28.9687 -143.342 -28.894 -143.547 -28.894ZM-143.547 -22.93C-143.753 -22.93 -143.93 -23.0047 -144.079 -23.154C-144.219 -23.3033 -144.289 -23.4853 -144.289 -23.7C-144.289 -23.924 -144.219 -24.106 -144.079 -24.246C-143.93 -24.386 -143.753 -24.456 -143.547 -24.456C-143.342 -24.456 -143.169 -24.386 -143.029 -24.246C-142.88 -24.106 -142.805 -23.924 -142.805 -23.7C-142.805 -23.4853 -142.88 -23.3033 -143.029 -23.154C-143.169 -23.0047 -143.342 -22.93 -143.547 -22.93ZM-141.786 -21.6L-137.166 -34.788H-136.256L-140.876 -21.6H-141.786ZM-137.998 -21.6L-133.378 -34.788H-132.468L-137.088 -21.6H-137.998ZM-129.478 -22.93C-130.206 -22.93 -130.859 -23.0887 -131.438 -23.406C-132.007 -23.7327 -132.455 -24.176 -132.782 -24.736C-133.109 -25.3053 -133.272 -25.954 -133.272 -26.682C-133.272 -27.4193 -133.109 -28.068 -132.782 -28.628C-132.455 -29.188 -132.007 -29.6267 -131.438 -29.944C-130.859 -30.2613 -130.206 -30.42 -129.478 -30.42C-128.853 -30.42 -128.288 -30.2987 -127.784 -30.056C-127.28 -29.8133 -126.883 -29.4493 -126.594 -28.964L-127.336 -28.46C-127.588 -28.8333 -127.901 -29.1087 -128.274 -29.286C-128.647 -29.4633 -129.053 -29.552 -129.492 -29.552C-130.015 -29.552 -130.486 -29.4307 -130.906 -29.188C-131.326 -28.9547 -131.657 -28.6233 -131.9 -28.194C-132.143 -27.7647 -132.264 -27.2607 -132.264 -26.682C-132.264 -26.1033 -132.143 -25.5993 -131.9 -25.17C-131.657 -24.7407 -131.326 -24.4047 -130.906 -24.162C-130.486 -23.9287 -130.015 -23.812 -129.492 -23.812C-129.053 -23.812 -128.647 -23.9007 -128.274 -24.078C-127.901 -24.2553 -127.588 -24.526 -127.336 -24.89L-126.594 -24.386C-126.883 -23.91 -127.28 -23.546 -127.784 -23.294C-128.288 -23.0513 -128.853 -22.93 -129.478 -22.93ZM-124.641 -23V-30.35H-123.689V-28.348L-123.787 -28.698C-123.582 -29.258 -123.237 -29.6827 -122.751 -29.972C-122.266 -30.2707 -121.664 -30.42 -120.945 -30.42V-29.454C-120.983 -29.454 -121.02 -29.454 -121.057 -29.454C-121.095 -29.4633 -121.132 -29.468 -121.169 -29.468C-121.944 -29.468 -122.551 -29.23 -122.989 -28.754C-123.428 -28.2873 -123.647 -27.62 -123.647 -26.752V-23H-124.641ZM-118.761 -20.214C-119.106 -20.214 -119.438 -20.27 -119.755 -20.382C-120.063 -20.494 -120.329 -20.662 -120.553 -20.886L-120.091 -21.628C-119.904 -21.4507 -119.704 -21.3153 -119.489 -21.222C-119.265 -21.1193 -119.018 -21.068 -118.747 -21.068C-118.42 -21.068 -118.14 -21.1613 -117.907 -21.348C-117.664 -21.5253 -117.436 -21.8427 -117.221 -22.3L-116.745 -23.378L-116.633 -23.532L-113.609 -30.35H-112.629L-116.311 -22.118C-116.516 -21.642 -116.745 -21.264 -116.997 -20.984C-117.24 -20.704 -117.506 -20.508 -117.795 -20.396C-118.084 -20.2747 -118.406 -20.214 -118.761 -20.214ZM-116.801 -22.79L-120.189 -30.35H-119.153L-116.157 -23.602L-116.801 -22.79ZM-107.435 -22.93C-108.07 -22.93 -108.644 -23.0747 -109.157 -23.364C-109.671 -23.6627 -110.081 -24.0873 -110.389 -24.638C-110.688 -25.198 -110.837 -25.8793 -110.837 -26.682C-110.837 -27.4847 -110.688 -28.1613 -110.389 -28.712C-110.091 -29.272 -109.685 -29.6967 -109.171 -29.986C-108.658 -30.2753 -108.079 -30.42 -107.435 -30.42C-106.735 -30.42 -106.11 -30.2613 -105.559 -29.944C-104.999 -29.636 -104.561 -29.1973 -104.243 -28.628C-103.926 -28.068 -103.767 -27.4193 -103.767 -26.682C-103.767 -25.9353 -103.926 -25.282 -104.243 -24.722C-104.561 -24.162 -104.999 -23.7233 -105.559 -23.406C-106.11 -23.0887 -106.735 -22.93 -107.435 -22.93ZM-111.229 -20.284V-30.35H-110.277V-28.138L-110.375 -26.668L-110.235 -25.184V-20.284H-111.229ZM-107.505 -23.812C-106.983 -23.812 -106.516 -23.9287 -106.105 -24.162C-105.695 -24.4047 -105.368 -24.7407 -105.125 -25.17C-104.883 -25.6087 -104.761 -26.1127 -104.761 -26.682C-104.761 -27.2513 -104.883 -27.7507 -105.125 -28.18C-105.368 -28.6093 -105.695 -28.9453 -106.105 -29.188C-106.516 -29.4307 -106.983 -29.552 -107.505 -29.552C-108.028 -29.552 -108.499 -29.4307 -108.919 -29.188C-109.33 -28.9453 -109.657 -28.6093 -109.899 -28.18C-110.133 -27.7507 -110.249 -27.2513 -110.249 -26.682C-110.249 -26.1127 -110.133 -25.6087 -109.899 -25.17C-109.657 -24.7407 -109.33 -24.4047 -108.919 -24.162C-108.499 -23.9287 -108.028 -23.812 -107.505 -23.812ZM-99.417 -22.93C-100.108 -22.93 -100.64 -23.1167 -101.013 -23.49C-101.386 -23.8633 -101.573 -24.3907 -101.573 -25.072V-31.974H-100.579V-25.128C-100.579 -24.6987 -100.472 -24.3673 -100.257 -24.134C-100.033 -23.9007 -99.7156 -23.784 -99.305 -23.784C-98.8663 -23.784 -98.5023 -23.91 -98.213 -24.162L-97.863 -23.448C-98.059 -23.2707 -98.297 -23.14 -98.577 -23.056C-98.8476 -22.972 -99.1276 -22.93 -99.417 -22.93ZM-102.889 -29.524V-30.35H-98.339V-29.524H-102.889ZM-93.3172 -22.93C-94.0266 -22.93 -94.6659 -23.0887 -95.2352 -23.406C-95.7952 -23.7327 -96.2386 -24.176 -96.5652 -24.736C-96.8919 -25.3053 -97.0552 -25.954 -97.0552 -26.682C-97.0552 -27.4193 -96.8919 -28.068 -96.5652 -28.628C-96.2386 -29.188 -95.7952 -29.6267 -95.2352 -29.944C-94.6752 -30.2613 -94.0359 -30.42 -93.3172 -30.42C-92.5892 -30.42 -91.9452 -30.2613 -91.3852 -29.944C-90.8159 -29.6267 -90.3726 -29.188 -90.0552 -28.628C-89.7286 -28.068 -89.5652 -27.4193 -89.5652 -26.682C-89.5652 -25.954 -89.7286 -25.3053 -90.0552 -24.736C-90.3726 -24.176 -90.8159 -23.7327 -91.3852 -23.406C-91.9546 -23.0887 -92.5986 -22.93 -93.3172 -22.93ZM-93.3172 -23.812C-92.7852 -23.812 -92.3139 -23.9287 -91.9032 -24.162C-91.4926 -24.4047 -91.1706 -24.7407 -90.9372 -25.17C-90.6946 -25.6087 -90.5732 -26.1127 -90.5732 -26.682C-90.5732 -27.2607 -90.6946 -27.7647 -90.9372 -28.194C-91.1706 -28.6233 -91.4926 -28.9547 -91.9032 -29.188C-92.3139 -29.4307 -92.7806 -29.552 -93.3032 -29.552C-93.8259 -29.552 -94.2926 -29.4307 -94.7032 -29.188C-95.1139 -28.9547 -95.4406 -28.6233 -95.6832 -28.194C-95.9259 -27.7647 -96.0472 -27.2607 -96.0472 -26.682C-96.0472 -26.1127 -95.9259 -25.6087 -95.6832 -25.17C-95.4406 -24.7407 -95.1139 -24.4047 -94.7032 -24.162C-94.2926 -23.9287 -93.8306 -23.812 -93.3172 -23.812ZM-83.7839 -30.42C-83.1865 -30.42 -82.6639 -30.3033 -82.2159 -30.07C-81.7585 -29.846 -81.4039 -29.5007 -81.1519 -29.034C-80.8905 -28.5673 -80.7599 -27.9793 -80.7599 -27.27V-23H-81.7539V-27.172C-81.7539 -27.9467 -81.9499 -28.53 -82.3419 -28.922C-82.7245 -29.3233 -83.2659 -29.524 -83.9659 -29.524C-84.4885 -29.524 -84.9459 -29.4167 -85.3379 -29.202C-85.7205 -28.9967 -86.0192 -28.6933 -86.2339 -28.292C-86.4392 -27.9 -86.5419 -27.424 -86.5419 -26.864V-23H-87.5359V-33.388H-86.5419V-28.334L-86.7379 -28.712C-86.5045 -29.244 -86.1312 -29.6593 -85.6179 -29.958C-85.1045 -30.266 -84.4932 -30.42 -83.7839 -30.42ZM-75.0369 -22.93C-75.6623 -22.93 -76.2083 -23.0467 -76.6749 -23.28C-77.1416 -23.5133 -77.5056 -23.8633 -77.7669 -24.33C-78.0189 -24.7967 -78.1449 -25.38 -78.1449 -26.08V-30.35H-77.1509V-26.192C-77.1509 -25.408 -76.9596 -24.8153 -76.5769 -24.414C-76.1849 -24.022 -75.6389 -23.826 -74.9389 -23.826C-74.4256 -23.826 -73.9823 -23.9287 -73.6089 -24.134C-73.2263 -24.3487 -72.9369 -24.6567 -72.7409 -25.058C-72.5356 -25.4593 -72.4329 -25.94 -72.4329 -26.5V-30.35H-71.4389V-23H-72.3909V-25.016L-72.2369 -24.652C-72.4703 -24.1107 -72.8343 -23.686 -73.3289 -23.378C-73.8143 -23.0793 -74.3836 -22.93 -75.0369 -22.93ZM-64.8747 -22.93C-65.5187 -22.93 -66.0974 -23.0747 -66.6107 -23.364C-67.124 -23.6627 -67.53 -24.092 -67.8287 -24.652C-68.1274 -25.212 -68.2767 -25.8887 -68.2767 -26.682C-68.2767 -27.4847 -68.1274 -28.1613 -67.8287 -28.712C-67.5207 -29.272 -67.11 -29.6967 -66.5967 -29.986C-66.0834 -30.2753 -65.5094 -30.42 -64.8747 -30.42C-64.1747 -30.42 -63.5494 -30.2613 -62.9987 -29.944C-62.4387 -29.636 -62 -29.202 -61.6827 -28.642C-61.3654 -28.082 -61.2067 -27.4287 -61.2067 -26.682C-61.2067 -25.9447 -61.3654 -25.2913 -61.6827 -24.722C-62 -24.162 -62.4387 -23.7233 -62.9987 -23.406C-63.5494 -23.0887 -64.1747 -22.93 -64.8747 -22.93ZM-68.6687 -23V-33.388H-67.6747V-28.18L-67.8147 -26.696L-67.7167 -25.212V-23H-68.6687ZM-64.9447 -23.812C-64.422 -23.812 -63.9554 -23.9287 -63.5447 -24.162C-63.134 -24.4047 -62.8074 -24.7407 -62.5647 -25.17C-62.322 -25.6087 -62.2007 -26.1127 -62.2007 -26.682C-62.2007 -27.2607 -62.322 -27.7647 -62.5647 -28.194C-62.8074 -28.6233 -63.134 -28.9547 -63.5447 -29.188C-63.9554 -29.4307 -64.422 -29.552 -64.9447 -29.552C-65.4674 -29.552 -65.9387 -29.4307 -66.3587 -29.188C-66.7694 -28.9547 -67.096 -28.6233 -67.3387 -28.194C-67.572 -27.7647 -67.6887 -27.2607 -67.6887 -26.682C-67.6887 -26.1127 -67.572 -25.6087 -67.3387 -25.17C-67.096 -24.7407 -66.7694 -24.4047 -66.3587 -24.162C-65.9387 -23.9287 -65.4674 -23.812 -64.9447 -23.812ZM-59.2875 -22.93C-59.4928 -22.93 -59.6702 -23.0047 -59.8195 -23.154C-59.9595 -23.3033 -60.0295 -23.4853 -60.0295 -23.7C-60.0295 -23.924 -59.9595 -24.106 -59.8195 -24.246C-59.6702 -24.386 -59.4928 -24.456 -59.2875 -24.456C-59.0822 -24.456 -58.9095 -24.386 -58.7695 -24.246C-58.6202 -24.106 -58.5455 -23.924 -58.5455 -23.7C-58.5455 -23.4853 -58.6202 -23.3033 -58.7695 -23.154C-58.9095 -23.0047 -59.0822 -22.93 -59.2875 -22.93ZM-53.4878 -20.214C-54.1598 -20.214 -54.8038 -20.312 -55.4198 -20.508C-56.0358 -20.704 -56.5351 -20.984 -56.9178 -21.348L-56.4138 -22.104C-56.0684 -21.796 -55.6438 -21.5533 -55.1398 -21.376C-54.6264 -21.1893 -54.0851 -21.096 -53.5158 -21.096C-52.5824 -21.096 -51.8964 -21.3153 -51.4578 -21.754C-51.0191 -22.1833 -50.7998 -22.8553 -50.7998 -23.77V-25.604L-50.6598 -26.864L-50.7578 -28.124V-30.35H-49.8058V-23.896C-49.8058 -22.6267 -50.1184 -21.698 -50.7438 -21.11C-51.3598 -20.5127 -52.2744 -20.214 -53.4878 -20.214ZM-53.6698 -23.28C-54.3698 -23.28 -54.9998 -23.4293 -55.5598 -23.728C-56.1198 -24.036 -56.5631 -24.4607 -56.8898 -25.002C-57.2071 -25.5433 -57.3658 -26.164 -57.3658 -26.864C-57.3658 -27.564 -57.2071 -28.18 -56.8898 -28.712C-56.5631 -29.2533 -56.1198 -29.6733 -55.5598 -29.972C-54.9998 -30.2707 -54.3698 -30.42 -53.6698 -30.42C-53.0164 -30.42 -52.4284 -30.2847 -51.9058 -30.014C-51.3831 -29.7433 -50.9678 -29.342 -50.6598 -28.81C-50.3518 -28.278 -50.1978 -27.6293 -50.1978 -26.864C-50.1978 -26.0987 -50.3518 -25.45 -50.6598 -24.918C-50.9678 -24.386 -51.3831 -23.98 -51.9058 -23.7C-52.4284 -23.42 -53.0164 -23.28 -53.6698 -23.28ZM-53.5718 -24.162C-53.0304 -24.162 -52.5498 -24.274 -52.1298 -24.498C-51.7098 -24.7313 -51.3784 -25.0487 -51.1358 -25.45C-50.8931 -25.8607 -50.7718 -26.332 -50.7718 -26.864C-50.7718 -27.396 -50.8931 -27.8627 -51.1358 -28.264C-51.3784 -28.6653 -51.7098 -28.978 -52.1298 -29.202C-52.5498 -29.4353 -53.0304 -29.552 -53.5718 -29.552C-54.1038 -29.552 -54.5844 -29.4353 -55.0138 -29.202C-55.4338 -28.978 -55.7651 -28.6653 -56.0078 -28.264C-56.2411 -27.8627 -56.3578 -27.396 -56.3578 -26.864C-56.3578 -26.332 -56.2411 -25.8607 -56.0078 -25.45C-55.7651 -25.0487 -55.4338 -24.7313 -55.0138 -24.498C-54.5844 -24.274 -54.1038 -24.162 -53.5718 -24.162ZM-44.0438 -22.93C-44.7531 -22.93 -45.3924 -23.0887 -45.9618 -23.406C-46.5218 -23.7327 -46.9651 -24.176 -47.2918 -24.736C-47.6184 -25.3053 -47.7818 -25.954 -47.7818 -26.682C-47.7818 -27.4193 -47.6184 -28.068 -47.2918 -28.628C-46.9651 -29.188 -46.5218 -29.6267 -45.9618 -29.944C-45.4018 -30.2613 -44.7624 -30.42 -44.0438 -30.42C-43.3158 -30.42 -42.6718 -30.2613 -42.1118 -29.944C-41.5424 -29.6267 -41.0991 -29.188 -40.7818 -28.628C-40.4551 -28.068 -40.2918 -27.4193 -40.2918 -26.682C-40.2918 -25.954 -40.4551 -25.3053 -40.7818 -24.736C-41.0991 -24.176 -41.5424 -23.7327 -42.1118 -23.406C-42.6811 -23.0887 -43.3251 -22.93 -44.0438 -22.93ZM-44.0438 -23.812C-43.5118 -23.812 -43.0404 -23.9287 -42.6298 -24.162C-42.2191 -24.4047 -41.8971 -24.7407 -41.6638 -25.17C-41.4211 -25.6087 -41.2998 -26.1127 -41.2998 -26.682C-41.2998 -27.2607 -41.4211 -27.7647 -41.6638 -28.194C-41.8971 -28.6233 -42.2191 -28.9547 -42.6298 -29.188C-43.0404 -29.4307 -43.5071 -29.552 -44.0298 -29.552C-44.5524 -29.552 -45.0191 -29.4307 -45.4298 -29.188C-45.8404 -28.9547 -46.1671 -28.6233 -46.4098 -28.194C-46.6524 -27.7647 -46.7738 -27.2607 -46.7738 -26.682C-46.7738 -26.1127 -46.6524 -25.6087 -46.4098 -25.17C-46.1671 -24.7407 -45.8404 -24.4047 -45.4298 -24.162C-45.0191 -23.9287 -44.5571 -23.812 -44.0438 -23.812ZM-38.2624 -23V-30.35H-37.2684V-23H-38.2624ZM-37.7584 -31.974C-37.9638 -31.974 -38.1364 -32.044 -38.2764 -32.184C-38.4164 -32.324 -38.4864 -32.492 -38.4864 -32.688C-38.4864 -32.884 -38.4164 -33.0473 -38.2764 -33.178C-38.1364 -33.318 -37.9638 -33.388 -37.7584 -33.388C-37.5531 -33.388 -37.3804 -33.3227 -37.2404 -33.192C-37.1004 -33.0613 -37.0304 -32.898 -37.0304 -32.702C-37.0304 -32.4967 -37.1004 -32.324 -37.2404 -32.184C-37.3711 -32.044 -37.5438 -31.974 -37.7584 -31.974ZM-32.1787 -22.93C-32.8693 -22.93 -33.4013 -23.1167 -33.7747 -23.49C-34.148 -23.8633 -34.3347 -24.3907 -34.3347 -25.072V-31.974H-33.3407V-25.128C-33.3407 -24.6987 -33.2333 -24.3673 -33.0187 -24.134C-32.7947 -23.9007 -32.4773 -23.784 -32.0667 -23.784C-31.628 -23.784 -31.264 -23.91 -30.9747 -24.162L-30.6247 -23.448C-30.8207 -23.2707 -31.0587 -23.14 -31.3387 -23.056C-31.6093 -22.972 -31.8893 -22.93 -32.1787 -22.93ZM-35.6507 -29.524V-30.35H-31.1007V-29.524H-35.6507ZM-28.5805 -22.93C-28.7858 -22.93 -28.9631 -23.0047 -29.1125 -23.154C-29.2525 -23.3033 -29.3225 -23.4853 -29.3225 -23.7C-29.3225 -23.924 -29.2525 -24.106 -29.1125 -24.246C-28.9631 -24.386 -28.7858 -24.456 -28.5805 -24.456C-28.3751 -24.456 -28.2025 -24.386 -28.0625 -24.246C-27.9131 -24.106 -27.8385 -23.924 -27.8385 -23.7C-27.8385 -23.4853 -27.9131 -23.3033 -28.0625 -23.154C-28.2025 -23.0047 -28.3751 -22.93 -28.5805 -22.93ZM-22.7807 -20.214C-23.4527 -20.214 -24.0967 -20.312 -24.7127 -20.508C-25.3287 -20.704 -25.8281 -20.984 -26.2107 -21.348L-25.7067 -22.104C-25.3614 -21.796 -24.9367 -21.5533 -24.4327 -21.376C-23.9194 -21.1893 -23.3781 -21.096 -22.8087 -21.096C-21.8754 -21.096 -21.1894 -21.3153 -20.7507 -21.754C-20.3121 -22.1833 -20.0927 -22.8553 -20.0927 -23.77V-25.604L-19.9527 -26.864L-20.0507 -28.124V-30.35H-19.0987V-23.896C-19.0987 -22.6267 -19.4114 -21.698 -20.0367 -21.11C-20.6527 -20.5127 -21.5674 -20.214 -22.7807 -20.214ZM-22.9627 -23.28C-23.6627 -23.28 -24.2927 -23.4293 -24.8527 -23.728C-25.4127 -24.036 -25.8561 -24.4607 -26.1827 -25.002C-26.5001 -25.5433 -26.6587 -26.164 -26.6587 -26.864C-26.6587 -27.564 -26.5001 -28.18 -26.1827 -28.712C-25.8561 -29.2533 -25.4127 -29.6733 -24.8527 -29.972C-24.2927 -30.2707 -23.6627 -30.42 -22.9627 -30.42C-22.3094 -30.42 -21.7214 -30.2847 -21.1987 -30.014C-20.6761 -29.7433 -20.2607 -29.342 -19.9527 -28.81C-19.6447 -28.278 -19.4907 -27.6293 -19.4907 -26.864C-19.4907 -26.0987 -19.6447 -25.45 -19.9527 -24.918C-20.2607 -24.386 -20.6761 -23.98 -21.1987 -23.7C-21.7214 -23.42 -22.3094 -23.28 -22.9627 -23.28ZM-22.8647 -24.162C-22.3234 -24.162 -21.8427 -24.274 -21.4227 -24.498C-21.0027 -24.7313 -20.6714 -25.0487 -20.4287 -25.45C-20.1861 -25.8607 -20.0647 -26.332 -20.0647 -26.864C-20.0647 -27.396 -20.1861 -27.8627 -20.4287 -28.264C-20.6714 -28.6653 -21.0027 -28.978 -21.4227 -29.202C-21.8427 -29.4353 -22.3234 -29.552 -22.8647 -29.552C-23.3967 -29.552 -23.8774 -29.4353 -24.3067 -29.202C-24.7267 -28.978 -25.0581 -28.6653 -25.3007 -28.264C-25.5341 -27.8627 -25.6507 -27.396 -25.6507 -26.864C-25.6507 -26.332 -25.5341 -25.8607 -25.3007 -25.45C-25.0581 -25.0487 -24.7267 -24.7313 -24.3067 -24.498C-23.8774 -24.274 -23.3967 -24.162 -22.8647 -24.162ZM-16.3327 -23V-33.388H-15.3387V-23H-16.3327ZM-9.57698 -22.93C-10.2863 -22.93 -10.9257 -23.0887 -11.495 -23.406C-12.055 -23.7327 -12.4983 -24.176 -12.825 -24.736C-13.1517 -25.3053 -13.315 -25.954 -13.315 -26.682C-13.315 -27.4193 -13.1517 -28.068 -12.825 -28.628C-12.4983 -29.188 -12.055 -29.6267 -11.495 -29.944C-10.935 -30.2613 -10.2957 -30.42 -9.57698 -30.42C-8.84898 -30.42 -8.20498 -30.2613 -7.64498 -29.944C-7.07565 -29.6267 -6.63232 -29.188 -6.31498 -28.628C-5.98832 -28.068 -5.82498 -27.4193 -5.82498 -26.682C-5.82498 -25.954 -5.98832 -25.3053 -6.31498 -24.736C-6.63232 -24.176 -7.07565 -23.7327 -7.64498 -23.406C-8.21432 -23.0887 -8.85832 -22.93 -9.57698 -22.93ZM-9.57698 -23.812C-9.04498 -23.812 -8.57365 -23.9287 -8.16298 -24.162C-7.75232 -24.4047 -7.43032 -24.7407 -7.19698 -25.17C-6.95432 -25.6087 -6.83298 -26.1127 -6.83298 -26.682C-6.83298 -27.2607 -6.95432 -27.7647 -7.19698 -28.194C-7.43032 -28.6233 -7.75232 -28.9547 -8.16298 -29.188C-8.57365 -29.4307 -9.04032 -29.552 -9.56298 -29.552C-10.0857 -29.552 -10.5523 -29.4307 -10.963 -29.188C-11.3737 -28.9547 -11.7003 -28.6233 -11.943 -28.194C-12.1857 -27.7647 -12.307 -27.2607 -12.307 -26.682C-12.307 -26.1127 -12.1857 -25.6087 -11.943 -25.17C-11.7003 -24.7407 -11.3737 -24.4047 -10.963 -24.162C-10.5523 -23.9287 -10.0903 -23.812 -9.57698 -23.812ZM-0.00164056 -22.93C-0.64564 -22.93 -1.22431 -23.0747 -1.73764 -23.364C-2.25097 -23.6627 -2.65697 -24.092 -2.95564 -24.652C-3.25431 -25.212 -3.40364 -25.8887 -3.40364 -26.682C-3.40364 -27.4847 -3.25431 -28.1613 -2.95564 -28.712C-2.64764 -29.272 -2.23697 -29.6967 -1.72364 -29.986C-1.21031 -30.2753 -0.636307 -30.42 -0.00164056 -30.42C0.69836 -30.42 1.32369 -30.2613 1.87436 -29.944C2.43436 -29.636 2.87303 -29.202 3.19036 -28.642C3.50769 -28.082 3.66636 -27.4287 3.66636 -26.682C3.66636 -25.9447 3.50769 -25.2913 3.19036 -24.722C2.87303 -24.162 2.43436 -23.7233 1.87436 -23.406C1.32369 -23.0887 0.69836 -22.93 -0.00164056 -22.93ZM-3.79564 -23V-33.388H-2.80164V-28.18L-2.94164 -26.696L-2.84364 -25.212V-23H-3.79564ZM-0.0716405 -23.812C0.451026 -23.812 0.917693 -23.9287 1.32836 -24.162C1.73903 -24.4047 2.06569 -24.7407 2.30836 -25.17C2.55103 -25.6087 2.67236 -26.1127 2.67236 -26.682C2.67236 -27.2607 2.55103 -27.7647 2.30836 -28.194C2.06569 -28.6233 1.73903 -28.9547 1.32836 -29.188C0.917693 -29.4307 0.451026 -29.552 -0.0716405 -29.552C-0.594307 -29.552 -1.06564 -29.4307 -1.48564 -29.188C-1.89631 -28.9547 -2.22297 -28.6233 -2.46564 -28.194C-2.69897 -27.7647 -2.81564 -27.2607 -2.81564 -26.682C-2.81564 -26.1127 -2.69897 -25.6087 -2.46564 -25.17C-2.22297 -24.7407 -1.89631 -24.4047 -1.48564 -24.162C-1.06564 -23.9287 -0.594307 -23.812 -0.0716405 -23.812ZM10.2576 -23V-24.624L10.2156 -24.89V-27.606C10.2156 -28.2313 10.0383 -28.712 9.68363 -29.048C9.33829 -29.384 8.82029 -29.552 8.12963 -29.552C7.65363 -29.552 7.20096 -29.4727 6.77163 -29.314C6.34229 -29.1553 5.97829 -28.9453 5.67963 -28.684L5.23163 -29.426C5.60496 -29.7433 6.05296 -29.986 6.57563 -30.154C7.09829 -30.3313 7.64896 -30.42 8.22763 -30.42C9.17963 -30.42 9.91229 -30.182 10.4256 -29.706C10.9483 -29.2393 11.2096 -28.5253 11.2096 -27.564V-23H10.2576ZM7.72363 -22.93C7.17296 -22.93 6.69229 -23.0187 6.28163 -23.196C5.88029 -23.3827 5.57229 -23.6347 5.35763 -23.952C5.14296 -24.2787 5.03563 -24.652 5.03563 -25.072C5.03563 -25.4547 5.12429 -25.8 5.30163 -26.108C5.48829 -26.4253 5.78696 -26.6773 6.19763 -26.864C6.61763 -27.06 7.17763 -27.158 7.87763 -27.158H10.4116V-26.416H7.90563C7.19629 -26.416 6.70163 -26.29 6.42163 -26.038C6.15096 -25.786 6.01562 -25.4733 6.01562 -25.1C6.01562 -24.68 6.17896 -24.344 6.50563 -24.092C6.83229 -23.84 7.28963 -23.714 7.87763 -23.714C8.43763 -23.714 8.91829 -23.84 9.31963 -24.092C9.73029 -24.3533 10.029 -24.7267 10.2156 -25.212L10.4396 -24.526C10.253 -24.0407 9.92629 -23.6533 9.45963 -23.364C9.00229 -23.0747 8.42363 -22.93 7.72363 -22.93ZM13.9094 -23V-33.388H14.9034V-23H13.9094ZM15.9332 -21.6L20.5532 -34.788H21.4632L16.8432 -21.6H15.9332ZM-176.862 -6.42C-176.265 -6.42 -175.742 -6.30333 -175.294 -6.07C-174.837 -5.846 -174.482 -5.50067 -174.23 -5.034C-173.969 -4.56733 -173.838 -3.97933 -173.838 -3.27V1H-174.832V-3.172C-174.832 -3.94667 -175.028 -4.53 -175.42 -4.922C-175.803 -5.32333 -176.344 -5.524 -177.044 -5.524C-177.567 -5.524 -178.024 -5.41667 -178.416 -5.202C-178.799 -4.99667 -179.097 -4.69333 -179.312 -4.292C-179.517 -3.9 -179.62 -3.424 -179.62 -2.864V1H-180.614V-9.388H-179.62V-4.334L-179.816 -4.712C-179.583 -5.244 -179.209 -5.65933 -178.696 -5.958C-178.183 -6.266 -177.571 -6.42 -176.862 -6.42ZM-168.829 1.07C-169.52 1.07 -170.052 0.883333 -170.425 0.51C-170.798 0.136667 -170.985 -0.390667 -170.985 -1.072V-7.974H-169.991V-1.128C-169.991 -0.698667 -169.884 -0.367333 -169.669 -0.134C-169.445 0.0993333 -169.128 0.216 -168.717 0.216C-168.278 0.216 -167.914 0.09 -167.625 -0.162L-167.275 0.552C-167.471 0.729333 -167.709 0.86 -167.989 0.944C-168.26 1.028 -168.54 1.07 -168.829 1.07ZM-172.301 -5.524V-6.35H-167.751V-5.524H-172.301ZM-163.333 1.07C-164.024 1.07 -164.556 0.883333 -164.929 0.51C-165.302 0.136667 -165.489 -0.390667 -165.489 -1.072V-7.974H-164.495V-1.128C-164.495 -0.698667 -164.388 -0.367333 -164.173 -0.134C-163.949 0.0993333 -163.632 0.216 -163.221 0.216C-162.782 0.216 -162.418 0.09 -162.129 -0.162L-161.779 0.552C-161.975 0.729333 -162.213 0.86 -162.493 0.944C-162.764 1.028 -163.044 1.07 -163.333 1.07ZM-166.805 -5.524V-6.35H-162.255V-5.524H-166.805ZM-156.175 1.07C-156.81 1.07 -157.384 0.925333 -157.897 0.636C-158.411 0.337333 -158.821 -0.0873334 -159.129 -0.638C-159.428 -1.198 -159.577 -1.87933 -159.577 -2.682C-159.577 -3.48467 -159.428 -4.16133 -159.129 -4.712C-158.831 -5.272 -158.425 -5.69667 -157.911 -5.986C-157.398 -6.27533 -156.819 -6.42 -156.175 -6.42C-155.475 -6.42 -154.85 -6.26133 -154.299 -5.944C-153.739 -5.636 -153.301 -5.19733 -152.983 -4.628C-152.666 -4.068 -152.507 -3.41933 -152.507 -2.682C-152.507 -1.93533 -152.666 -1.282 -152.983 -0.722C-153.301 -0.162 -153.739 0.276667 -154.299 0.594C-154.85 0.911333 -155.475 1.07 -156.175 1.07ZM-159.969 3.716V-6.35H-159.017V-4.138L-159.115 -2.668L-158.975 -1.184V3.716H-159.969ZM-156.245 0.188C-155.723 0.188 -155.256 0.0713333 -154.845 -0.162C-154.435 -0.404667 -154.108 -0.740667 -153.865 -1.17C-153.623 -1.60867 -153.501 -2.11267 -153.501 -2.682C-153.501 -3.25133 -153.623 -3.75067 -153.865 -4.18C-154.108 -4.60933 -154.435 -4.94533 -154.845 -5.188C-155.256 -5.43067 -155.723 -5.552 -156.245 -5.552C-156.768 -5.552 -157.239 -5.43067 -157.659 -5.188C-158.07 -4.94533 -158.397 -4.60933 -158.639 -4.18C-158.873 -3.75067 -158.989 -3.25133 -158.989 -2.682C-158.989 -2.11267 -158.873 -1.60867 -158.639 -1.17C-158.397 -0.740667 -158.07 -0.404667 -157.659 -0.162C-157.239 0.0713333 -156.768 0.188 -156.245 0.188ZM-148.507 1.07C-149.114 1.07 -149.688 0.986 -150.229 0.818C-150.771 0.640667 -151.195 0.421333 -151.503 0.16L-151.055 -0.624C-150.757 -0.4 -150.374 -0.204 -149.907 -0.036C-149.441 0.122667 -148.951 0.202 -148.437 0.202C-147.737 0.202 -147.233 0.0946666 -146.925 -0.12C-146.617 -0.344 -146.463 -0.638 -146.463 -1.002C-146.463 -1.27267 -146.552 -1.48267 -146.729 -1.632C-146.897 -1.79067 -147.121 -1.90733 -147.401 -1.982C-147.681 -2.066 -147.994 -2.136 -148.339 -2.192C-148.685 -2.248 -149.03 -2.31333 -149.375 -2.388C-149.711 -2.46267 -150.019 -2.57 -150.299 -2.71C-150.579 -2.85933 -150.808 -3.06 -150.985 -3.312C-151.153 -3.564 -151.237 -3.9 -151.237 -4.32C-151.237 -4.72133 -151.125 -5.08067 -150.901 -5.398C-150.677 -5.71533 -150.351 -5.96267 -149.921 -6.14C-149.483 -6.32667 -148.951 -6.42 -148.325 -6.42C-147.849 -6.42 -147.373 -6.35467 -146.897 -6.224C-146.421 -6.10267 -146.029 -5.93933 -145.721 -5.734L-146.155 -4.936C-146.482 -5.16 -146.832 -5.31867 -147.205 -5.412C-147.579 -5.51467 -147.952 -5.566 -148.325 -5.566C-148.988 -5.566 -149.478 -5.44933 -149.795 -5.216C-150.103 -4.992 -150.257 -4.70267 -150.257 -4.348C-150.257 -4.068 -150.173 -3.84867 -150.005 -3.69C-149.828 -3.53133 -149.599 -3.40533 -149.319 -3.312C-149.03 -3.228 -148.717 -3.158 -148.381 -3.102C-148.036 -3.046 -147.695 -2.976 -147.359 -2.892C-147.014 -2.81733 -146.701 -2.71 -146.421 -2.57C-146.132 -2.43933 -145.903 -2.248 -145.735 -1.996C-145.558 -1.75333 -145.469 -1.43133 -145.469 -1.03C-145.469 -0.600667 -145.591 -0.227333 -145.833 0.0899999C-146.067 0.398 -146.412 0.640667 -146.869 0.818C-147.317 0.986 -147.863 1.07 -148.507 1.07ZM-143.547 -4.894C-143.753 -4.894 -143.93 -4.96867 -144.079 -5.118C-144.219 -5.26733 -144.289 -5.44933 -144.289 -5.664C-144.289 -5.888 -144.219 -6.07 -144.079 -6.21C-143.93 -6.35 -143.753 -6.42 -143.547 -6.42C-143.342 -6.42 -143.169 -6.35 -143.029 -6.21C-142.88 -6.07 -142.805 -5.888 -142.805 -5.664C-142.805 -5.44933 -142.88 -5.26733 -143.029 -5.118C-143.169 -4.96867 -143.342 -4.894 -143.547 -4.894ZM-143.547 1.07C-143.753 1.07 -143.93 0.995333 -144.079 0.846C-144.219 0.696667 -144.289 0.514667 -144.289 0.3C-144.289 0.076 -144.219 -0.106 -144.079 -0.246C-143.93 -0.386 -143.753 -0.456 -143.547 -0.456C-143.342 -0.456 -143.169 -0.386 -143.029 -0.246C-142.88 -0.106 -142.805 0.076 -142.805 0.3C-142.805 0.514667 -142.88 0.696667 -143.029 0.846C-143.169 0.995333 -143.342 1.07 -143.547 1.07ZM-141.786 2.4L-137.166 -10.788H-136.256L-140.876 2.4H-141.786ZM-137.998 2.4L-133.378 -10.788H-132.468L-137.088 2.4H-137.998ZM-130.789 -0.904L-130.761 -2.178L-126.183 -6.35H-124.965L-128.199 -3.256L-128.759 -2.78L-130.789 -0.904ZM-131.573 1V-9.388H-130.579V1H-131.573ZM-125.875 1L-128.941 -2.822L-128.297 -3.592L-124.657 1H-125.875ZM-123.165 1V-6.35H-122.171V1H-123.165ZM-122.661 -7.974C-122.866 -7.974 -123.039 -8.044 -123.179 -8.184C-123.319 -8.324 -123.389 -8.492 -123.389 -8.688C-123.389 -8.884 -123.319 -9.04733 -123.179 -9.178C-123.039 -9.318 -122.866 -9.388 -122.661 -9.388C-122.455 -9.388 -122.283 -9.32267 -122.143 -9.192C-122.003 -9.06133 -121.933 -8.898 -121.933 -8.702C-121.933 -8.49667 -122.003 -8.324 -122.143 -8.184C-122.273 -8.044 -122.446 -7.974 -122.661 -7.974ZM-116.479 1.07C-117.179 1.07 -117.809 0.911333 -118.369 0.594C-118.92 0.276667 -119.354 -0.162 -119.671 -0.722C-119.988 -1.29133 -120.147 -1.94467 -120.147 -2.682C-120.147 -3.42867 -119.988 -4.082 -119.671 -4.642C-119.354 -5.202 -118.92 -5.636 -118.369 -5.944C-117.809 -6.26133 -117.179 -6.42 -116.479 -6.42C-115.835 -6.42 -115.261 -6.27533 -114.757 -5.986C-114.244 -5.69667 -113.838 -5.272 -113.539 -4.712C-113.231 -4.16133 -113.077 -3.48467 -113.077 -2.682C-113.077 -1.88867 -113.226 -1.212 -113.525 -0.652C-113.824 -0.0920001 -114.23 0.337333 -114.743 0.636C-115.247 0.925333 -115.826 1.07 -116.479 1.07ZM-116.409 0.188C-115.886 0.188 -115.42 0.0713333 -115.009 -0.162C-114.589 -0.404667 -114.262 -0.740667 -114.029 -1.17C-113.786 -1.60867 -113.665 -2.11267 -113.665 -2.682C-113.665 -3.26067 -113.786 -3.76467 -114.029 -4.194C-114.262 -4.62333 -114.589 -4.95467 -115.009 -5.188C-115.42 -5.43067 -115.886 -5.552 -116.409 -5.552C-116.922 -5.552 -117.384 -5.43067 -117.795 -5.188C-118.206 -4.95467 -118.532 -4.62333 -118.775 -4.194C-119.018 -3.76467 -119.139 -3.26067 -119.139 -2.682C-119.139 -2.11267 -119.018 -1.60867 -118.775 -1.17C-118.532 -0.740667 -118.206 -0.404667 -117.795 -0.162C-117.384 0.0713333 -116.922 0.188 -116.409 0.188ZM-113.637 1V-1.212L-113.539 -2.696L-113.679 -4.18V-9.388H-112.685V1H-113.637ZM-107.943 1.07C-108.549 1.07 -109.123 0.986 -109.665 0.818C-110.206 0.640667 -110.631 0.421333 -110.939 0.16L-110.491 -0.624C-110.192 -0.4 -109.809 -0.204 -109.343 -0.036C-108.876 0.122667 -108.386 0.202 -107.873 0.202C-107.173 0.202 -106.669 0.0946666 -106.361 -0.12C-106.053 -0.344 -105.899 -0.638 -105.899 -1.002C-105.899 -1.27267 -105.987 -1.48267 -106.165 -1.632C-106.333 -1.79067 -106.557 -1.90733 -106.837 -1.982C-107.117 -2.066 -107.429 -2.136 -107.775 -2.192C-108.12 -2.248 -108.465 -2.31333 -108.811 -2.388C-109.147 -2.46267 -109.455 -2.57 -109.735 -2.71C-110.015 -2.85933 -110.243 -3.06 -110.421 -3.312C-110.589 -3.564 -110.673 -3.9 -110.673 -4.32C-110.673 -4.72133 -110.561 -5.08067 -110.337 -5.398C-110.113 -5.71533 -109.786 -5.96267 -109.357 -6.14C-108.918 -6.32667 -108.386 -6.42 -107.761 -6.42C-107.285 -6.42 -106.809 -6.35467 -106.333 -6.224C-105.857 -6.10267 -105.465 -5.93933 -105.157 -5.734L-105.591 -4.936C-105.917 -5.16 -106.267 -5.31867 -106.641 -5.412C-107.014 -5.51467 -107.387 -5.566 -107.761 -5.566C-108.423 -5.566 -108.913 -5.44933 -109.231 -5.216C-109.539 -4.992 -109.693 -4.70267 -109.693 -4.348C-109.693 -4.068 -109.609 -3.84867 -109.441 -3.69C-109.263 -3.53133 -109.035 -3.40533 -108.755 -3.312C-108.465 -3.228 -108.153 -3.158 -107.817 -3.102C-107.471 -3.046 -107.131 -2.976 -106.795 -2.892C-106.449 -2.81733 -106.137 -2.71 -105.857 -2.57C-105.567 -2.43933 -105.339 -2.248 -105.171 -1.996C-104.993 -1.75333 -104.905 -1.43133 -104.905 -1.03C-104.905 -0.600667 -105.026 -0.227333 -105.269 0.0899999C-105.502 0.398 -105.847 0.640667 -106.305 0.818C-106.753 0.986 -107.299 1.07 -107.943 1.07ZM-103.081 1V-9.388H-102.087V1H-103.081ZM-99.321 1V-6.35H-98.327V1H-99.321ZM-98.817 -7.974C-99.0224 -7.974 -99.195 -8.044 -99.335 -8.184C-99.475 -8.324 -99.545 -8.492 -99.545 -8.688C-99.545 -8.884 -99.475 -9.04733 -99.335 -9.178C-99.195 -9.318 -99.0224 -9.388 -98.817 -9.388C-98.6117 -9.388 -98.439 -9.32267 -98.299 -9.192C-98.159 -9.06133 -98.089 -8.898 -98.089 -8.702C-98.089 -8.49667 -98.159 -8.324 -98.299 -8.184C-98.4297 -8.044 -98.6024 -7.974 -98.817 -7.974ZM-94.7773 -0.904L-94.7493 -2.178L-90.1713 -6.35H-88.9533L-92.1873 -3.256L-92.7473 -2.78L-94.7773 -0.904ZM-95.5613 1V-9.388H-94.5673V1H-95.5613ZM-89.8633 1L-92.9293 -2.822L-92.2853 -3.592L-88.6453 1H-89.8633ZM-84.3182 1.07C-85.0835 1.07 -85.7555 0.911333 -86.3342 0.594C-86.9128 0.267333 -87.3655 -0.176 -87.6922 -0.736C-88.0188 -1.30533 -88.1822 -1.954 -88.1822 -2.682C-88.1822 -3.41 -88.0282 -4.054 -87.7202 -4.614C-87.4028 -5.174 -86.9735 -5.61267 -86.4322 -5.93C-85.8815 -6.25667 -85.2655 -6.42 -84.5842 -6.42C-83.8935 -6.42 -83.2822 -6.26133 -82.7502 -5.944C-82.2088 -5.636 -81.7842 -5.19733 -81.4762 -4.628C-81.1682 -4.068 -81.0142 -3.41933 -81.0142 -2.682C-81.0142 -2.63533 -81.0188 -2.584 -81.0282 -2.528C-81.0282 -2.48133 -81.0282 -2.43 -81.0282 -2.374H-87.4262V-3.116H-81.5602L-81.9522 -2.822C-81.9522 -3.354 -82.0688 -3.82533 -82.3022 -4.236C-82.5262 -4.656 -82.8342 -4.98267 -83.2262 -5.216C-83.6182 -5.44933 -84.0708 -5.566 -84.5842 -5.566C-85.0882 -5.566 -85.5408 -5.44933 -85.9422 -5.216C-86.3435 -4.98267 -86.6562 -4.656 -86.8802 -4.236C-87.1042 -3.816 -87.2162 -3.33533 -87.2162 -2.794V-2.64C-87.2162 -2.08 -87.0948 -1.58533 -86.8522 -1.156C-86.6002 -0.736 -86.2548 -0.404667 -85.8162 -0.162C-85.3682 0.0713333 -84.8595 0.188 -84.2902 0.188C-83.8422 0.188 -83.4268 0.108667 -83.0442 -0.05C-82.6522 -0.208667 -82.3162 -0.451333 -82.0362 -0.778L-81.4762 -0.134C-81.8028 0.258 -82.2135 0.556667 -82.7082 0.762C-83.1935 0.967333 -83.7302 1.07 -84.3182 1.07ZM-78.893 1.07C-79.0983 1.07 -79.2756 0.995333 -79.425 0.846C-79.565 0.696667 -79.635 0.514667 -79.635 0.3C-79.635 0.076 -79.565 -0.106 -79.425 -0.246C-79.2756 -0.386 -79.0983 -0.456 -78.893 -0.456C-78.6876 -0.456 -78.515 -0.386 -78.375 -0.246C-78.2256 -0.106 -78.151 0.076 -78.151 0.3C-78.151 0.514667 -78.2256 0.696667 -78.375 0.846C-78.515 0.995333 -78.6876 1.07 -78.893 1.07ZM-73.0932 3.786C-73.7652 3.786 -74.4092 3.688 -75.0252 3.492C-75.6412 3.296 -76.1406 3.016 -76.5232 2.652L-76.0192 1.896C-75.6739 2.204 -75.2492 2.44667 -74.7452 2.624C-74.2319 2.81067 -73.6906 2.904 -73.1212 2.904C-72.1879 2.904 -71.5019 2.68467 -71.0632 2.246C-70.6246 1.81667 -70.4052 1.14467 -70.4052 0.23V-1.604L-70.2652 -2.864L-70.3632 -4.124V-6.35H-69.4112V0.104C-69.4112 1.37333 -69.7239 2.302 -70.3492 2.89C-70.9652 3.48733 -71.8799 3.786 -73.0932 3.786ZM-73.2752 0.72C-73.9752 0.72 -74.6052 0.570667 -75.1652 0.272C-75.7252 -0.036 -76.1686 -0.460667 -76.4952 -1.002C-76.8126 -1.54333 -76.9712 -2.164 -76.9712 -2.864C-76.9712 -3.564 -76.8126 -4.18 -76.4952 -4.712C-76.1686 -5.25333 -75.7252 -5.67333 -75.1652 -5.972C-74.6052 -6.27067 -73.9752 -6.42 -73.2752 -6.42C-72.6219 -6.42 -72.0339 -6.28467 -71.5112 -6.014C-70.9886 -5.74333 -70.5732 -5.342 -70.2652 -4.81C-69.9572 -4.278 -69.8032 -3.62933 -69.8032 -2.864C-69.8032 -2.09867 -69.9572 -1.45 -70.2652 -0.918C-70.5732 -0.386 -70.9886 0.0199999 -71.5112 0.3C-72.0339 0.58 -72.6219 0.72 -73.2752 0.72ZM-73.1772 -0.162C-72.6359 -0.162 -72.1552 -0.274 -71.7352 -0.498C-71.3152 -0.731333 -70.9839 -1.04867 -70.7412 -1.45C-70.4986 -1.86067 -70.3772 -2.332 -70.3772 -2.864C-70.3772 -3.396 -70.4986 -3.86267 -70.7412 -4.264C-70.9839 -4.66533 -71.3152 -4.978 -71.7352 -5.202C-72.1552 -5.43533 -72.6359 -5.552 -73.1772 -5.552C-73.7092 -5.552 -74.1899 -5.43533 -74.6192 -5.202C-75.0392 -4.978 -75.3706 -4.66533 -75.6132 -4.264C-75.8466 -3.86267 -75.9632 -3.396 -75.9632 -2.864C-75.9632 -2.332 -75.8466 -1.86067 -75.6132 -1.45C-75.3706 -1.04867 -75.0392 -0.731333 -74.6192 -0.498C-74.1899 -0.274 -73.7092 -0.162 -73.1772 -0.162ZM-63.6492 1.07C-64.3586 1.07 -64.9979 0.911333 -65.5672 0.594C-66.1272 0.267333 -66.5706 -0.176 -66.8972 -0.736C-67.2239 -1.30533 -67.3872 -1.954 -67.3872 -2.682C-67.3872 -3.41933 -67.2239 -4.068 -66.8972 -4.628C-66.5706 -5.188 -66.1272 -5.62667 -65.5672 -5.944C-65.0072 -6.26133 -64.3679 -6.42 -63.6492 -6.42C-62.9212 -6.42 -62.2772 -6.26133 -61.7172 -5.944C-61.1479 -5.62667 -60.7046 -5.188 -60.3872 -4.628C-60.0606 -4.068 -59.8972 -3.41933 -59.8972 -2.682C-59.8972 -1.954 -60.0606 -1.30533 -60.3872 -0.736C-60.7046 -0.176 -61.1479 0.267333 -61.7172 0.594C-62.2866 0.911333 -62.9306 1.07 -63.6492 1.07ZM-63.6492 0.188C-63.1172 0.188 -62.6459 0.0713333 -62.2352 -0.162C-61.8246 -0.404667 -61.5026 -0.740667 -61.2692 -1.17C-61.0266 -1.60867 -60.9052 -2.11267 -60.9052 -2.682C-60.9052 -3.26067 -61.0266 -3.76467 -61.2692 -4.194C-61.5026 -4.62333 -61.8246 -4.95467 -62.2352 -5.188C-62.6459 -5.43067 -63.1126 -5.552 -63.6352 -5.552C-64.1579 -5.552 -64.6246 -5.43067 -65.0352 -5.188C-65.4459 -4.95467 -65.7726 -4.62333 -66.0152 -4.194C-66.2579 -3.76467 -66.3792 -3.26067 -66.3792 -2.682C-66.3792 -2.11267 -66.2579 -1.60867 -66.0152 -1.17C-65.7726 -0.740667 -65.4459 -0.404667 -65.0352 -0.162C-64.6246 0.0713333 -64.1626 0.188 -63.6492 0.188ZM-57.8679 1V-6.35H-56.8739V1H-57.8679ZM-57.3639 -7.974C-57.5692 -7.974 -57.7419 -8.044 -57.8819 -8.184C-58.0219 -8.324 -58.0919 -8.492 -58.0919 -8.688C-58.0919 -8.884 -58.0219 -9.04733 -57.8819 -9.178C-57.7419 -9.318 -57.5692 -9.388 -57.3639 -9.388C-57.1586 -9.388 -56.9859 -9.32267 -56.8459 -9.192C-56.7059 -9.06133 -56.6359 -8.898 -56.6359 -8.702C-56.6359 -8.49667 -56.7059 -8.324 -56.8459 -8.184C-56.9766 -8.044 -57.1492 -7.974 -57.3639 -7.974ZM-51.7841 1.07C-52.4748 1.07 -53.0068 0.883333 -53.3801 0.51C-53.7535 0.136667 -53.9401 -0.390667 -53.9401 -1.072V-7.974H-52.9461V-1.128C-52.9461 -0.698667 -52.8388 -0.367333 -52.6241 -0.134C-52.4001 0.0993333 -52.0828 0.216 -51.6721 0.216C-51.2335 0.216 -50.8695 0.09 -50.5801 -0.162L-50.2301 0.552C-50.4261 0.729333 -50.6641 0.86 -50.9441 0.944C-51.2148 1.028 -51.4948 1.07 -51.7841 1.07ZM-55.2561 -5.524V-6.35H-50.7061V-5.524H-55.2561ZM-48.1859 1.07C-48.3913 1.07 -48.5686 0.995333 -48.7179 0.846C-48.8579 0.696667 -48.9279 0.514667 -48.9279 0.3C-48.9279 0.076 -48.8579 -0.106 -48.7179 -0.246C-48.5686 -0.386 -48.3913 -0.456 -48.1859 -0.456C-47.9806 -0.456 -47.8079 -0.386 -47.6679 -0.246C-47.5186 -0.106 -47.4439 0.076 -47.4439 0.3C-47.4439 0.514667 -47.5186 0.696667 -47.6679 0.846C-47.8079 0.995333 -47.9806 1.07 -48.1859 1.07ZM-42.3862 3.786C-43.0582 3.786 -43.7022 3.688 -44.3182 3.492C-44.9342 3.296 -45.4335 3.016 -45.8162 2.652L-45.3122 1.896C-44.9669 2.204 -44.5422 2.44667 -44.0382 2.624C-43.5249 2.81067 -42.9835 2.904 -42.4142 2.904C-41.4809 2.904 -40.7949 2.68467 -40.3562 2.246C-39.9175 1.81667 -39.6982 1.14467 -39.6982 0.23V-1.604L-39.5582 -2.864L-39.6562 -4.124V-6.35H-38.7042V0.104C-38.7042 1.37333 -39.0169 2.302 -39.6422 2.89C-40.2582 3.48733 -41.1729 3.786 -42.3862 3.786ZM-42.5682 0.72C-43.2682 0.72 -43.8982 0.570667 -44.4582 0.272C-45.0182 -0.036 -45.4615 -0.460667 -45.7882 -1.002C-46.1055 -1.54333 -46.2642 -2.164 -46.2642 -2.864C-46.2642 -3.564 -46.1055 -4.18 -45.7882 -4.712C-45.4615 -5.25333 -45.0182 -5.67333 -44.4582 -5.972C-43.8982 -6.27067 -43.2682 -6.42 -42.5682 -6.42C-41.9149 -6.42 -41.3269 -6.28467 -40.8042 -6.014C-40.2815 -5.74333 -39.8662 -5.342 -39.5582 -4.81C-39.2502 -4.278 -39.0962 -3.62933 -39.0962 -2.864C-39.0962 -2.09867 -39.2502 -1.45 -39.5582 -0.918C-39.8662 -0.386 -40.2815 0.0199999 -40.8042 0.3C-41.3269 0.58 -41.9149 0.72 -42.5682 0.72ZM-42.4702 -0.162C-41.9289 -0.162 -41.4482 -0.274 -41.0282 -0.498C-40.6082 -0.731333 -40.2769 -1.04867 -40.0342 -1.45C-39.7915 -1.86067 -39.6702 -2.332 -39.6702 -2.864C-39.6702 -3.396 -39.7915 -3.86267 -40.0342 -4.264C-40.2769 -4.66533 -40.6082 -4.978 -41.0282 -5.202C-41.4482 -5.43533 -41.9289 -5.552 -42.4702 -5.552C-43.0022 -5.552 -43.4829 -5.43533 -43.9122 -5.202C-44.3322 -4.978 -44.6635 -4.66533 -44.9062 -4.264C-45.1395 -3.86267 -45.2562 -3.396 -45.2562 -2.864C-45.2562 -2.332 -45.1395 -1.86067 -44.9062 -1.45C-44.6635 -1.04867 -44.3322 -0.731333 -43.9122 -0.498C-43.4829 -0.274 -43.0022 -0.162 -42.4702 -0.162ZM-35.9382 1V-9.388H-34.9442V1H-35.9382ZM-29.1825 1.07C-29.8918 1.07 -30.5311 0.911333 -31.1005 0.594C-31.6605 0.267333 -32.1038 -0.176 -32.4305 -0.736C-32.7571 -1.30533 -32.9205 -1.954 -32.9205 -2.682C-32.9205 -3.41933 -32.7571 -4.068 -32.4305 -4.628C-32.1038 -5.188 -31.6605 -5.62667 -31.1005 -5.944C-30.5405 -6.26133 -29.9011 -6.42 -29.1825 -6.42C-28.4545 -6.42 -27.8105 -6.26133 -27.2505 -5.944C-26.6811 -5.62667 -26.2378 -5.188 -25.9205 -4.628C-25.5938 -4.068 -25.4305 -3.41933 -25.4305 -2.682C-25.4305 -1.954 -25.5938 -1.30533 -25.9205 -0.736C-26.2378 -0.176 -26.6811 0.267333 -27.2505 0.594C-27.8198 0.911333 -28.4638 1.07 -29.1825 1.07ZM-29.1825 0.188C-28.6505 0.188 -28.1791 0.0713333 -27.7685 -0.162C-27.3578 -0.404667 -27.0358 -0.740667 -26.8025 -1.17C-26.5598 -1.60867 -26.4385 -2.11267 -26.4385 -2.682C-26.4385 -3.26067 -26.5598 -3.76467 -26.8025 -4.194C-27.0358 -4.62333 -27.3578 -4.95467 -27.7685 -5.188C-28.1791 -5.43067 -28.6458 -5.552 -29.1685 -5.552C-29.6911 -5.552 -30.1578 -5.43067 -30.5685 -5.188C-30.9791 -4.95467 -31.3058 -4.62333 -31.5485 -4.194C-31.7911 -3.76467 -31.9125 -3.26067 -31.9125 -2.682C-31.9125 -2.11267 -31.7911 -1.60867 -31.5485 -1.17C-31.3058 -0.740667 -30.9791 -0.404667 -30.5685 -0.162C-30.1578 0.0713333 -29.6958 0.188 -29.1825 0.188ZM-19.6071 1.07C-20.2511 1.07 -20.8298 0.925333 -21.3431 0.636C-21.8564 0.337333 -22.2624 -0.0920001 -22.5611 -0.652C-22.8598 -1.212 -23.0091 -1.88867 -23.0091 -2.682C-23.0091 -3.48467 -22.8598 -4.16133 -22.5611 -4.712C-22.2531 -5.272 -21.8424 -5.69667 -21.3291 -5.986C-20.8158 -6.27533 -20.2418 -6.42 -19.6071 -6.42C-18.9071 -6.42 -18.2818 -6.26133 -17.7311 -5.944C-17.1711 -5.636 -16.7324 -5.202 -16.4151 -4.642C-16.0978 -4.082 -15.9391 -3.42867 -15.9391 -2.682C-15.9391 -1.94467 -16.0978 -1.29133 -16.4151 -0.722C-16.7324 -0.162 -17.1711 0.276667 -17.7311 0.594C-18.2818 0.911333 -18.9071 1.07 -19.6071 1.07ZM-23.4011 1V-9.388H-22.4071V-4.18L-22.5471 -2.696L-22.4491 -1.212V1H-23.4011ZM-19.6771 0.188C-19.1544 0.188 -18.6878 0.0713333 -18.2771 -0.162C-17.8664 -0.404667 -17.5398 -0.740667 -17.2971 -1.17C-17.0544 -1.60867 -16.9331 -2.11267 -16.9331 -2.682C-16.9331 -3.26067 -17.0544 -3.76467 -17.2971 -4.194C-17.5398 -4.62333 -17.8664 -4.95467 -18.2771 -5.188C-18.6878 -5.43067 -19.1544 -5.552 -19.6771 -5.552C-20.1998 -5.552 -20.6711 -5.43067 -21.0911 -5.188C-21.5018 -4.95467 -21.8284 -4.62333 -22.0711 -4.194C-22.3044 -3.76467 -22.4211 -3.26067 -22.4211 -2.682C-22.4211 -2.11267 -22.3044 -1.60867 -22.0711 -1.17C-21.8284 -0.740667 -21.5018 -0.404667 -21.0911 -0.162C-20.6711 0.0713333 -20.1998 0.188 -19.6771 0.188ZM-9.34784 1V-0.624L-9.38984 -0.89V-3.606C-9.38984 -4.23133 -9.56718 -4.712 -9.92184 -5.048C-10.2672 -5.384 -10.7852 -5.552 -11.4758 -5.552C-11.9518 -5.552 -12.4045 -5.47267 -12.8338 -5.314C-13.2632 -5.15533 -13.6272 -4.94533 -13.9258 -4.684L-14.3738 -5.426C-14.0005 -5.74333 -13.5525 -5.986 -13.0298 -6.154C-12.5072 -6.33133 -11.9565 -6.42 -11.3778 -6.42C-10.4258 -6.42 -9.69318 -6.182 -9.17984 -5.706C-8.65718 -5.23933 -8.39584 -4.52533 -8.39584 -3.564V1H-9.34784ZM-11.8818 1.07C-12.4325 1.07 -12.9132 0.981333 -13.3238 0.804C-13.7252 0.617333 -14.0332 0.365333 -14.2478 0.0479999C-14.4625 -0.278667 -14.5698 -0.652 -14.5698 -1.072C-14.5698 -1.45467 -14.4812 -1.8 -14.3038 -2.108C-14.1172 -2.42533 -13.8185 -2.67733 -13.4078 -2.864C-12.9878 -3.06 -12.4278 -3.158 -11.7278 -3.158H-9.19384V-2.416H-11.6998C-12.4092 -2.416 -12.9038 -2.29 -13.1838 -2.038C-13.4545 -1.786 -13.5898 -1.47333 -13.5898 -1.1C-13.5898 -0.68 -13.4265 -0.344 -13.0998 -0.092C-12.7732 0.16 -12.3158 0.286 -11.7278 0.286C-11.1678 0.286 -10.6872 0.16 -10.2858 -0.092C-9.87518 -0.353333 -9.57651 -0.726667 -9.38984 -1.212L-9.16584 -0.526C-9.35251 -0.0406667 -9.67918 0.346667 -10.1458 0.636C-10.6032 0.925333 -11.1818 1.07 -11.8818 1.07ZM-5.69603 1V-9.388H-4.70203V1H-5.69603ZM-3.67227 2.4L0.947734 -10.788H1.85773L-2.76227 2.4H-3.67227Z" fill="#595959"/>
<path d="M-182 -45.25H29.8873V-44.55H-182V-45.25Z" fill="#595959"/>
<path d="M-182 -21.25H20.9732V-20.55H-182V-21.25Z" fill="#595959"/>
<path d="M-182 2.75H1.36774V3.45H-182V2.75Z" fill="#595959"/>
</g>
<a href="https://barbershop.goit.global/">
<rect fill="black" fill-opacity="0" y="3.467" width="211.887" height="17.066"/>
</a>
<a href="https://cryptohub.goit.global/">
<rect fill="black" fill-opacity="0" y="27.467" width="202.973" height="17.066"/>
</a>
<a href="https://kidslike.goit.global/">
<rect fill="black" fill-opacity="0" y="51.467" width="183.368" height="17.066"/>
</a>
<g id="Group 1">
<g id="Frame 3">
<path id="Vector 2" d="M142.5 1H0.567688" stroke="#A8A8A8" stroke-dasharray="4 4"/>
</g>
</g>
</g>
</g>
<defs>
<filter id="filter0_d_0_1" x="-680" y="-485" width="1240" height="1359" filterUnits="userSpaceOnUse" color-interpolation-filters="sRGB">
<feFlood flood-opacity="0" result="BackgroundImageFix"/>
<feColorMatrix in="SourceAlpha" type="matrix" values="0 0 0 0 0 0 0 0 0 0 0 0 0 0 0 0 0 0 127 0" result="hardAlpha"/>
<feOffset dx="6" dy="6"/>
<feGaussianBlur stdDeviation="10"/>
<feColorMatrix type="matrix" values="0 0 0 0 0 0 0 0 0 0 0 0 0 0 0 0 0 0 0.1 0"/>
<feBlend mode="normal" in2="BackgroundImageFix" result="effect1_dropShadow_0_1"/>
<feBlend mode="normal" in="SourceGraphic" in2="effect1_dropShadow_0_1" result="shape"/>
</filter>
</defs>
</svg>
