<svg width="119" height="2" viewBox="0 0 119 2" fill="none" xmlns="http://www.w3.org/2000/svg">
<rect width="119" height="2" fill="#E5E5E5"/>
<g id="CV">
<rect width="1280" height="1399" transform="translate(-730 -463)" fill="#F5F7FA"/>
<g id="Rectangle 1" filter="url(#filter0_d_0_1)">
<rect x="-690" y="-423" width="1200" height="1319" fill="white"/>
</g>
<g id="Projects">
<g id="https://barbershop.goit.global/ https://cryptohub.goit.global/ https://kidslike.goit.global/">
<path d="M-200.862 -6.42C-200.265 -6.42 -199.742 -6.30333 -199.294 -6.07C-198.837 -5.846 -198.482 -5.50067 -198.23 -5.034C-197.969 -4.56733 -197.838 -3.97933 -197.838 -3.27V1H-198.832V-3.172C-198.832 -3.94667 -199.028 -4.53 -199.42 -4.922C-199.803 -5.32333 -200.344 -5.524 -201.044 -5.524C-201.567 -5.524 -202.024 -5.41667 -202.416 -5.202C-202.799 -4.99667 -203.097 -4.69333 -203.312 -4.292C-203.517 -3.9 -203.62 -3.424 -203.62 -2.864V1H-204.614V-9.388H-203.62V-4.334L-203.816 -4.712C-203.583 -5.244 -203.209 -5.65933 -202.696 -5.958C-202.183 -6.266 -201.571 -6.42 -200.862 -6.42ZM-192.829 1.07C-193.52 1.07 -194.052 0.883333 -194.425 0.51C-194.798 0.136667 -194.985 -0.390667 -194.985 -1.072V-7.974H-193.991V-1.128C-193.991 -0.698667 -193.884 -0.367333 -193.669 -0.134C-193.445 0.0993333 -193.128 0.216 -192.717 0.216C-192.278 0.216 -191.914 0.09 -191.625 -0.162L-191.275 0.552C-191.471 0.729333 -191.709 0.86 -191.989 0.944C-192.26 1.028 -192.54 1.07 -192.829 1.07ZM-196.301 -5.524V-6.35H-191.751V-5.524H-196.301ZM-187.333 1.07C-188.024 1.07 -188.556 0.883333 -188.929 0.51C-189.302 0.136667 -189.489 -0.390667 -189.489 -1.072V-7.974H-188.495V-1.128C-188.495 -0.698667 -188.388 -0.367333 -188.173 -0.134C-187.949 0.0993333 -187.632 0.216 -187.221 0.216C-186.782 0.216 -186.418 0.09 -186.129 -0.162L-185.779 0.552C-185.975 0.729333 -186.213 0.86 -186.493 0.944C-186.764 1.028 -187.044 1.07 -187.333 1.07ZM-190.805 -5.524V-6.35H-186.255V-5.524H-190.805ZM-180.175 1.07C-180.81 1.07 -181.384 0.925333 -181.897 0.636C-182.411 0.337333 -182.821 -0.0873334 -183.129 -0.638C-183.428 -1.198 -183.577 -1.87933 -183.577 -2.682C-183.577 -3.48467 -183.428 -4.16133 -183.129 -4.712C-182.831 -5.272 -182.425 -5.69667 -181.911 -5.986C-181.398 -6.27533 -180.819 -6.42 -180.175 -6.42C-179.475 -6.42 -178.85 -6.26133 -178.299 -5.944C-177.739 -5.636 -177.301 -5.19733 -176.983 -4.628C-176.666 -4.068 -176.507 -3.41933 -176.507 -2.682C-176.507 -1.93533 -176.666 -1.282 -176.983 -0.722C-177.301 -0.162 -177.739 0.276667 -178.299 0.594C-178.85 0.911333 -179.475 1.07 -180.175 1.07ZM-183.969 3.716V-6.35H-183.017V-4.138L-183.115 -2.668L-182.975 -1.184V3.716H-183.969ZM-180.245 0.188C-179.723 0.188 -179.256 0.0713333 -178.845 -0.162C-178.435 -0.404667 -178.108 -0.740667 -177.865 -1.17C-177.623 -1.60867 -177.501 -2.11267 -177.501 -2.682C-177.501 -3.25133 -177.623 -3.75067 -177.865 -4.18C-178.108 -4.60933 -178.435 -4.94533 -178.845 -5.188C-179.256 -5.43067 -179.723 -5.552 -180.245 -5.552C-180.768 -5.552 -181.239 -5.43067 -181.659 -5.188C-182.07 -4.94533 -182.397 -4.60933 -182.639 -4.18C-182.873 -3.75067 -182.989 -3.25133 -182.989 -2.682C-182.989 -2.11267 -182.873 -1.60867 -182.639 -1.17C-182.397 -0.740667 -182.07 -0.404667 -181.659 -0.162C-181.239 0.0713333 -180.768 0.188 -180.245 0.188ZM-172.507 1.07C-173.114 1.07 -173.688 0.986 -174.229 0.818C-174.771 0.640667 -175.195 0.421333 -175.503 0.16L-175.055 -0.624C-174.757 -0.4 -174.374 -0.204 -173.907 -0.036C-173.441 0.122667 -172.951 0.202 -172.437 0.202C-171.737 0.202 -171.233 0.0946666 -170.925 -0.12C-170.617 -0.344 -170.463 -0.638 -170.463 -1.002C-170.463 -1.27267 -170.552 -1.48267 -170.729 -1.632C-170.897 -1.79067 -171.121 -1.90733 -171.401 -1.982C-171.681 -2.066 -171.994 -2.136 -172.339 -2.192C-172.685 -2.248 -173.03 -2.31333 -173.375 -2.388C-173.711 -2.46267 -174.019 -2.57 -174.299 -2.71C-174.579 -2.85933 -174.808 -3.06 -174.985 -3.312C-175.153 -3.564 -175.237 -3.9 -175.237 -4.32C-175.237 -4.72133 -175.125 -5.08067 -174.901 -5.398C-174.677 -5.71533 -174.351 -5.96267 -173.921 -6.14C-173.483 -6.32667 -172.951 -6.42 -172.325 -6.42C-171.849 -6.42 -171.373 -6.35467 -170.897 -6.224C-170.421 -6.10267 -170.029 -5.93933 -169.721 -5.734L-170.155 -4.936C-170.482 -5.16 -170.832 -5.31867 -171.205 -5.412C-171.579 -5.51467 -171.952 -5.566 -172.325 -5.566C-172.988 -5.566 -173.478 -5.44933 -173.795 -5.216C-174.103 -4.992 -174.257 -4.70267 -174.257 -4.348C-174.257 -4.068 -174.173 -3.84867 -174.005 -3.69C-173.828 -3.53133 -173.599 -3.40533 -173.319 -3.312C-173.03 -3.228 -172.717 -3.158 -172.381 -3.102C-172.036 -3.046 -171.695 -2.976 -171.359 -2.892C-171.014 -2.81733 -170.701 -2.71 -170.421 -2.57C-170.132 -2.43933 -169.903 -2.248 -169.735 -1.996C-169.558 -1.75333 -169.469 -1.43133 -169.469 -1.03C-169.469 -0.600667 -169.591 -0.227333 -169.833 0.0899999C-170.067 0.398 -170.412 0.640667 -170.869 0.818C-171.317 0.986 -171.863 1.07 -172.507 1.07ZM-167.547 -4.894C-167.753 -4.894 -167.93 -4.96867 -168.079 -5.118C-168.219 -5.26733 -168.289 -5.44933 -168.289 -5.664C-168.289 -5.888 -168.219 -6.07 -168.079 -6.21C-167.93 -6.35 -167.753 -6.42 -167.547 -6.42C-167.342 -6.42 -167.169 -6.35 -167.029 -6.21C-166.88 -6.07 -166.805 -5.888 -166.805 -5.664C-166.805 -5.44933 -166.88 -5.26733 -167.029 -5.118C-167.169 -4.96867 -167.342 -4.894 -167.547 -4.894ZM-167.547 1.07C-167.753 1.07 -167.93 0.995333 -168.079 0.846C-168.219 0.696667 -168.289 0.514667 -168.289 0.3C-168.289 0.076 -168.219 -0.106 -168.079 -0.246C-167.93 -0.386 -167.753 -0.456 -167.547 -0.456C-167.342 -0.456 -167.169 -0.386 -167.029 -0.246C-166.88 -0.106 -166.805 0.076 -166.805 0.3C-166.805 0.514667 -166.88 0.696667 -167.029 0.846C-167.169 0.995333 -167.342 1.07 -167.547 1.07ZM-165.786 2.4L-161.166 -10.788H-160.256L-164.876 2.4H-165.786ZM-161.998 2.4L-157.378 -10.788H-156.468L-161.088 2.4H-161.998ZM-151.779 1.07C-152.423 1.07 -153.002 0.925333 -153.515 0.636C-154.028 0.337333 -154.434 -0.0920001 -154.733 -0.652C-155.032 -1.212 -155.181 -1.88867 -155.181 -2.682C-155.181 -3.48467 -155.032 -4.16133 -154.733 -4.712C-154.425 -5.272 -154.014 -5.69667 -153.501 -5.986C-152.988 -6.27533 -152.414 -6.42 -151.779 -6.42C-151.079 -6.42 -150.454 -6.26133 -149.903 -5.944C-149.343 -5.636 -148.904 -5.202 -148.587 -4.642C-148.27 -4.082 -148.111 -3.42867 -148.111 -2.682C-148.111 -1.94467 -148.27 -1.29133 -148.587 -0.722C-148.904 -0.162 -149.343 0.276667 -149.903 0.594C-150.454 0.911333 -151.079 1.07 -151.779 1.07ZM-155.573 1V-9.388H-154.579V-4.18L-154.719 -2.696L-154.621 -1.212V1H-155.573ZM-151.849 0.188C-151.326 0.188 -150.86 0.0713333 -150.449 -0.162C-150.038 -0.404667 -149.712 -0.740667 -149.469 -1.17C-149.226 -1.60867 -149.105 -2.11267 -149.105 -2.682C-149.105 -3.26067 -149.226 -3.76467 -149.469 -4.194C-149.712 -4.62333 -150.038 -4.95467 -150.449 -5.188C-150.86 -5.43067 -151.326 -5.552 -151.849 -5.552C-152.372 -5.552 -152.843 -5.43067 -153.263 -5.188C-153.674 -4.95467 -154 -4.62333 -154.243 -4.194C-154.476 -3.76467 -154.593 -3.26067 -154.593 -2.682C-154.593 -2.11267 -154.476 -1.60867 -154.243 -1.17C-154 -0.740667 -153.674 -0.404667 -153.263 -0.162C-152.843 0.0713333 -152.372 0.188 -151.849 0.188ZM-141.52 1V-0.624L-141.562 -0.89V-3.606C-141.562 -4.23133 -141.739 -4.712 -142.094 -5.048C-142.439 -5.384 -142.957 -5.552 -143.648 -5.552C-144.124 -5.552 -144.576 -5.47267 -145.006 -5.314C-145.435 -5.15533 -145.799 -4.94533 -146.098 -4.684L-146.546 -5.426C-146.172 -5.74333 -145.724 -5.986 -145.202 -6.154C-144.679 -6.33133 -144.128 -6.42 -143.55 -6.42C-142.598 -6.42 -141.865 -6.182 -141.352 -5.706C-140.829 -5.23933 -140.568 -4.52533 -140.568 -3.564V1H-141.52ZM-144.054 1.07C-144.604 1.07 -145.085 0.981333 -145.496 0.804C-145.897 0.617333 -146.205 0.365333 -146.42 0.0479999C-146.634 -0.278667 -146.742 -0.652 -146.742 -1.072C-146.742 -1.45467 -146.653 -1.8 -146.476 -2.108C-146.289 -2.42533 -145.99 -2.67733 -145.58 -2.864C-145.16 -3.06 -144.6 -3.158 -143.9 -3.158H-141.366V-2.416H-143.872C-144.581 -2.416 -145.076 -2.29 -145.356 -2.038C-145.626 -1.786 -145.762 -1.47333 -145.762 -1.1C-145.762 -0.68 -145.598 -0.344 -145.272 -0.092C-144.945 0.16 -144.488 0.286 -143.9 0.286C-143.34 0.286 -142.859 0.16 -142.458 -0.092C-142.047 -0.353333 -141.748 -0.726667 -141.562 -1.212L-141.338 -0.526C-141.524 -0.0406667 -141.851 0.346667 -142.318 0.636C-142.775 0.925333 -143.354 1.07 -144.054 1.07ZM-137.868 1V-6.35H-136.916V-4.348L-137.014 -4.698C-136.809 -5.258 -136.463 -5.68267 -135.978 -5.972C-135.493 -6.27067 -134.891 -6.42 -134.172 -6.42V-5.454C-134.209 -5.454 -134.247 -5.454 -134.284 -5.454C-134.321 -5.46333 -134.359 -5.468 -134.396 -5.468C-135.171 -5.468 -135.777 -5.23 -136.216 -4.754C-136.655 -4.28733 -136.874 -3.62 -136.874 -2.752V1H-137.868ZM-128.564 1.07C-129.208 1.07 -129.787 0.925333 -130.3 0.636C-130.813 0.337333 -131.219 -0.0920001 -131.518 -0.652C-131.817 -1.212 -131.966 -1.88867 -131.966 -2.682C-131.966 -3.48467 -131.817 -4.16133 -131.518 -4.712C-131.21 -5.272 -130.799 -5.69667 -130.286 -5.986C-129.773 -6.27533 -129.199 -6.42 -128.564 -6.42C-127.864 -6.42 -127.239 -6.26133 -126.688 -5.944C-126.128 -5.636 -125.689 -5.202 -125.372 -4.642C-125.055 -4.082 -124.896 -3.42867 -124.896 -2.682C-124.896 -1.94467 -125.055 -1.29133 -125.372 -0.722C-125.689 -0.162 -126.128 0.276667 -126.688 0.594C-127.239 0.911333 -127.864 1.07 -128.564 1.07ZM-132.358 1V-9.388H-131.364V-4.18L-131.504 -2.696L-131.406 -1.212V1H-132.358ZM-128.634 0.188C-128.111 0.188 -127.645 0.0713333 -127.234 -0.162C-126.823 -0.404667 -126.497 -0.740667 -126.254 -1.17C-126.011 -1.60867 -125.89 -2.11267 -125.89 -2.682C-125.89 -3.26067 -126.011 -3.76467 -126.254 -4.194C-126.497 -4.62333 -126.823 -4.95467 -127.234 -5.188C-127.645 -5.43067 -128.111 -5.552 -128.634 -5.552C-129.157 -5.552 -129.628 -5.43067 -130.048 -5.188C-130.459 -4.95467 -130.785 -4.62333 -131.028 -4.194C-131.261 -3.76467 -131.378 -3.26067 -131.378 -2.682C-131.378 -2.11267 -131.261 -1.60867 -131.028 -1.17C-130.785 -0.740667 -130.459 -0.404667 -130.048 -0.162C-129.628 0.0713333 -129.157 0.188 -128.634 0.188ZM-119.748 1.07C-120.513 1.07 -121.185 0.911333 -121.764 0.594C-122.343 0.267333 -122.795 -0.176 -123.122 -0.736C-123.449 -1.30533 -123.612 -1.954 -123.612 -2.682C-123.612 -3.41 -123.458 -4.054 -123.15 -4.614C-122.833 -5.174 -122.403 -5.61267 -121.862 -5.93C-121.311 -6.25667 -120.695 -6.42 -120.014 -6.42C-119.323 -6.42 -118.712 -6.26133 -118.18 -5.944C-117.639 -5.636 -117.214 -5.19733 -116.906 -4.628C-116.598 -4.068 -116.444 -3.41933 -116.444 -2.682C-116.444 -2.63533 -116.449 -2.584 -116.458 -2.528C-116.458 -2.48133 -116.458 -2.43 -116.458 -2.374H-122.856V-3.116H-116.99L-117.382 -2.822C-117.382 -3.354 -117.499 -3.82533 -117.732 -4.236C-117.956 -4.656 -118.264 -4.98267 -118.656 -5.216C-119.048 -5.44933 -119.501 -5.566 -120.014 -5.566C-120.518 -5.566 -120.971 -5.44933 -121.372 -5.216C-121.773 -4.98267 -122.086 -4.656 -122.31 -4.236C-122.534 -3.816 -122.646 -3.33533 -122.646 -2.794V-2.64C-122.646 -2.08 -122.525 -1.58533 -122.282 -1.156C-122.03 -0.736 -121.685 -0.404667 -121.246 -0.162C-120.798 0.0713333 -120.289 0.188 -119.72 0.188C-119.272 0.188 -118.857 0.108667 -118.474 -0.05C-118.082 -0.208667 -117.746 -0.451333 -117.466 -0.778L-116.906 -0.134C-117.233 0.258 -117.643 0.556667 -118.138 0.762C-118.623 0.967333 -119.16 1.07 -119.748 1.07ZM-114.421 1V-6.35H-113.469V-4.348L-113.567 -4.698C-113.361 -5.258 -113.016 -5.68267 -112.531 -5.972C-112.045 -6.27067 -111.443 -6.42 -110.725 -6.42V-5.454C-110.762 -5.454 -110.799 -5.454 -110.837 -5.454C-110.874 -5.46333 -110.911 -5.468 -110.949 -5.468C-111.723 -5.468 -112.33 -5.23 -112.769 -4.754C-113.207 -4.28733 -113.427 -3.62 -113.427 -2.752V1H-114.421ZM-106.855 1.07C-107.462 1.07 -108.036 0.986 -108.577 0.818C-109.118 0.640667 -109.543 0.421333 -109.851 0.16L-109.403 -0.624C-109.104 -0.4 -108.722 -0.204 -108.255 -0.036C-107.788 0.122667 -107.298 0.202 -106.785 0.202C-106.085 0.202 -105.581 0.0946666 -105.273 -0.12C-104.965 -0.344 -104.811 -0.638 -104.811 -1.002C-104.811 -1.27267 -104.9 -1.48267 -105.077 -1.632C-105.245 -1.79067 -105.469 -1.90733 -105.749 -1.982C-106.029 -2.066 -106.342 -2.136 -106.687 -2.192C-107.032 -2.248 -107.378 -2.31333 -107.723 -2.388C-108.059 -2.46267 -108.367 -2.57 -108.647 -2.71C-108.927 -2.85933 -109.156 -3.06 -109.333 -3.312C-109.501 -3.564 -109.585 -3.9 -109.585 -4.32C-109.585 -4.72133 -109.473 -5.08067 -109.249 -5.398C-109.025 -5.71533 -108.698 -5.96267 -108.269 -6.14C-107.83 -6.32667 -107.298 -6.42 -106.673 -6.42C-106.197 -6.42 -105.721 -6.35467 -105.245 -6.224C-104.769 -6.10267 -104.377 -5.93933 -104.069 -5.734L-104.503 -4.936C-104.83 -5.16 -105.18 -5.31867 -105.553 -5.412C-105.926 -5.51467 -106.3 -5.566 -106.673 -5.566C-107.336 -5.566 -107.826 -5.44933 -108.143 -5.216C-108.451 -4.992 -108.605 -4.70267 -108.605 -4.348C-108.605 -4.068 -108.521 -3.84867 -108.353 -3.69C-108.176 -3.53133 -107.947 -3.40533 -107.667 -3.312C-107.378 -3.228 -107.065 -3.158 -106.729 -3.102C-106.384 -3.046 -106.043 -2.976 -105.707 -2.892C-105.362 -2.81733 -105.049 -2.71 -104.769 -2.57C-104.48 -2.43933 -104.251 -2.248 -104.083 -1.996C-103.906 -1.75333 -103.817 -1.43133 -103.817 -1.03C-103.817 -0.600667 -103.938 -0.227333 -104.181 0.0899999C-104.414 0.398 -104.76 0.640667 -105.217 0.818C-105.665 0.986 -106.211 1.07 -106.855 1.07ZM-98.2409 -6.42C-97.6436 -6.42 -97.1209 -6.30333 -96.6729 -6.07C-96.2156 -5.846 -95.8609 -5.50067 -95.6089 -5.034C-95.3476 -4.56733 -95.2169 -3.97933 -95.2169 -3.27V1H-96.2109V-3.172C-96.2109 -3.94667 -96.4069 -4.53 -96.7989 -4.922C-97.1816 -5.32333 -97.7229 -5.524 -98.4229 -5.524C-98.9456 -5.524 -99.4029 -5.41667 -99.7949 -5.202C-100.178 -4.99667 -100.476 -4.69333 -100.691 -4.292C-100.896 -3.9 -100.999 -3.424 -100.999 -2.864V1H-101.993V-9.388H-100.999V-4.334L-101.195 -4.712C-100.962 -5.244 -100.588 -5.65933 -100.075 -5.958C-99.5616 -6.266 -98.9502 -6.42 -98.2409 -6.42ZM-89.536 1.07C-90.2453 1.07 -90.8846 0.911333 -91.454 0.594C-92.014 0.267333 -92.4573 -0.176 -92.784 -0.736C-93.1106 -1.30533 -93.274 -1.954 -93.274 -2.682C-93.274 -3.41933 -93.1106 -4.068 -92.784 -4.628C-92.4573 -5.188 -92.014 -5.62667 -91.454 -5.944C-90.894 -6.26133 -90.2546 -6.42 -89.536 -6.42C-88.808 -6.42 -88.164 -6.26133 -87.604 -5.944C-87.0346 -5.62667 -86.5913 -5.188 -86.274 -4.628C-85.9473 -4.068 -85.784 -3.41933 -85.784 -2.682C-85.784 -1.954 -85.9473 -1.30533 -86.274 -0.736C-86.5913 -0.176 -87.0346 0.267333 -87.604 0.594C-88.1733 0.911333 -88.8173 1.07 -89.536 1.07ZM-89.536 0.188C-89.004 0.188 -88.5326 0.0713333 -88.122 -0.162C-87.7113 -0.404667 -87.3893 -0.740667 -87.156 -1.17C-86.9133 -1.60867 -86.792 -2.11267 -86.792 -2.682C-86.792 -3.26067 -86.9133 -3.76467 -87.156 -4.194C-87.3893 -4.62333 -87.7113 -4.95467 -88.122 -5.188C-88.5326 -5.43067 -88.9993 -5.552 -89.522 -5.552C-90.0446 -5.552 -90.5113 -5.43067 -90.922 -5.188C-91.3326 -4.95467 -91.6593 -4.62333 -91.902 -4.194C-92.1446 -3.76467 -92.266 -3.26067 -92.266 -2.682C-92.266 -2.11267 -92.1446 -1.60867 -91.902 -1.17C-91.6593 -0.740667 -91.3326 -0.404667 -90.922 -0.162C-90.5113 0.0713333 -90.0493 0.188 -89.536 0.188ZM-79.9606 1.07C-80.5953 1.07 -81.1693 0.925333 -81.6826 0.636C-82.196 0.337333 -82.6066 -0.0873334 -82.9146 -0.638C-83.2133 -1.198 -83.3626 -1.87933 -83.3626 -2.682C-83.3626 -3.48467 -83.2133 -4.16133 -82.9146 -4.712C-82.616 -5.272 -82.21 -5.69667 -81.6966 -5.986C-81.1833 -6.27533 -80.6046 -6.42 -79.9606 -6.42C-79.2606 -6.42 -78.6353 -6.26133 -78.0846 -5.944C-77.5246 -5.636 -77.086 -5.19733 -76.7686 -4.628C-76.4513 -4.068 -76.2926 -3.41933 -76.2926 -2.682C-76.2926 -1.93533 -76.4513 -1.282 -76.7686 -0.722C-77.086 -0.162 -77.5246 0.276667 -78.0846 0.594C-78.6353 0.911333 -79.2606 1.07 -79.9606 1.07ZM-83.7546 3.716V-6.35H-82.8026V-4.138L-82.9006 -2.668L-82.7606 -1.184V3.716H-83.7546ZM-80.0306 0.188C-79.508 0.188 -79.0413 0.0713333 -78.6306 -0.162C-78.22 -0.404667 -77.8933 -0.740667 -77.6506 -1.17C-77.408 -1.60867 -77.2866 -2.11267 -77.2866 -2.682C-77.2866 -3.25133 -77.408 -3.75067 -77.6506 -4.18C-77.8933 -4.60933 -78.22 -4.94533 -78.6306 -5.188C-79.0413 -5.43067 -79.508 -5.552 -80.0306 -5.552C-80.5533 -5.552 -81.0246 -5.43067 -81.4446 -5.188C-81.8553 -4.94533 -82.182 -4.60933 -82.4246 -4.18C-82.658 -3.75067 -82.7746 -3.25133 -82.7746 -2.682C-82.7746 -2.11267 -82.658 -1.60867 -82.4246 -1.17C-82.182 -0.740667 -81.8553 -0.404667 -81.4446 -0.162C-81.0246 0.0713333 -80.5533 0.188 -80.0306 0.188ZM-74.3734 1.07C-74.5788 1.07 -74.7561 0.995333 -74.9054 0.846C-75.0454 0.696667 -75.1154 0.514667 -75.1154 0.3C-75.1154 0.076 -75.0454 -0.106 -74.9054 -0.246C-74.7561 -0.386 -74.5788 -0.456 -74.3734 -0.456C-74.1681 -0.456 -73.9954 -0.386 -73.8554 -0.246C-73.7061 -0.106 -73.6314 0.076 -73.6314 0.3C-73.6314 0.514667 -73.7061 0.696667 -73.8554 0.846C-73.9954 0.995333 -74.1681 1.07 -74.3734 1.07ZM-68.5737 3.786C-69.2457 3.786 -69.8897 3.688 -70.5057 3.492C-71.1217 3.296 -71.621 3.016 -72.0037 2.652L-71.4997 1.896C-71.1544 2.204 -70.7297 2.44667 -70.2257 2.624C-69.7124 2.81067 -69.171 2.904 -68.6017 2.904C-67.6684 2.904 -66.9824 2.68467 -66.5437 2.246C-66.105 1.81667 -65.8857 1.14467 -65.8857 0.23V-1.604L-65.7457 -2.864L-65.8437 -4.124V-6.35H-64.8917V0.104C-64.8917 1.37333 -65.2044 2.302 -65.8297 2.89C-66.4457 3.48733 -67.3604 3.786 -68.5737 3.786ZM-68.7557 0.72C-69.4557 0.72 -70.0857 0.570667 -70.6457 0.272C-71.2057 -0.036 -71.649 -0.460667 -71.9757 -1.002C-72.293 -1.54333 -72.4517 -2.164 -72.4517 -2.864C-72.4517 -3.564 -72.293 -4.18 -71.9757 -4.712C-71.649 -5.25333 -71.2057 -5.67333 -70.6457 -5.972C-70.0857 -6.27067 -69.4557 -6.42 -68.7557 -6.42C-68.1024 -6.42 -67.5144 -6.28467 -66.9917 -6.014C-66.469 -5.74333 -66.0537 -5.342 -65.7457 -4.81C-65.4377 -4.278 -65.2837 -3.62933 -65.2837 -2.864C-65.2837 -2.09867 -65.4377 -1.45 -65.7457 -0.918C-66.0537 -0.386 -66.469 0.0199999 -66.9917 0.3C-67.5144 0.58 -68.1024 0.72 -68.7557 0.72ZM-68.6577 -0.162C-68.1164 -0.162 -67.6357 -0.274 -67.2157 -0.498C-66.7957 -0.731333 -66.4644 -1.04867 -66.2217 -1.45C-65.979 -1.86067 -65.8577 -2.332 -65.8577 -2.864C-65.8577 -3.396 -65.979 -3.86267 -66.2217 -4.264C-66.4644 -4.66533 -66.7957 -4.978 -67.2157 -5.202C-67.6357 -5.43533 -68.1164 -5.552 -68.6577 -5.552C-69.1897 -5.552 -69.6704 -5.43533 -70.0997 -5.202C-70.5197 -4.978 -70.851 -4.66533 -71.0937 -4.264C-71.327 -3.86267 -71.4437 -3.396 -71.4437 -2.864C-71.4437 -2.332 -71.327 -1.86067 -71.0937 -1.45C-70.851 -1.04867 -70.5197 -0.731333 -70.0997 -0.498C-69.6704 -0.274 -69.1897 -0.162 -68.6577 -0.162ZM-59.1297 1.07C-59.8391 1.07 -60.4784 0.911333 -61.0477 0.594C-61.6077 0.267333 -62.0511 -0.176 -62.3777 -0.736C-62.7044 -1.30533 -62.8677 -1.954 -62.8677 -2.682C-62.8677 -3.41933 -62.7044 -4.068 -62.3777 -4.628C-62.0511 -5.188 -61.6077 -5.62667 -61.0477 -5.944C-60.4877 -6.26133 -59.8484 -6.42 -59.1297 -6.42C-58.4017 -6.42 -57.7577 -6.26133 -57.1977 -5.944C-56.6284 -5.62667 -56.1851 -5.188 -55.8677 -4.628C-55.5411 -4.068 -55.3777 -3.41933 -55.3777 -2.682C-55.3777 -1.954 -55.5411 -1.30533 -55.8677 -0.736C-56.1851 -0.176 -56.6284 0.267333 -57.1977 0.594C-57.7671 0.911333 -58.4111 1.07 -59.1297 1.07ZM-59.1297 0.188C-58.5977 0.188 -58.1264 0.0713333 -57.7157 -0.162C-57.3051 -0.404667 -56.9831 -0.740667 -56.7497 -1.17C-56.5071 -1.60867 -56.3857 -2.11267 -56.3857 -2.682C-56.3857 -3.26067 -56.5071 -3.76467 -56.7497 -4.194C-56.9831 -4.62333 -57.3051 -4.95467 -57.7157 -5.188C-58.1264 -5.43067 -58.5931 -5.552 -59.1157 -5.552C-59.6384 -5.552 -60.1051 -5.43067 -60.5157 -5.188C-60.9264 -4.95467 -61.2531 -4.62333 -61.4957 -4.194C-61.7384 -3.76467 -61.8597 -3.26067 -61.8597 -2.682C-61.8597 -2.11267 -61.7384 -1.60867 -61.4957 -1.17C-61.2531 -0.740667 -60.9264 -0.404667 -60.5157 -0.162C-60.1051 0.0713333 -59.6431 0.188 -59.1297 0.188ZM-53.3484 1V-6.35H-52.3544V1H-53.3484ZM-52.8444 -7.974C-53.0497 -7.974 -53.2224 -8.044 -53.3624 -8.184C-53.5024 -8.324 -53.5724 -8.492 -53.5724 -8.688C-53.5724 -8.884 -53.5024 -9.04733 -53.3624 -9.178C-53.2224 -9.318 -53.0497 -9.388 -52.8444 -9.388C-52.639 -9.388 -52.4664 -9.32267 -52.3264 -9.192C-52.1864 -9.06133 -52.1164 -8.898 -52.1164 -8.702C-52.1164 -8.49667 -52.1864 -8.324 -52.3264 -8.184C-52.457 -8.044 -52.6297 -7.974 -52.8444 -7.974ZM-47.2646 1.07C-47.9553 1.07 -48.4873 0.883333 -48.8606 0.51C-49.2339 0.136667 -49.4206 -0.390667 -49.4206 -1.072V-7.974H-48.4266V-1.128C-48.4266 -0.698667 -48.3193 -0.367333 -48.1046 -0.134C-47.8806 0.0993333 -47.5633 0.216 -47.1526 0.216C-46.7139 0.216 -46.3499 0.09 -46.0606 -0.162L-45.7106 0.552C-45.9066 0.729333 -46.1446 0.86 -46.4246 0.944C-46.6953 1.028 -46.9753 1.07 -47.2646 1.07ZM-50.7366 -5.524V-6.35H-46.1866V-5.524H-50.7366ZM-43.6664 1.07C-43.8717 1.07 -44.0491 0.995333 -44.1984 0.846C-44.3384 0.696667 -44.4084 0.514667 -44.4084 0.3C-44.4084 0.076 -44.3384 -0.106 -44.1984 -0.246C-44.0491 -0.386 -43.8717 -0.456 -43.6664 -0.456C-43.4611 -0.456 -43.2884 -0.386 -43.1484 -0.246C-42.9991 -0.106 -42.9244 0.076 -42.9244 0.3C-42.9244 0.514667 -42.9991 0.696667 -43.1484 0.846C-43.2884 0.995333 -43.4611 1.07 -43.6664 1.07ZM-37.8667 3.786C-38.5387 3.786 -39.1827 3.688 -39.7987 3.492C-40.4147 3.296 -40.914 3.016 -41.2967 2.652L-40.7927 1.896C-40.4473 2.204 -40.0227 2.44667 -39.5187 2.624C-39.0053 2.81067 -38.464 2.904 -37.8947 2.904C-36.9613 2.904 -36.2753 2.68467 -35.8367 2.246C-35.398 1.81667 -35.1787 1.14467 -35.1787 0.23V-1.604L-35.0387 -2.864L-35.1367 -4.124V-6.35H-34.1847V0.104C-34.1847 1.37333 -34.4973 2.302 -35.1227 2.89C-35.7387 3.48733 -36.6533 3.786 -37.8667 3.786ZM-38.0487 0.72C-38.7487 0.72 -39.3787 0.570667 -39.9387 0.272C-40.4987 -0.036 -40.942 -0.460667 -41.2687 -1.002C-41.586 -1.54333 -41.7447 -2.164 -41.7447 -2.864C-41.7447 -3.564 -41.586 -4.18 -41.2687 -4.712C-40.942 -5.25333 -40.4987 -5.67333 -39.9387 -5.972C-39.3787 -6.27067 -38.7487 -6.42 -38.0487 -6.42C-37.3953 -6.42 -36.8073 -6.28467 -36.2847 -6.014C-35.762 -5.74333 -35.3467 -5.342 -35.0387 -4.81C-34.7307 -4.278 -34.5767 -3.62933 -34.5767 -2.864C-34.5767 -2.09867 -34.7307 -1.45 -35.0387 -0.918C-35.3467 -0.386 -35.762 0.0199999 -36.2847 0.3C-36.8073 0.58 -37.3953 0.72 -38.0487 0.72ZM-37.9507 -0.162C-37.4093 -0.162 -36.9287 -0.274 -36.5087 -0.498C-36.0887 -0.731333 -35.7573 -1.04867 -35.5147 -1.45C-35.272 -1.86067 -35.1507 -2.332 -35.1507 -2.864C-35.1507 -3.396 -35.272 -3.86267 -35.5147 -4.264C-35.7573 -4.66533 -36.0887 -4.978 -36.5087 -5.202C-36.9287 -5.43533 -37.4093 -5.552 -37.9507 -5.552C-38.4827 -5.552 -38.9633 -5.43533 -39.3927 -5.202C-39.8127 -4.978 -40.144 -4.66533 -40.3867 -4.264C-40.62 -3.86267 -40.7367 -3.396 -40.7367 -2.864C-40.7367 -2.332 -40.62 -1.86067 -40.3867 -1.45C-40.144 -1.04867 -39.8127 -0.731333 -39.3927 -0.498C-38.9633 -0.274 -38.4827 -0.162 -37.9507 -0.162ZM-31.4187 1V-9.388H-30.4247V1H-31.4187ZM-24.6629 1.07C-25.3723 1.07 -26.0116 0.911333 -26.5809 0.594C-27.1409 0.267333 -27.5843 -0.176 -27.9109 -0.736C-28.2376 -1.30533 -28.4009 -1.954 -28.4009 -2.682C-28.4009 -3.41933 -28.2376 -4.068 -27.9109 -4.628C-27.5843 -5.188 -27.1409 -5.62667 -26.5809 -5.944C-26.0209 -6.26133 -25.3816 -6.42 -24.6629 -6.42C-23.9349 -6.42 -23.2909 -6.26133 -22.7309 -5.944C-22.1616 -5.62667 -21.7183 -5.188 -21.4009 -4.628C-21.0743 -4.068 -20.9109 -3.41933 -20.9109 -2.682C-20.9109 -1.954 -21.0743 -1.30533 -21.4009 -0.736C-21.7183 -0.176 -22.1616 0.267333 -22.7309 0.594C-23.3003 0.911333 -23.9443 1.07 -24.6629 1.07ZM-24.6629 0.188C-24.1309 0.188 -23.6596 0.0713333 -23.2489 -0.162C-22.8383 -0.404667 -22.5163 -0.740667 -22.2829 -1.17C-22.0403 -1.60867 -21.9189 -2.11267 -21.9189 -2.682C-21.9189 -3.26067 -22.0403 -3.76467 -22.2829 -4.194C-22.5163 -4.62333 -22.8383 -4.95467 -23.2489 -5.188C-23.6596 -5.43067 -24.1263 -5.552 -24.6489 -5.552C-25.1716 -5.552 -25.6383 -5.43067 -26.0489 -5.188C-26.4596 -4.95467 -26.7863 -4.62333 -27.0289 -4.194C-27.2716 -3.76467 -27.3929 -3.26067 -27.3929 -2.682C-27.3929 -2.11267 -27.2716 -1.60867 -27.0289 -1.17C-26.7863 -0.740667 -26.4596 -0.404667 -26.0489 -0.162C-25.6383 0.0713333 -25.1763 0.188 -24.6629 0.188ZM-15.0876 1.07C-15.7316 1.07 -16.3102 0.925333 -16.8236 0.636C-17.3369 0.337333 -17.7429 -0.0920001 -18.0416 -0.652C-18.3402 -1.212 -18.4896 -1.88867 -18.4896 -2.682C-18.4896 -3.48467 -18.3402 -4.16133 -18.0416 -4.712C-17.7336 -5.272 -17.3229 -5.69667 -16.8096 -5.986C-16.2962 -6.27533 -15.7222 -6.42 -15.0876 -6.42C-14.3876 -6.42 -13.7622 -6.26133 -13.2116 -5.944C-12.6516 -5.636 -12.2129 -5.202 -11.8956 -4.642C-11.5782 -4.082 -11.4196 -3.42867 -11.4196 -2.682C-11.4196 -1.94467 -11.5782 -1.29133 -11.8956 -0.722C-12.2129 -0.162 -12.6516 0.276667 -13.2116 0.594C-13.7622 0.911333 -14.3876 1.07 -15.0876 1.07ZM-18.8816 1V-9.388H-17.8876V-4.18L-18.0276 -2.696L-17.9296 -1.212V1H-18.8816ZM-15.1576 0.188C-14.6349 0.188 -14.1682 0.0713333 -13.7576 -0.162C-13.3469 -0.404667 -13.0202 -0.740667 -12.7776 -1.17C-12.5349 -1.60867 -12.4136 -2.11267 -12.4136 -2.682C-12.4136 -3.26067 -12.5349 -3.76467 -12.7776 -4.194C-13.0202 -4.62333 -13.3469 -4.95467 -13.7576 -5.188C-14.1682 -5.43067 -14.6349 -5.552 -15.1576 -5.552C-15.6802 -5.552 -16.1516 -5.43067 -16.5716 -5.188C-16.9822 -4.95467 -17.3089 -4.62333 -17.5516 -4.194C-17.7849 -3.76467 -17.9016 -3.26067 -17.9016 -2.682C-17.9016 -2.11267 -17.7849 -1.60867 -17.5516 -1.17C-17.3089 -0.740667 -16.9822 -0.404667 -16.5716 -0.162C-16.1516 0.0713333 -15.6802 0.188 -15.1576 0.188ZM-4.82831 1V-0.624L-4.87031 -0.89V-3.606C-4.87031 -4.23133 -5.04765 -4.712 -5.40231 -5.048C-5.74765 -5.384 -6.26565 -5.552 -6.95631 -5.552C-7.43231 -5.552 -7.88498 -5.47267 -8.31431 -5.314C-8.74365 -5.15533 -9.10765 -4.94533 -9.40631 -4.684L-9.85431 -5.426C-9.48098 -5.74333 -9.03298 -5.986 -8.51031 -6.154C-7.98765 -6.33133 -7.43698 -6.42 -6.85831 -6.42C-5.90631 -6.42 -5.17365 -6.182 -4.66031 -5.706C-4.13765 -5.23933 -3.87631 -4.52533 -3.87631 -3.564V1H-4.82831ZM-7.36231 1.07C-7.91298 1.07 -8.39365 0.981333 -8.80431 0.804C-9.20565 0.617333 -9.51365 0.365333 -9.72831 0.0479999C-9.94298 -0.278667 -10.0503 -0.652 -10.0503 -1.072C-10.0503 -1.45467 -9.96165 -1.8 -9.78431 -2.108C-9.59765 -2.42533 -9.29898 -2.67733 -8.88831 -2.864C-8.46831 -3.06 -7.90831 -3.158 -7.20831 -3.158H-4.67431V-2.416H-7.18031C-7.88965 -2.416 -8.38431 -2.29 -8.66431 -2.038C-8.93498 -1.786 -9.07031 -1.47333 -9.07031 -1.1C-9.07031 -0.68 -8.90698 -0.344 -8.58031 -0.092C-8.25365 0.16 -7.79631 0.286 -7.20831 0.286C-6.64831 0.286 -6.16765 0.16 -5.76631 -0.092C-5.35565 -0.353333 -5.05698 -0.726667 -4.87031 -1.212L-4.64631 -0.526C-4.83298 -0.0406667 -5.15965 0.346667 -5.62631 0.636C-6.08365 0.925333 -6.66231 1.07 -7.36231 1.07ZM-1.1765 1V-9.388H-0.1825V1H-1.1765ZM0.847266 2.4L5.46727 -10.788H6.37727L1.75727 2.4H0.847266ZM-200.862 17.58C-200.265 17.58 -199.742 17.6967 -199.294 17.93C-198.837 18.154 -198.482 18.4993 -198.23 18.966C-197.969 19.4327 -197.838 20.0207 -197.838 20.73V25H-198.832V20.828C-198.832 20.0533 -199.028 19.47 -199.42 19.078C-199.803 18.6767 -200.344 18.476 -201.044 18.476C-201.567 18.476 -202.024 18.5833 -202.416 18.798C-202.799 19.0033 -203.097 19.3067 -203.312 19.708C-203.517 20.1 -203.62 20.576 -203.62 21.136V25H-204.614V14.612H-203.62V19.666L-203.816 19.288C-203.583 18.756 -203.209 18.3407 -202.696 18.042C-202.183 17.734 -201.571 17.58 -200.862 17.58ZM-192.829 25.07C-193.52 25.07 -194.052 24.8833 -194.425 24.51C-194.798 24.1367 -194.985 23.6093 -194.985 22.928V16.026H-193.991V22.872C-193.991 23.3013 -193.884 23.6327 -193.669 23.866C-193.445 24.0993 -193.128 24.216 -192.717 24.216C-192.278 24.216 -191.914 24.09 -191.625 23.838L-191.275 24.552C-191.471 24.7293 -191.709 24.86 -191.989 24.944C-192.26 25.028 -192.54 25.07 -192.829 25.07ZM-196.301 18.476V17.65H-191.751V18.476H-196.301ZM-187.333 25.07C-188.024 25.07 -188.556 24.8833 -188.929 24.51C-189.302 24.1367 -189.489 23.6093 -189.489 22.928V16.026H-188.495V22.872C-188.495 23.3013 -188.388 23.6327 -188.173 23.866C-187.949 24.0993 -187.632 24.216 -187.221 24.216C-186.782 24.216 -186.418 24.09 -186.129 23.838L-185.779 24.552C-185.975 24.7293 -186.213 24.86 -186.493 24.944C-186.764 25.028 -187.044 25.07 -187.333 25.07ZM-190.805 18.476V17.65H-186.255V18.476H-190.805ZM-180.175 25.07C-180.81 25.07 -181.384 24.9253 -181.897 24.636C-182.411 24.3373 -182.821 23.9127 -183.129 23.362C-183.428 22.802 -183.577 22.1207 -183.577 21.318C-183.577 20.5153 -183.428 19.8387 -183.129 19.288C-182.831 18.728 -182.425 18.3033 -181.911 18.014C-181.398 17.7247 -180.819 17.58 -180.175 17.58C-179.475 17.58 -178.85 17.7387 -178.299 18.056C-177.739 18.364 -177.301 18.8027 -176.983 19.372C-176.666 19.932 -176.507 20.5807 -176.507 21.318C-176.507 22.0647 -176.666 22.718 -176.983 23.278C-177.301 23.838 -177.739 24.2767 -178.299 24.594C-178.85 24.9113 -179.475 25.07 -180.175 25.07ZM-183.969 27.716V17.65H-183.017V19.862L-183.115 21.332L-182.975 22.816V27.716H-183.969ZM-180.245 24.188C-179.723 24.188 -179.256 24.0713 -178.845 23.838C-178.435 23.5953 -178.108 23.2593 -177.865 22.83C-177.623 22.3913 -177.501 21.8873 -177.501 21.318C-177.501 20.7487 -177.623 20.2493 -177.865 19.82C-178.108 19.3907 -178.435 19.0547 -178.845 18.812C-179.256 18.5693 -179.723 18.448 -180.245 18.448C-180.768 18.448 -181.239 18.5693 -181.659 18.812C-182.07 19.0547 -182.397 19.3907 -182.639 19.82C-182.873 20.2493 -182.989 20.7487 -182.989 21.318C-182.989 21.8873 -182.873 22.3913 -182.639 22.83C-182.397 23.2593 -182.07 23.5953 -181.659 23.838C-181.239 24.0713 -180.768 24.188 -180.245 24.188ZM-172.507 25.07C-173.114 25.07 -173.688 24.986 -174.229 24.818C-174.771 24.6407 -175.195 24.4213 -175.503 24.16L-175.055 23.376C-174.757 23.6 -174.374 23.796 -173.907 23.964C-173.441 24.1227 -172.951 24.202 -172.437 24.202C-171.737 24.202 -171.233 24.0947 -170.925 23.88C-170.617 23.656 -170.463 23.362 -170.463 22.998C-170.463 22.7273 -170.552 22.5173 -170.729 22.368C-170.897 22.2093 -171.121 22.0927 -171.401 22.018C-171.681 21.934 -171.994 21.864 -172.339 21.808C-172.685 21.752 -173.03 21.6867 -173.375 21.612C-173.711 21.5373 -174.019 21.43 -174.299 21.29C-174.579 21.1407 -174.808 20.94 -174.985 20.688C-175.153 20.436 -175.237 20.1 -175.237 19.68C-175.237 19.2787 -175.125 18.9193 -174.901 18.602C-174.677 18.2847 -174.351 18.0373 -173.921 17.86C-173.483 17.6733 -172.951 17.58 -172.325 17.58C-171.849 17.58 -171.373 17.6453 -170.897 17.776C-170.421 17.8973 -170.029 18.0607 -169.721 18.266L-170.155 19.064C-170.482 18.84 -170.832 18.6813 -171.205 18.588C-171.579 18.4853 -171.952 18.434 -172.325 18.434C-172.988 18.434 -173.478 18.5507 -173.795 18.784C-174.103 19.008 -174.257 19.2973 -174.257 19.652C-174.257 19.932 -174.173 20.1513 -174.005 20.31C-173.828 20.4687 -173.599 20.5947 -173.319 20.688C-173.03 20.772 -172.717 20.842 -172.381 20.898C-172.036 20.954 -171.695 21.024 -171.359 21.108C-171.014 21.1827 -170.701 21.29 -170.421 21.43C-170.132 21.5607 -169.903 21.752 -169.735 22.004C-169.558 22.2467 -169.469 22.5687 -169.469 22.97C-169.469 23.3993 -169.591 23.7727 -169.833 24.09C-170.067 24.398 -170.412 24.6407 -170.869 24.818C-171.317 24.986 -171.863 25.07 -172.507 25.07ZM-167.547 19.106C-167.753 19.106 -167.93 19.0313 -168.079 18.882C-168.219 18.7327 -168.289 18.5507 -168.289 18.336C-168.289 18.112 -168.219 17.93 -168.079 17.79C-167.93 17.65 -167.753 17.58 -167.547 17.58C-167.342 17.58 -167.169 17.65 -167.029 17.79C-166.88 17.93 -166.805 18.112 -166.805 18.336C-166.805 18.5507 -166.88 18.7327 -167.029 18.882C-167.169 19.0313 -167.342 19.106 -167.547 19.106ZM-167.547 25.07C-167.753 25.07 -167.93 24.9953 -168.079 24.846C-168.219 24.6967 -168.289 24.5147 -168.289 24.3C-168.289 24.076 -168.219 23.894 -168.079 23.754C-167.93 23.614 -167.753 23.544 -167.547 23.544C-167.342 23.544 -167.169 23.614 -167.029 23.754C-166.88 23.894 -166.805 24.076 -166.805 24.3C-166.805 24.5147 -166.88 24.6967 -167.029 24.846C-167.169 24.9953 -167.342 25.07 -167.547 25.07ZM-165.786 26.4L-161.166 13.212H-160.256L-164.876 26.4H-165.786ZM-161.998 26.4L-157.378 13.212H-156.468L-161.088 26.4H-161.998ZM-153.478 25.07C-154.206 25.07 -154.859 24.9113 -155.438 24.594C-156.007 24.2673 -156.455 23.824 -156.782 23.264C-157.109 22.6947 -157.272 22.046 -157.272 21.318C-157.272 20.5807 -157.109 19.932 -156.782 19.372C-156.455 18.812 -156.007 18.3733 -155.438 18.056C-154.859 17.7387 -154.206 17.58 -153.478 17.58C-152.853 17.58 -152.288 17.7013 -151.784 17.944C-151.28 18.1867 -150.883 18.5507 -150.594 19.036L-151.336 19.54C-151.588 19.1667 -151.901 18.8913 -152.274 18.714C-152.647 18.5367 -153.053 18.448 -153.492 18.448C-154.015 18.448 -154.486 18.5693 -154.906 18.812C-155.326 19.0453 -155.657 19.3767 -155.9 19.806C-156.143 20.2353 -156.264 20.7393 -156.264 21.318C-156.264 21.8967 -156.143 22.4007 -155.9 22.83C-155.657 23.2593 -155.326 23.5953 -154.906 23.838C-154.486 24.0713 -154.015 24.188 -153.492 24.188C-153.053 24.188 -152.647 24.0993 -152.274 23.922C-151.901 23.7447 -151.588 23.474 -151.336 23.11L-150.594 23.614C-150.883 24.09 -151.28 24.454 -151.784 24.706C-152.288 24.9487 -152.853 25.07 -153.478 25.07ZM-148.641 25V17.65H-147.689V19.652L-147.787 19.302C-147.582 18.742 -147.237 18.3173 -146.751 18.028C-146.266 17.7293 -145.664 17.58 -144.945 17.58V18.546C-144.983 18.546 -145.02 18.546 -145.057 18.546C-145.095 18.5367 -145.132 18.532 -145.169 18.532C-145.944 18.532 -146.551 18.77 -146.989 19.246C-147.428 19.7127 -147.647 20.38 -147.647 21.248V25H-148.641ZM-142.761 27.786C-143.106 27.786 -143.438 27.73 -143.755 27.618C-144.063 27.506 -144.329 27.338 -144.553 27.114L-144.091 26.372C-143.904 26.5493 -143.704 26.6847 -143.489 26.778C-143.265 26.8807 -143.018 26.932 -142.747 26.932C-142.42 26.932 -142.14 26.8387 -141.907 26.652C-141.664 26.4747 -141.436 26.1573 -141.221 25.7L-140.745 24.622L-140.633 24.468L-137.609 17.65H-136.629L-140.311 25.882C-140.516 26.358 -140.745 26.736 -140.997 27.016C-141.24 27.296 -141.506 27.492 -141.795 27.604C-142.084 27.7253 -142.406 27.786 -142.761 27.786ZM-140.801 25.21L-144.189 17.65H-143.153L-140.157 24.398L-140.801 25.21ZM-131.435 25.07C-132.07 25.07 -132.644 24.9253 -133.157 24.636C-133.671 24.3373 -134.081 23.9127 -134.389 23.362C-134.688 22.802 -134.837 22.1207 -134.837 21.318C-134.837 20.5153 -134.688 19.8387 -134.389 19.288C-134.091 18.728 -133.685 18.3033 -133.171 18.014C-132.658 17.7247 -132.079 17.58 -131.435 17.58C-130.735 17.58 -130.11 17.7387 -129.559 18.056C-128.999 18.364 -128.561 18.8027 -128.243 19.372C-127.926 19.932 -127.767 20.5807 -127.767 21.318C-127.767 22.0647 -127.926 22.718 -128.243 23.278C-128.561 23.838 -128.999 24.2767 -129.559 24.594C-130.11 24.9113 -130.735 25.07 -131.435 25.07ZM-135.229 27.716V17.65H-134.277V19.862L-134.375 21.332L-134.235 22.816V27.716H-135.229ZM-131.505 24.188C-130.983 24.188 -130.516 24.0713 -130.105 23.838C-129.695 23.5953 -129.368 23.2593 -129.125 22.83C-128.883 22.3913 -128.761 21.8873 -128.761 21.318C-128.761 20.7487 -128.883 20.2493 -129.125 19.82C-129.368 19.3907 -129.695 19.0547 -130.105 18.812C-130.516 18.5693 -130.983 18.448 -131.505 18.448C-132.028 18.448 -132.499 18.5693 -132.919 18.812C-133.33 19.0547 -133.657 19.3907 -133.899 19.82C-134.133 20.2493 -134.249 20.7487 -134.249 21.318C-134.249 21.8873 -134.133 22.3913 -133.899 22.83C-133.657 23.2593 -133.33 23.5953 -132.919 23.838C-132.499 24.0713 -132.028 24.188 -131.505 24.188ZM-123.417 25.07C-124.108 25.07 -124.64 24.8833 -125.013 24.51C-125.386 24.1367 -125.573 23.6093 -125.573 22.928V16.026H-124.579V22.872C-124.579 23.3013 -124.472 23.6327 -124.257 23.866C-124.033 24.0993 -123.716 24.216 -123.305 24.216C-122.866 24.216 -122.502 24.09 -122.213 23.838L-121.863 24.552C-122.059 24.7293 -122.297 24.86 -122.577 24.944C-122.848 25.028 -123.128 25.07 -123.417 25.07ZM-126.889 18.476V17.65H-122.339V18.476H-126.889ZM-117.317 25.07C-118.027 25.07 -118.666 24.9113 -119.235 24.594C-119.795 24.2673 -120.239 23.824 -120.565 23.264C-120.892 22.6947 -121.055 22.046 -121.055 21.318C-121.055 20.5807 -120.892 19.932 -120.565 19.372C-120.239 18.812 -119.795 18.3733 -119.235 18.056C-118.675 17.7387 -118.036 17.58 -117.317 17.58C-116.589 17.58 -115.945 17.7387 -115.385 18.056C-114.816 18.3733 -114.373 18.812 -114.055 19.372C-113.729 19.932 -113.565 20.5807 -113.565 21.318C-113.565 22.046 -113.729 22.6947 -114.055 23.264C-114.373 23.824 -114.816 24.2673 -115.385 24.594C-115.955 24.9113 -116.599 25.07 -117.317 25.07ZM-117.317 24.188C-116.785 24.188 -116.314 24.0713 -115.903 23.838C-115.493 23.5953 -115.171 23.2593 -114.937 22.83C-114.695 22.3913 -114.573 21.8873 -114.573 21.318C-114.573 20.7393 -114.695 20.2353 -114.937 19.806C-115.171 19.3767 -115.493 19.0453 -115.903 18.812C-116.314 18.5693 -116.781 18.448 -117.303 18.448C-117.826 18.448 -118.293 18.5693 -118.703 18.812C-119.114 19.0453 -119.441 19.3767 -119.683 19.806C-119.926 20.2353 -120.047 20.7393 -120.047 21.318C-120.047 21.8873 -119.926 22.3913 -119.683 22.83C-119.441 23.2593 -119.114 23.5953 -118.703 23.838C-118.293 24.0713 -117.831 24.188 -117.317 24.188ZM-107.784 17.58C-107.187 17.58 -106.664 17.6967 -106.216 17.93C-105.759 18.154 -105.404 18.4993 -105.152 18.966C-104.891 19.4327 -104.76 20.0207 -104.76 20.73V25H-105.754V20.828C-105.754 20.0533 -105.95 19.47 -106.342 19.078C-106.725 18.6767 -107.266 18.476 -107.966 18.476C-108.489 18.476 -108.946 18.5833 -109.338 18.798C-109.721 19.0033 -110.019 19.3067 -110.234 19.708C-110.439 20.1 -110.542 20.576 -110.542 21.136V25H-111.536V14.612H-110.542V19.666L-110.738 19.288C-110.505 18.756 -110.131 18.3407 -109.618 18.042C-109.105 17.734 -108.493 17.58 -107.784 17.58ZM-99.0369 25.07C-99.6623 25.07 -100.208 24.9533 -100.675 24.72C-101.142 24.4867 -101.506 24.1367 -101.767 23.67C-102.019 23.2033 -102.145 22.62 -102.145 21.92V17.65H-101.151V21.808C-101.151 22.592 -100.96 23.1847 -100.577 23.586C-100.185 23.978 -99.6389 24.174 -98.9389 24.174C-98.4256 24.174 -97.9823 24.0713 -97.6089 23.866C-97.2263 23.6513 -96.9369 23.3433 -96.7409 22.942C-96.5356 22.5407 -96.4329 22.06 -96.4329 21.5V17.65H-95.4389V25H-96.3909V22.984L-96.2369 23.348C-96.4703 23.8893 -96.8343 24.314 -97.3289 24.622C-97.8143 24.9207 -98.3836 25.07 -99.0369 25.07ZM-88.8747 25.07C-89.5187 25.07 -90.0974 24.9253 -90.6107 24.636C-91.124 24.3373 -91.53 23.908 -91.8287 23.348C-92.1274 22.788 -92.2767 22.1113 -92.2767 21.318C-92.2767 20.5153 -92.1274 19.8387 -91.8287 19.288C-91.5207 18.728 -91.11 18.3033 -90.5967 18.014C-90.0834 17.7247 -89.5094 17.58 -88.8747 17.58C-88.1747 17.58 -87.5494 17.7387 -86.9987 18.056C-86.4387 18.364 -86 18.798 -85.6827 19.358C-85.3654 19.918 -85.2067 20.5713 -85.2067 21.318C-85.2067 22.0553 -85.3654 22.7087 -85.6827 23.278C-86 23.838 -86.4387 24.2767 -86.9987 24.594C-87.5494 24.9113 -88.1747 25.07 -88.8747 25.07ZM-92.6687 25V14.612H-91.6747V19.82L-91.8147 21.304L-91.7167 22.788V25H-92.6687ZM-88.9447 24.188C-88.422 24.188 -87.9554 24.0713 -87.5447 23.838C-87.134 23.5953 -86.8074 23.2593 -86.5647 22.83C-86.322 22.3913 -86.2007 21.8873 -86.2007 21.318C-86.2007 20.7393 -86.322 20.2353 -86.5647 19.806C-86.8074 19.3767 -87.134 19.0453 -87.5447 18.812C-87.9554 18.5693 -88.422 18.448 -88.9447 18.448C-89.4674 18.448 -89.9387 18.5693 -90.3587 18.812C-90.7694 19.0453 -91.096 19.3767 -91.3387 19.806C-91.572 20.2353 -91.6887 20.7393 -91.6887 21.318C-91.6887 21.8873 -91.572 22.3913 -91.3387 22.83C-91.096 23.2593 -90.7694 23.5953 -90.3587 23.838C-89.9387 24.0713 -89.4674 24.188 -88.9447 24.188ZM-83.2875 25.07C-83.4928 25.07 -83.6702 24.9953 -83.8195 24.846C-83.9595 24.6967 -84.0295 24.5147 -84.0295 24.3C-84.0295 24.076 -83.9595 23.894 -83.8195 23.754C-83.6702 23.614 -83.4928 23.544 -83.2875 23.544C-83.0822 23.544 -82.9095 23.614 -82.7695 23.754C-82.6202 23.894 -82.5455 24.076 -82.5455 24.3C-82.5455 24.5147 -82.6202 24.6967 -82.7695 24.846C-82.9095 24.9953 -83.0822 25.07 -83.2875 25.07ZM-77.4878 27.786C-78.1598 27.786 -78.8038 27.688 -79.4198 27.492C-80.0358 27.296 -80.5351 27.016 -80.9178 26.652L-80.4138 25.896C-80.0684 26.204 -79.6438 26.4467 -79.1398 26.624C-78.6264 26.8107 -78.0851 26.904 -77.5158 26.904C-76.5824 26.904 -75.8964 26.6847 -75.4578 26.246C-75.0191 25.8167 -74.7998 25.1447 -74.7998 24.23V22.396L-74.6598 21.136L-74.7578 19.876V17.65H-73.8058V24.104C-73.8058 25.3733 -74.1184 26.302 -74.7438 26.89C-75.3598 27.4873 -76.2744 27.786 -77.4878 27.786ZM-77.6698 24.72C-78.3698 24.72 -78.9998 24.5707 -79.5598 24.272C-80.1198 23.964 -80.5631 23.5393 -80.8898 22.998C-81.2071 22.4567 -81.3658 21.836 -81.3658 21.136C-81.3658 20.436 -81.2071 19.82 -80.8898 19.288C-80.5631 18.7467 -80.1198 18.3267 -79.5598 18.028C-78.9998 17.7293 -78.3698 17.58 -77.6698 17.58C-77.0164 17.58 -76.4284 17.7153 -75.9058 17.986C-75.3831 18.2567 -74.9678 18.658 -74.6598 19.19C-74.3518 19.722 -74.1978 20.3707 -74.1978 21.136C-74.1978 21.9013 -74.3518 22.55 -74.6598 23.082C-74.9678 23.614 -75.3831 24.02 -75.9058 24.3C-76.4284 24.58 -77.0164 24.72 -77.6698 24.72ZM-77.5718 23.838C-77.0304 23.838 -76.5498 23.726 -76.1298 23.502C-75.7098 23.2687 -75.3784 22.9513 -75.1358 22.55C-74.8931 22.1393 -74.7718 21.668 -74.7718 21.136C-74.7718 20.604 -74.8931 20.1373 -75.1358 19.736C-75.3784 19.3347 -75.7098 19.022 -76.1298 18.798C-76.5498 18.5647 -77.0304 18.448 -77.5718 18.448C-78.1038 18.448 -78.5844 18.5647 -79.0138 18.798C-79.4338 19.022 -79.7651 19.3347 -80.0078 19.736C-80.2411 20.1373 -80.3578 20.604 -80.3578 21.136C-80.3578 21.668 -80.2411 22.1393 -80.0078 22.55C-79.7651 22.9513 -79.4338 23.2687 -79.0138 23.502C-78.5844 23.726 -78.1038 23.838 -77.5718 23.838ZM-68.0438 25.07C-68.7531 25.07 -69.3924 24.9113 -69.9618 24.594C-70.5218 24.2673 -70.9651 23.824 -71.2918 23.264C-71.6184 22.6947 -71.7818 22.046 -71.7818 21.318C-71.7818 20.5807 -71.6184 19.932 -71.2918 19.372C-70.9651 18.812 -70.5218 18.3733 -69.9618 18.056C-69.4018 17.7387 -68.7624 17.58 -68.0438 17.58C-67.3158 17.58 -66.6718 17.7387 -66.1118 18.056C-65.5424 18.3733 -65.0991 18.812 -64.7818 19.372C-64.4551 19.932 -64.2918 20.5807 -64.2918 21.318C-64.2918 22.046 -64.4551 22.6947 -64.7818 23.264C-65.0991 23.824 -65.5424 24.2673 -66.1118 24.594C-66.6811 24.9113 -67.3251 25.07 -68.0438 25.07ZM-68.0438 24.188C-67.5118 24.188 -67.0404 24.0713 -66.6298 23.838C-66.2191 23.5953 -65.8971 23.2593 -65.6638 22.83C-65.4211 22.3913 -65.2998 21.8873 -65.2998 21.318C-65.2998 20.7393 -65.4211 20.2353 -65.6638 19.806C-65.8971 19.3767 -66.2191 19.0453 -66.6298 18.812C-67.0404 18.5693 -67.5071 18.448 -68.0298 18.448C-68.5524 18.448 -69.0191 18.5693 -69.4298 18.812C-69.8404 19.0453 -70.1671 19.3767 -70.4098 19.806C-70.6524 20.2353 -70.7738 20.7393 -70.7738 21.318C-70.7738 21.8873 -70.6524 22.3913 -70.4098 22.83C-70.1671 23.2593 -69.8404 23.5953 -69.4298 23.838C-69.0191 24.0713 -68.5571 24.188 -68.0438 24.188ZM-62.2624 25V17.65H-61.2684V25H-62.2624ZM-61.7584 16.026C-61.9638 16.026 -62.1364 15.956 -62.2764 15.816C-62.4164 15.676 -62.4864 15.508 -62.4864 15.312C-62.4864 15.116 -62.4164 14.9527 -62.2764 14.822C-62.1364 14.682 -61.9638 14.612 -61.7584 14.612C-61.5531 14.612 -61.3804 14.6773 -61.2404 14.808C-61.1004 14.9387 -61.0304 15.102 -61.0304 15.298C-61.0304 15.5033 -61.1004 15.676 -61.2404 15.816C-61.3711 15.956 -61.5438 16.026 -61.7584 16.026ZM-56.1787 25.07C-56.8693 25.07 -57.4013 24.8833 -57.7747 24.51C-58.148 24.1367 -58.3347 23.6093 -58.3347 22.928V16.026H-57.3407V22.872C-57.3407 23.3013 -57.2333 23.6327 -57.0187 23.866C-56.7947 24.0993 -56.4773 24.216 -56.0667 24.216C-55.628 24.216 -55.264 24.09 -54.9747 23.838L-54.6247 24.552C-54.8207 24.7293 -55.0587 24.86 -55.3387 24.944C-55.6093 25.028 -55.8893 25.07 -56.1787 25.07ZM-59.6507 18.476V17.65H-55.1007V18.476H-59.6507ZM-52.5805 25.07C-52.7858 25.07 -52.9631 24.9953 -53.1125 24.846C-53.2525 24.6967 -53.3225 24.5147 -53.3225 24.3C-53.3225 24.076 -53.2525 23.894 -53.1125 23.754C-52.9631 23.614 -52.7858 23.544 -52.5805 23.544C-52.3751 23.544 -52.2025 23.614 -52.0625 23.754C-51.9131 23.894 -51.8385 24.076 -51.8385 24.3C-51.8385 24.5147 -51.9131 24.6967 -52.0625 24.846C-52.2025 24.9953 -52.3751 25.07 -52.5805 25.07ZM-46.7807 27.786C-47.4527 27.786 -48.0967 27.688 -48.7127 27.492C-49.3287 27.296 -49.8281 27.016 -50.2107 26.652L-49.7067 25.896C-49.3614 26.204 -48.9367 26.4467 -48.4327 26.624C-47.9194 26.8107 -47.3781 26.904 -46.8087 26.904C-45.8754 26.904 -45.1894 26.6847 -44.7507 26.246C-44.3121 25.8167 -44.0927 25.1447 -44.0927 24.23V22.396L-43.9527 21.136L-44.0507 19.876V17.65H-43.0987V24.104C-43.0987 25.3733 -43.4114 26.302 -44.0367 26.89C-44.6527 27.4873 -45.5674 27.786 -46.7807 27.786ZM-46.9627 24.72C-47.6627 24.72 -48.2927 24.5707 -48.8527 24.272C-49.4127 23.964 -49.8561 23.5393 -50.1827 22.998C-50.5001 22.4567 -50.6587 21.836 -50.6587 21.136C-50.6587 20.436 -50.5001 19.82 -50.1827 19.288C-49.8561 18.7467 -49.4127 18.3267 -48.8527 18.028C-48.2927 17.7293 -47.6627 17.58 -46.9627 17.58C-46.3094 17.58 -45.7214 17.7153 -45.1987 17.986C-44.6761 18.2567 -44.2607 18.658 -43.9527 19.19C-43.6447 19.722 -43.4907 20.3707 -43.4907 21.136C-43.4907 21.9013 -43.6447 22.55 -43.9527 23.082C-44.2607 23.614 -44.6761 24.02 -45.1987 24.3C-45.7214 24.58 -46.3094 24.72 -46.9627 24.72ZM-46.8647 23.838C-46.3234 23.838 -45.8427 23.726 -45.4227 23.502C-45.0027 23.2687 -44.6714 22.9513 -44.4287 22.55C-44.1861 22.1393 -44.0647 21.668 -44.0647 21.136C-44.0647 20.604 -44.1861 20.1373 -44.4287 19.736C-44.6714 19.3347 -45.0027 19.022 -45.4227 18.798C-45.8427 18.5647 -46.3234 18.448 -46.8647 18.448C-47.3967 18.448 -47.8774 18.5647 -48.3067 18.798C-48.7267 19.022 -49.0581 19.3347 -49.3007 19.736C-49.5341 20.1373 -49.6507 20.604 -49.6507 21.136C-49.6507 21.668 -49.5341 22.1393 -49.3007 22.55C-49.0581 22.9513 -48.7267 23.2687 -48.3067 23.502C-47.8774 23.726 -47.3967 23.838 -46.8647 23.838ZM-40.3327 25V14.612H-39.3387V25H-40.3327ZM-33.577 25.07C-34.2863 25.07 -34.9257 24.9113 -35.495 24.594C-36.055 24.2673 -36.4983 23.824 -36.825 23.264C-37.1517 22.6947 -37.315 22.046 -37.315 21.318C-37.315 20.5807 -37.1517 19.932 -36.825 19.372C-36.4983 18.812 -36.055 18.3733 -35.495 18.056C-34.935 17.7387 -34.2957 17.58 -33.577 17.58C-32.849 17.58 -32.205 17.7387 -31.645 18.056C-31.0757 18.3733 -30.6323 18.812 -30.315 19.372C-29.9883 19.932 -29.825 20.5807 -29.825 21.318C-29.825 22.046 -29.9883 22.6947 -30.315 23.264C-30.6323 23.824 -31.0757 24.2673 -31.645 24.594C-32.2143 24.9113 -32.8583 25.07 -33.577 25.07ZM-33.577 24.188C-33.045 24.188 -32.5737 24.0713 -32.163 23.838C-31.7523 23.5953 -31.4303 23.2593 -31.197 22.83C-30.9543 22.3913 -30.833 21.8873 -30.833 21.318C-30.833 20.7393 -30.9543 20.2353 -31.197 19.806C-31.4303 19.3767 -31.7523 19.0453 -32.163 18.812C-32.5737 18.5693 -33.0403 18.448 -33.563 18.448C-34.0857 18.448 -34.5523 18.5693 -34.963 18.812C-35.3737 19.0453 -35.7003 19.3767 -35.943 19.806C-36.1857 20.2353 -36.307 20.7393 -36.307 21.318C-36.307 21.8873 -36.1857 22.3913 -35.943 22.83C-35.7003 23.2593 -35.3737 23.5953 -34.963 23.838C-34.5523 24.0713 -34.0903 24.188 -33.577 24.188ZM-24.0016 25.07C-24.6456 25.07 -25.2243 24.9253 -25.7376 24.636C-26.251 24.3373 -26.657 23.908 -26.9556 23.348C-27.2543 22.788 -27.4036 22.1113 -27.4036 21.318C-27.4036 20.5153 -27.2543 19.8387 -26.9556 19.288C-26.6476 18.728 -26.237 18.3033 -25.7236 18.014C-25.2103 17.7247 -24.6363 17.58 -24.0016 17.58C-23.3016 17.58 -22.6763 17.7387 -22.1256 18.056C-21.5656 18.364 -21.127 18.798 -20.8096 19.358C-20.4923 19.918 -20.3336 20.5713 -20.3336 21.318C-20.3336 22.0553 -20.4923 22.7087 -20.8096 23.278C-21.127 23.838 -21.5656 24.2767 -22.1256 24.594C-22.6763 24.9113 -23.3016 25.07 -24.0016 25.07ZM-27.7956 25V14.612H-26.8016V19.82L-26.9416 21.304L-26.8436 22.788V25H-27.7956ZM-24.0716 24.188C-23.549 24.188 -23.0823 24.0713 -22.6716 23.838C-22.261 23.5953 -21.9343 23.2593 -21.6916 22.83C-21.449 22.3913 -21.3276 21.8873 -21.3276 21.318C-21.3276 20.7393 -21.449 20.2353 -21.6916 19.806C-21.9343 19.3767 -22.261 19.0453 -22.6716 18.812C-23.0823 18.5693 -23.549 18.448 -24.0716 18.448C-24.5943 18.448 -25.0656 18.5693 -25.4856 18.812C-25.8963 19.0453 -26.223 19.3767 -26.4656 19.806C-26.699 20.2353 -26.8156 20.7393 -26.8156 21.318C-26.8156 21.8873 -26.699 22.3913 -26.4656 22.83C-26.223 23.2593 -25.8963 23.5953 -25.4856 23.838C-25.0656 24.0713 -24.5943 24.188 -24.0716 24.188ZM-13.7424 25V23.376L-13.7844 23.11V20.394C-13.7844 19.7687 -13.9617 19.288 -14.3164 18.952C-14.6617 18.616 -15.1797 18.448 -15.8704 18.448C-16.3464 18.448 -16.799 18.5273 -17.2284 18.686C-17.6577 18.8447 -18.0217 19.0547 -18.3204 19.316L-18.7684 18.574C-18.395 18.2567 -17.947 18.014 -17.4244 17.846C-16.9017 17.6687 -16.351 17.58 -15.7724 17.58C-14.8204 17.58 -14.0877 17.818 -13.5744 18.294C-13.0517 18.7607 -12.7904 19.4747 -12.7904 20.436V25H-13.7424ZM-16.2764 25.07C-16.827 25.07 -17.3077 24.9813 -17.7184 24.804C-18.1197 24.6173 -18.4277 24.3653 -18.6424 24.048C-18.857 23.7213 -18.9644 23.348 -18.9644 22.928C-18.9644 22.5453 -18.8757 22.2 -18.6984 21.892C-18.5117 21.5747 -18.213 21.3227 -17.8024 21.136C-17.3824 20.94 -16.8224 20.842 -16.1224 20.842H-13.5884V21.584H-16.0944C-16.8037 21.584 -17.2984 21.71 -17.5784 21.962C-17.849 22.214 -17.9844 22.5267 -17.9844 22.9C-17.9844 23.32 -17.821 23.656 -17.4944 23.908C-17.1677 24.16 -16.7104 24.286 -16.1224 24.286C-15.5624 24.286 -15.0817 24.16 -14.6804 23.908C-14.2697 23.6467 -13.971 23.2733 -13.7844 22.788L-13.5604 23.474C-13.747 23.9593 -14.0737 24.3467 -14.5404 24.636C-14.9977 24.9253 -15.5764 25.07 -16.2764 25.07ZM-10.0906 25V14.612H-9.09656V25H-10.0906ZM-8.0668 26.4L-3.4468 13.212H-2.5368L-7.1568 26.4H-8.0668ZM-200.862 41.58C-200.265 41.58 -199.742 41.6967 -199.294 41.93C-198.837 42.154 -198.482 42.4993 -198.23 42.966C-197.969 43.4327 -197.838 44.0207 -197.838 44.73V49H-198.832V44.828C-198.832 44.0533 -199.028 43.47 -199.42 43.078C-199.803 42.6767 -200.344 42.476 -201.044 42.476C-201.567 42.476 -202.024 42.5833 -202.416 42.798C-202.799 43.0033 -203.097 43.3067 -203.312 43.708C-203.517 44.1 -203.62 44.576 -203.62 45.136V49H-204.614V38.612H-203.62V43.666L-203.816 43.288C-203.583 42.756 -203.209 42.3407 -202.696 42.042C-202.183 41.734 -201.571 41.58 -200.862 41.58ZM-192.829 49.07C-193.52 49.07 -194.052 48.8833 -194.425 48.51C-194.798 48.1367 -194.985 47.6093 -194.985 46.928V40.026H-193.991V46.872C-193.991 47.3013 -193.884 47.6327 -193.669 47.866C-193.445 48.0993 -193.128 48.216 -192.717 48.216C-192.278 48.216 -191.914 48.09 -191.625 47.838L-191.275 48.552C-191.471 48.7293 -191.709 48.86 -191.989 48.944C-192.26 49.028 -192.54 49.07 -192.829 49.07ZM-196.301 42.476V41.65H-191.751V42.476H-196.301ZM-187.333 49.07C-188.024 49.07 -188.556 48.8833 -188.929 48.51C-189.302 48.1367 -189.489 47.6093 -189.489 46.928V40.026H-188.495V46.872C-188.495 47.3013 -188.388 47.6327 -188.173 47.866C-187.949 48.0993 -187.632 48.216 -187.221 48.216C-186.782 48.216 -186.418 48.09 -186.129 47.838L-185.779 48.552C-185.975 48.7293 -186.213 48.86 -186.493 48.944C-186.764 49.028 -187.044 49.07 -187.333 49.07ZM-190.805 42.476V41.65H-186.255V42.476H-190.805ZM-180.175 49.07C-180.81 49.07 -181.384 48.9253 -181.897 48.636C-182.411 48.3373 -182.821 47.9127 -183.129 47.362C-183.428 46.802 -183.577 46.1207 -183.577 45.318C-183.577 44.5153 -183.428 43.8387 -183.129 43.288C-182.831 42.728 -182.425 42.3033 -181.911 42.014C-181.398 41.7247 -180.819 41.58 -180.175 41.58C-179.475 41.58 -178.85 41.7387 -178.299 42.056C-177.739 42.364 -177.301 42.8027 -176.983 43.372C-176.666 43.932 -176.507 44.5807 -176.507 45.318C-176.507 46.0647 -176.666 46.718 -176.983 47.278C-177.301 47.838 -177.739 48.2767 -178.299 48.594C-178.85 48.9113 -179.475 49.07 -180.175 49.07ZM-183.969 51.716V41.65H-183.017V43.862L-183.115 45.332L-182.975 46.816V51.716H-183.969ZM-180.245 48.188C-179.723 48.188 -179.256 48.0713 -178.845 47.838C-178.435 47.5953 -178.108 47.2593 -177.865 46.83C-177.623 46.3913 -177.501 45.8873 -177.501 45.318C-177.501 44.7487 -177.623 44.2493 -177.865 43.82C-178.108 43.3907 -178.435 43.0547 -178.845 42.812C-179.256 42.5693 -179.723 42.448 -180.245 42.448C-180.768 42.448 -181.239 42.5693 -181.659 42.812C-182.07 43.0547 -182.397 43.3907 -182.639 43.82C-182.873 44.2493 -182.989 44.7487 -182.989 45.318C-182.989 45.8873 -182.873 46.3913 -182.639 46.83C-182.397 47.2593 -182.07 47.5953 -181.659 47.838C-181.239 48.0713 -180.768 48.188 -180.245 48.188ZM-172.507 49.07C-173.114 49.07 -173.688 48.986 -174.229 48.818C-174.771 48.6407 -175.195 48.4213 -175.503 48.16L-175.055 47.376C-174.757 47.6 -174.374 47.796 -173.907 47.964C-173.441 48.1227 -172.951 48.202 -172.437 48.202C-171.737 48.202 -171.233 48.0947 -170.925 47.88C-170.617 47.656 -170.463 47.362 -170.463 46.998C-170.463 46.7273 -170.552 46.5173 -170.729 46.368C-170.897 46.2093 -171.121 46.0927 -171.401 46.018C-171.681 45.934 -171.994 45.864 -172.339 45.808C-172.685 45.752 -173.03 45.6867 -173.375 45.612C-173.711 45.5373 -174.019 45.43 -174.299 45.29C-174.579 45.1407 -174.808 44.94 -174.985 44.688C-175.153 44.436 -175.237 44.1 -175.237 43.68C-175.237 43.2787 -175.125 42.9193 -174.901 42.602C-174.677 42.2847 -174.351 42.0373 -173.921 41.86C-173.483 41.6733 -172.951 41.58 -172.325 41.58C-171.849 41.58 -171.373 41.6453 -170.897 41.776C-170.421 41.8973 -170.029 42.0607 -169.721 42.266L-170.155 43.064C-170.482 42.84 -170.832 42.6813 -171.205 42.588C-171.579 42.4853 -171.952 42.434 -172.325 42.434C-172.988 42.434 -173.478 42.5507 -173.795 42.784C-174.103 43.008 -174.257 43.2973 -174.257 43.652C-174.257 43.932 -174.173 44.1513 -174.005 44.31C-173.828 44.4687 -173.599 44.5947 -173.319 44.688C-173.03 44.772 -172.717 44.842 -172.381 44.898C-172.036 44.954 -171.695 45.024 -171.359 45.108C-171.014 45.1827 -170.701 45.29 -170.421 45.43C-170.132 45.5607 -169.903 45.752 -169.735 46.004C-169.558 46.2467 -169.469 46.5687 -169.469 46.97C-169.469 47.3993 -169.591 47.7727 -169.833 48.09C-170.067 48.398 -170.412 48.6407 -170.869 48.818C-171.317 48.986 -171.863 49.07 -172.507 49.07ZM-167.547 43.106C-167.753 43.106 -167.93 43.0313 -168.079 42.882C-168.219 42.7327 -168.289 42.5507 -168.289 42.336C-168.289 42.112 -168.219 41.93 -168.079 41.79C-167.93 41.65 -167.753 41.58 -167.547 41.58C-167.342 41.58 -167.169 41.65 -167.029 41.79C-166.88 41.93 -166.805 42.112 -166.805 42.336C-166.805 42.5507 -166.88 42.7327 -167.029 42.882C-167.169 43.0313 -167.342 43.106 -167.547 43.106ZM-167.547 49.07C-167.753 49.07 -167.93 48.9953 -168.079 48.846C-168.219 48.6967 -168.289 48.5147 -168.289 48.3C-168.289 48.076 -168.219 47.894 -168.079 47.754C-167.93 47.614 -167.753 47.544 -167.547 47.544C-167.342 47.544 -167.169 47.614 -167.029 47.754C-166.88 47.894 -166.805 48.076 -166.805 48.3C-166.805 48.5147 -166.88 48.6967 -167.029 48.846C-167.169 48.9953 -167.342 49.07 -167.547 49.07ZM-165.786 50.4L-161.166 37.212H-160.256L-164.876 50.4H-165.786ZM-161.998 50.4L-157.378 37.212H-156.468L-161.088 50.4H-161.998ZM-154.789 47.096L-154.761 45.822L-150.183 41.65H-148.965L-152.199 44.744L-152.759 45.22L-154.789 47.096ZM-155.573 49V38.612H-154.579V49H-155.573ZM-149.875 49L-152.941 45.178L-152.297 44.408L-148.657 49H-149.875ZM-147.165 49V41.65H-146.171V49H-147.165ZM-146.661 40.026C-146.866 40.026 -147.039 39.956 -147.179 39.816C-147.319 39.676 -147.389 39.508 -147.389 39.312C-147.389 39.116 -147.319 38.9527 -147.179 38.822C-147.039 38.682 -146.866 38.612 -146.661 38.612C-146.455 38.612 -146.283 38.6773 -146.143 38.808C-146.003 38.9387 -145.933 39.102 -145.933 39.298C-145.933 39.5033 -146.003 39.676 -146.143 39.816C-146.273 39.956 -146.446 40.026 -146.661 40.026ZM-140.479 49.07C-141.179 49.07 -141.809 48.9113 -142.369 48.594C-142.92 48.2767 -143.354 47.838 -143.671 47.278C-143.988 46.7087 -144.147 46.0553 -144.147 45.318C-144.147 44.5713 -143.988 43.918 -143.671 43.358C-143.354 42.798 -142.92 42.364 -142.369 42.056C-141.809 41.7387 -141.179 41.58 -140.479 41.58C-139.835 41.58 -139.261 41.7247 -138.757 42.014C-138.244 42.3033 -137.838 42.728 -137.539 43.288C-137.231 43.8387 -137.077 44.5153 -137.077 45.318C-137.077 46.1113 -137.226 46.788 -137.525 47.348C-137.824 47.908 -138.23 48.3373 -138.743 48.636C-139.247 48.9253 -139.826 49.07 -140.479 49.07ZM-140.409 48.188C-139.886 48.188 -139.42 48.0713 -139.009 47.838C-138.589 47.5953 -138.262 47.2593 -138.029 46.83C-137.786 46.3913 -137.665 45.8873 -137.665 45.318C-137.665 44.7393 -137.786 44.2353 -138.029 43.806C-138.262 43.3767 -138.589 43.0453 -139.009 42.812C-139.42 42.5693 -139.886 42.448 -140.409 42.448C-140.922 42.448 -141.384 42.5693 -141.795 42.812C-142.206 43.0453 -142.532 43.3767 -142.775 43.806C-143.018 44.2353 -143.139 44.7393 -143.139 45.318C-143.139 45.8873 -143.018 46.3913 -142.775 46.83C-142.532 47.2593 -142.206 47.5953 -141.795 47.838C-141.384 48.0713 -140.922 48.188 -140.409 48.188ZM-137.637 49V46.788L-137.539 45.304L-137.679 43.82V38.612H-136.685V49H-137.637ZM-131.943 49.07C-132.549 49.07 -133.123 48.986 -133.665 48.818C-134.206 48.6407 -134.631 48.4213 -134.939 48.16L-134.491 47.376C-134.192 47.6 -133.809 47.796 -133.343 47.964C-132.876 48.1227 -132.386 48.202 -131.873 48.202C-131.173 48.202 -130.669 48.0947 -130.361 47.88C-130.053 47.656 -129.899 47.362 -129.899 46.998C-129.899 46.7273 -129.987 46.5173 -130.165 46.368C-130.333 46.2093 -130.557 46.0927 -130.837 46.018C-131.117 45.934 -131.429 45.864 -131.775 45.808C-132.12 45.752 -132.465 45.6867 -132.811 45.612C-133.147 45.5373 -133.455 45.43 -133.735 45.29C-134.015 45.1407 -134.243 44.94 -134.421 44.688C-134.589 44.436 -134.673 44.1 -134.673 43.68C-134.673 43.2787 -134.561 42.9193 -134.337 42.602C-134.113 42.2847 -133.786 42.0373 -133.357 41.86C-132.918 41.6733 -132.386 41.58 -131.761 41.58C-131.285 41.58 -130.809 41.6453 -130.333 41.776C-129.857 41.8973 -129.465 42.0607 -129.157 42.266L-129.591 43.064C-129.917 42.84 -130.267 42.6813 -130.641 42.588C-131.014 42.4853 -131.387 42.434 -131.761 42.434C-132.423 42.434 -132.913 42.5507 -133.231 42.784C-133.539 43.008 -133.693 43.2973 -133.693 43.652C-133.693 43.932 -133.609 44.1513 -133.441 44.31C-133.263 44.4687 -133.035 44.5947 -132.755 44.688C-132.465 44.772 -132.153 44.842 -131.817 44.898C-131.471 44.954 -131.131 45.024 -130.795 45.108C-130.449 45.1827 -130.137 45.29 -129.857 45.43C-129.567 45.5607 -129.339 45.752 -129.171 46.004C-128.993 46.2467 -128.905 46.5687 -128.905 46.97C-128.905 47.3993 -129.026 47.7727 -129.269 48.09C-129.502 48.398 -129.847 48.6407 -130.305 48.818C-130.753 48.986 -131.299 49.07 -131.943 49.07ZM-127.081 49V38.612H-126.087V49H-127.081ZM-123.321 49V41.65H-122.327V49H-123.321ZM-122.817 40.026C-123.022 40.026 -123.195 39.956 -123.335 39.816C-123.475 39.676 -123.545 39.508 -123.545 39.312C-123.545 39.116 -123.475 38.9527 -123.335 38.822C-123.195 38.682 -123.022 38.612 -122.817 38.612C-122.612 38.612 -122.439 38.6773 -122.299 38.808C-122.159 38.9387 -122.089 39.102 -122.089 39.298C-122.089 39.5033 -122.159 39.676 -122.299 39.816C-122.43 39.956 -122.602 40.026 -122.817 40.026ZM-118.777 47.096L-118.749 45.822L-114.171 41.65H-112.953L-116.187 44.744L-116.747 45.22L-118.777 47.096ZM-119.561 49V38.612H-118.567V49H-119.561ZM-113.863 49L-116.929 45.178L-116.285 44.408L-112.645 49H-113.863ZM-108.318 49.07C-109.084 49.07 -109.756 48.9113 -110.334 48.594C-110.913 48.2673 -111.366 47.824 -111.692 47.264C-112.019 46.6947 -112.182 46.046 -112.182 45.318C-112.182 44.59 -112.028 43.946 -111.72 43.386C-111.403 42.826 -110.974 42.3873 -110.432 42.07C-109.882 41.7433 -109.266 41.58 -108.584 41.58C-107.894 41.58 -107.282 41.7387 -106.75 42.056C-106.209 42.364 -105.784 42.8027 -105.476 43.372C-105.168 43.932 -105.014 44.5807 -105.014 45.318C-105.014 45.3647 -105.019 45.416 -105.028 45.472C-105.028 45.5187 -105.028 45.57 -105.028 45.626H-111.426V44.884H-105.56L-105.952 45.178C-105.952 44.646 -106.069 44.1747 -106.302 43.764C-106.526 43.344 -106.834 43.0173 -107.226 42.784C-107.618 42.5507 -108.071 42.434 -108.584 42.434C-109.088 42.434 -109.541 42.5507 -109.942 42.784C-110.344 43.0173 -110.656 43.344 -110.88 43.764C-111.104 44.184 -111.216 44.6647 -111.216 45.206V45.36C-111.216 45.92 -111.095 46.4147 -110.852 46.844C-110.6 47.264 -110.255 47.5953 -109.816 47.838C-109.368 48.0713 -108.86 48.188 -108.29 48.188C-107.842 48.188 -107.427 48.1087 -107.044 47.95C-106.652 47.7913 -106.316 47.5487 -106.036 47.222L-105.476 47.866C-105.803 48.258 -106.214 48.5567 -106.708 48.762C-107.194 48.9673 -107.73 49.07 -108.318 49.07ZM-102.893 49.07C-103.098 49.07 -103.276 48.9953 -103.425 48.846C-103.565 48.6967 -103.635 48.5147 -103.635 48.3C-103.635 48.076 -103.565 47.894 -103.425 47.754C-103.276 47.614 -103.098 47.544 -102.893 47.544C-102.688 47.544 -102.515 47.614 -102.375 47.754C-102.226 47.894 -102.151 48.076 -102.151 48.3C-102.151 48.5147 -102.226 48.6967 -102.375 48.846C-102.515 48.9953 -102.688 49.07 -102.893 49.07ZM-97.0932 51.786C-97.7652 51.786 -98.4092 51.688 -99.0252 51.492C-99.6412 51.296 -100.141 51.016 -100.523 50.652L-100.019 49.896C-99.6739 50.204 -99.2492 50.4467 -98.7452 50.624C-98.2319 50.8107 -97.6906 50.904 -97.1212 50.904C-96.1879 50.904 -95.5019 50.6847 -95.0632 50.246C-94.6246 49.8167 -94.4052 49.1447 -94.4052 48.23V46.396L-94.2652 45.136L-94.3632 43.876V41.65H-93.4112V48.104C-93.4112 49.3733 -93.7239 50.302 -94.3492 50.89C-94.9652 51.4873 -95.8799 51.786 -97.0932 51.786ZM-97.2752 48.72C-97.9752 48.72 -98.6052 48.5707 -99.1652 48.272C-99.7252 47.964 -100.169 47.5393 -100.495 46.998C-100.813 46.4567 -100.971 45.836 -100.971 45.136C-100.971 44.436 -100.813 43.82 -100.495 43.288C-100.169 42.7467 -99.7252 42.3267 -99.1652 42.028C-98.6052 41.7293 -97.9752 41.58 -97.2752 41.58C-96.6219 41.58 -96.0339 41.7153 -95.5112 41.986C-94.9886 42.2567 -94.5732 42.658 -94.2652 43.19C-93.9572 43.722 -93.8032 44.3707 -93.8032 45.136C-93.8032 45.9013 -93.9572 46.55 -94.2652 47.082C-94.5732 47.614 -94.9886 48.02 -95.5112 48.3C-96.0339 48.58 -96.6219 48.72 -97.2752 48.72ZM-97.1772 47.838C-96.6359 47.838 -96.1552 47.726 -95.7352 47.502C-95.3152 47.2687 -94.9839 46.9513 -94.7412 46.55C-94.4986 46.1393 -94.3772 45.668 -94.3772 45.136C-94.3772 44.604 -94.4986 44.1373 -94.7412 43.736C-94.9839 43.3347 -95.3152 43.022 -95.7352 42.798C-96.1552 42.5647 -96.6359 42.448 -97.1772 42.448C-97.7092 42.448 -98.1899 42.5647 -98.6192 42.798C-99.0392 43.022 -99.3706 43.3347 -99.6132 43.736C-99.8466 44.1373 -99.9632 44.604 -99.9632 45.136C-99.9632 45.668 -99.8466 46.1393 -99.6132 46.55C-99.3706 46.9513 -99.0392 47.2687 -98.6192 47.502C-98.1899 47.726 -97.7092 47.838 -97.1772 47.838ZM-87.6492 49.07C-88.3586 49.07 -88.9979 48.9113 -89.5672 48.594C-90.1272 48.2673 -90.5706 47.824 -90.8972 47.264C-91.2239 46.6947 -91.3872 46.046 -91.3872 45.318C-91.3872 44.5807 -91.2239 43.932 -90.8972 43.372C-90.5706 42.812 -90.1272 42.3733 -89.5672 42.056C-89.0072 41.7387 -88.3679 41.58 -87.6492 41.58C-86.9212 41.58 -86.2772 41.7387 -85.7172 42.056C-85.1479 42.3733 -84.7046 42.812 -84.3872 43.372C-84.0606 43.932 -83.8972 44.5807 -83.8972 45.318C-83.8972 46.046 -84.0606 46.6947 -84.3872 47.264C-84.7046 47.824 -85.1479 48.2673 -85.7172 48.594C-86.2866 48.9113 -86.9306 49.07 -87.6492 49.07ZM-87.6492 48.188C-87.1172 48.188 -86.6459 48.0713 -86.2352 47.838C-85.8246 47.5953 -85.5026 47.2593 -85.2692 46.83C-85.0266 46.3913 -84.9052 45.8873 -84.9052 45.318C-84.9052 44.7393 -85.0266 44.2353 -85.2692 43.806C-85.5026 43.3767 -85.8246 43.0453 -86.2352 42.812C-86.6459 42.5693 -87.1126 42.448 -87.6352 42.448C-88.1579 42.448 -88.6246 42.5693 -89.0352 42.812C-89.4459 43.0453 -89.7726 43.3767 -90.0152 43.806C-90.2579 44.2353 -90.3792 44.7393 -90.3792 45.318C-90.3792 45.8873 -90.2579 46.3913 -90.0152 46.83C-89.7726 47.2593 -89.4459 47.5953 -89.0352 47.838C-88.6246 48.0713 -88.1626 48.188 -87.6492 48.188ZM-81.8679 49V41.65H-80.8739V49H-81.8679ZM-81.3639 40.026C-81.5692 40.026 -81.7419 39.956 -81.8819 39.816C-82.0219 39.676 -82.0919 39.508 -82.0919 39.312C-82.0919 39.116 -82.0219 38.9527 -81.8819 38.822C-81.7419 38.682 -81.5692 38.612 -81.3639 38.612C-81.1586 38.612 -80.9859 38.6773 -80.8459 38.808C-80.7059 38.9387 -80.6359 39.102 -80.6359 39.298C-80.6359 39.5033 -80.7059 39.676 -80.8459 39.816C-80.9766 39.956 -81.1492 40.026 -81.3639 40.026ZM-75.7841 49.07C-76.4748 49.07 -77.0068 48.8833 -77.3801 48.51C-77.7535 48.1367 -77.9401 47.6093 -77.9401 46.928V40.026H-76.9461V46.872C-76.9461 47.3013 -76.8388 47.6327 -76.6241 47.866C-76.4001 48.0993 -76.0828 48.216 -75.6721 48.216C-75.2335 48.216 -74.8695 48.09 -74.5801 47.838L-74.2301 48.552C-74.4261 48.7293 -74.6641 48.86 -74.9441 48.944C-75.2148 49.028 -75.4948 49.07 -75.7841 49.07ZM-79.2561 42.476V41.65H-74.7061V42.476H-79.2561ZM-72.1859 49.07C-72.3913 49.07 -72.5686 48.9953 -72.7179 48.846C-72.8579 48.6967 -72.9279 48.5147 -72.9279 48.3C-72.9279 48.076 -72.8579 47.894 -72.7179 47.754C-72.5686 47.614 -72.3913 47.544 -72.1859 47.544C-71.9806 47.544 -71.8079 47.614 -71.6679 47.754C-71.5186 47.894 -71.4439 48.076 -71.4439 48.3C-71.4439 48.5147 -71.5186 48.6967 -71.6679 48.846C-71.8079 48.9953 -71.9806 49.07 -72.1859 49.07ZM-66.3862 51.786C-67.0582 51.786 -67.7022 51.688 -68.3182 51.492C-68.9342 51.296 -69.4335 51.016 -69.8162 50.652L-69.3122 49.896C-68.9669 50.204 -68.5422 50.4467 -68.0382 50.624C-67.5249 50.8107 -66.9835 50.904 -66.4142 50.904C-65.4809 50.904 -64.7949 50.6847 -64.3562 50.246C-63.9175 49.8167 -63.6982 49.1447 -63.6982 48.23V46.396L-63.5582 45.136L-63.6562 43.876V41.65H-62.7042V48.104C-62.7042 49.3733 -63.0169 50.302 -63.6422 50.89C-64.2582 51.4873 -65.1729 51.786 -66.3862 51.786ZM-66.5682 48.72C-67.2682 48.72 -67.8982 48.5707 -68.4582 48.272C-69.0182 47.964 -69.4615 47.5393 -69.7882 46.998C-70.1055 46.4567 -70.2642 45.836 -70.2642 45.136C-70.2642 44.436 -70.1055 43.82 -69.7882 43.288C-69.4615 42.7467 -69.0182 42.3267 -68.4582 42.028C-67.8982 41.7293 -67.2682 41.58 -66.5682 41.58C-65.9149 41.58 -65.3269 41.7153 -64.8042 41.986C-64.2815 42.2567 -63.8662 42.658 -63.5582 43.19C-63.2502 43.722 -63.0962 44.3707 -63.0962 45.136C-63.0962 45.9013 -63.2502 46.55 -63.5582 47.082C-63.8662 47.614 -64.2815 48.02 -64.8042 48.3C-65.3269 48.58 -65.9149 48.72 -66.5682 48.72ZM-66.4702 47.838C-65.9289 47.838 -65.4482 47.726 -65.0282 47.502C-64.6082 47.2687 -64.2769 46.9513 -64.0342 46.55C-63.7915 46.1393 -63.6702 45.668 -63.6702 45.136C-63.6702 44.604 -63.7915 44.1373 -64.0342 43.736C-64.2769 43.3347 -64.6082 43.022 -65.0282 42.798C-65.4482 42.5647 -65.9289 42.448 -66.4702 42.448C-67.0022 42.448 -67.4829 42.5647 -67.9122 42.798C-68.3322 43.022 -68.6635 43.3347 -68.9062 43.736C-69.1395 44.1373 -69.2562 44.604 -69.2562 45.136C-69.2562 45.668 -69.1395 46.1393 -68.9062 46.55C-68.6635 46.9513 -68.3322 47.2687 -67.9122 47.502C-67.4829 47.726 -67.0022 47.838 -66.4702 47.838ZM-59.9382 49V38.612H-58.9442V49H-59.9382ZM-53.1825 49.07C-53.8918 49.07 -54.5311 48.9113 -55.1005 48.594C-55.6605 48.2673 -56.1038 47.824 -56.4305 47.264C-56.7571 46.6947 -56.9205 46.046 -56.9205 45.318C-56.9205 44.5807 -56.7571 43.932 -56.4305 43.372C-56.1038 42.812 -55.6605 42.3733 -55.1005 42.056C-54.5405 41.7387 -53.9011 41.58 -53.1825 41.58C-52.4545 41.58 -51.8105 41.7387 -51.2505 42.056C-50.6811 42.3733 -50.2378 42.812 -49.9205 43.372C-49.5938 43.932 -49.4305 44.5807 -49.4305 45.318C-49.4305 46.046 -49.5938 46.6947 -49.9205 47.264C-50.2378 47.824 -50.6811 48.2673 -51.2505 48.594C-51.8198 48.9113 -52.4638 49.07 -53.1825 49.07ZM-53.1825 48.188C-52.6505 48.188 -52.1791 48.0713 -51.7685 47.838C-51.3578 47.5953 -51.0358 47.2593 -50.8025 46.83C-50.5598 46.3913 -50.4385 45.8873 -50.4385 45.318C-50.4385 44.7393 -50.5598 44.2353 -50.8025 43.806C-51.0358 43.3767 -51.3578 43.0453 -51.7685 42.812C-52.1791 42.5693 -52.6458 42.448 -53.1685 42.448C-53.6911 42.448 -54.1578 42.5693 -54.5685 42.812C-54.9791 43.0453 -55.3058 43.3767 -55.5485 43.806C-55.7911 44.2353 -55.9125 44.7393 -55.9125 45.318C-55.9125 45.8873 -55.7911 46.3913 -55.5485 46.83C-55.3058 47.2593 -54.9791 47.5953 -54.5685 47.838C-54.1578 48.0713 -53.6958 48.188 -53.1825 48.188ZM-43.6071 49.07C-44.2511 49.07 -44.8298 48.9253 -45.3431 48.636C-45.8564 48.3373 -46.2624 47.908 -46.5611 47.348C-46.8598 46.788 -47.0091 46.1113 -47.0091 45.318C-47.0091 44.5153 -46.8598 43.8387 -46.5611 43.288C-46.2531 42.728 -45.8424 42.3033 -45.3291 42.014C-44.8158 41.7247 -44.2418 41.58 -43.6071 41.58C-42.9071 41.58 -42.2818 41.7387 -41.7311 42.056C-41.1711 42.364 -40.7324 42.798 -40.4151 43.358C-40.0978 43.918 -39.9391 44.5713 -39.9391 45.318C-39.9391 46.0553 -40.0978 46.7087 -40.4151 47.278C-40.7324 47.838 -41.1711 48.2767 -41.7311 48.594C-42.2818 48.9113 -42.9071 49.07 -43.6071 49.07ZM-47.4011 49V38.612H-46.4071V43.82L-46.5471 45.304L-46.4491 46.788V49H-47.4011ZM-43.6771 48.188C-43.1544 48.188 -42.6878 48.0713 -42.2771 47.838C-41.8664 47.5953 -41.5398 47.2593 -41.2971 46.83C-41.0544 46.3913 -40.9331 45.8873 -40.9331 45.318C-40.9331 44.7393 -41.0544 44.2353 -41.2971 43.806C-41.5398 43.3767 -41.8664 43.0453 -42.2771 42.812C-42.6878 42.5693 -43.1544 42.448 -43.6771 42.448C-44.1998 42.448 -44.6711 42.5693 -45.0911 42.812C-45.5018 43.0453 -45.8284 43.3767 -46.0711 43.806C-46.3044 44.2353 -46.4211 44.7393 -46.4211 45.318C-46.4211 45.8873 -46.3044 46.3913 -46.0711 46.83C-45.8284 47.2593 -45.5018 47.5953 -45.0911 47.838C-44.6711 48.0713 -44.1998 48.188 -43.6771 48.188ZM-33.3478 49V47.376L-33.3898 47.11V44.394C-33.3898 43.7687 -33.5672 43.288 -33.9218 42.952C-34.2672 42.616 -34.7852 42.448 -35.4758 42.448C-35.9518 42.448 -36.4045 42.5273 -36.8338 42.686C-37.2632 42.8447 -37.6272 43.0547 -37.9258 43.316L-38.3738 42.574C-38.0005 42.2567 -37.5525 42.014 -37.0298 41.846C-36.5072 41.6687 -35.9565 41.58 -35.3778 41.58C-34.4258 41.58 -33.6932 41.818 -33.1798 42.294C-32.6572 42.7607 -32.3958 43.4747 -32.3958 44.436V49H-33.3478ZM-35.8818 49.07C-36.4325 49.07 -36.9132 48.9813 -37.3238 48.804C-37.7252 48.6173 -38.0332 48.3653 -38.2478 48.048C-38.4625 47.7213 -38.5698 47.348 -38.5698 46.928C-38.5698 46.5453 -38.4812 46.2 -38.3038 45.892C-38.1172 45.5747 -37.8185 45.3227 -37.4078 45.136C-36.9878 44.94 -36.4278 44.842 -35.7278 44.842H-33.1938V45.584H-35.6998C-36.4092 45.584 -36.9038 45.71 -37.1838 45.962C-37.4545 46.214 -37.5898 46.5267 -37.5898 46.9C-37.5898 47.32 -37.4265 47.656 -37.0998 47.908C-36.7732 48.16 -36.3158 48.286 -35.7278 48.286C-35.1678 48.286 -34.6872 48.16 -34.2858 47.908C-33.8752 47.6467 -33.5765 47.2733 -33.3898 46.788L-33.1658 47.474C-33.3525 47.9593 -33.6792 48.3467 -34.1458 48.636C-34.6032 48.9253 -35.1818 49.07 -35.8818 49.07ZM-29.696 49V38.612H-28.702V49H-29.696ZM-27.6723 50.4L-23.0523 37.212H-22.1423L-26.7623 50.4H-27.6723Z" fill="#595959"/>
<path d="M-206 2.75H5.88727V3.45H-206V2.75Z" fill="#595959"/>
<path d="M-206 26.75H-3.02679V27.45H-206V26.75Z" fill="#595959"/>
<path d="M-206 50.75H-22.6323V51.45H-206V50.75Z" fill="#595959"/>
</g>
<a href="https://barbershop.goit.global/">
<rect fill="black" fill-opacity="0" y="3.467" width="211.887" height="17.066"/>
</a>
<a href="https://cryptohub.goit.global/">
<rect fill="black" fill-opacity="0" y="27.467" width="202.973" height="17.066"/>
</a>
<a href="https://kidslike.goit.global/">
<rect fill="black" fill-opacity="0" y="51.467" width="183.368" height="17.066"/>
</a>
<g id="Group 1">
<g id="Frame 1">
<path id="Vector 1" d="M118.5 1H0.499939" stroke="#A8A8A8" stroke-dasharray="4 4"/>
</g>
</g>
</g>
</g>
<defs>
<filter id="filter0_d_0_1" x="-704" y="-437" width="1240" height="1359" filterUnits="userSpaceOnUse" color-interpolation-filters="sRGB">
<feFlood flood-opacity="0" result="BackgroundImageFix"/>
<feColorMatrix in="SourceAlpha" type="matrix" values="0 0 0 0 0 0 0 0 0 0 0 0 0 0 0 0 0 0 127 0" result="hardAlpha"/>
<feOffset dx="6" dy="6"/>
<feGaussianBlur stdDeviation="10"/>
<feColorMatrix type="matrix" values="0 0 0 0 0 0 0 0 0 0 0 0 0 0 0 0 0 0 0.1 0"/>
<feBlend mode="normal" in2="BackgroundImageFix" result="effect1_dropShadow_0_1"/>
<feBlend mode="normal" in="SourceGraphic" in2="effect1_dropShadow_0_1" result="shape"/>
</filter>
</defs>
</svg>
