<svg width="123" height="2" viewBox="0 0 123 2" fill="none" xmlns="http://www.w3.org/2000/svg">
<rect width="123" height="2" fill="#E5E5E5"/>
<g id="CV">
<rect width="1280" height="1399" transform="translate(-726 -487)" fill="#F5F7FA"/>
<g id="Rectangle 1" filter="url(#filter0_d_0_1)">
<rect x="-686" y="-447" width="1200" height="1319" fill="white"/>
</g>
<g id="Projects">
<g id="https://barbershop.goit.global/ https://cryptohub.goit.global/ https://kidslike.goit.global/">
<path d="M-196.862 -30.42C-196.265 -30.42 -195.742 -30.3033 -195.294 -30.07C-194.837 -29.846 -194.482 -29.5007 -194.23 -29.034C-193.969 -28.5673 -193.838 -27.9793 -193.838 -27.27V-23H-194.832V-27.172C-194.832 -27.9467 -195.028 -28.53 -195.42 -28.922C-195.803 -29.3233 -196.344 -29.524 -197.044 -29.524C-197.567 -29.524 -198.024 -29.4167 -198.416 -29.202C-198.799 -28.9967 -199.097 -28.6933 -199.312 -28.292C-199.517 -27.9 -199.62 -27.424 -199.62 -26.864V-23H-200.614V-33.388H-199.62V-28.334L-199.816 -28.712C-199.583 -29.244 -199.209 -29.6593 -198.696 -29.958C-198.183 -30.266 -197.571 -30.42 -196.862 -30.42ZM-188.829 -22.93C-189.52 -22.93 -190.052 -23.1167 -190.425 -23.49C-190.798 -23.8633 -190.985 -24.3907 -190.985 -25.072V-31.974H-189.991V-25.128C-189.991 -24.6987 -189.884 -24.3673 -189.669 -24.134C-189.445 -23.9007 -189.128 -23.784 -188.717 -23.784C-188.278 -23.784 -187.914 -23.91 -187.625 -24.162L-187.275 -23.448C-187.471 -23.2707 -187.709 -23.14 -187.989 -23.056C-188.26 -22.972 -188.54 -22.93 -188.829 -22.93ZM-192.301 -29.524V-30.35H-187.751V-29.524H-192.301ZM-183.333 -22.93C-184.024 -22.93 -184.556 -23.1167 -184.929 -23.49C-185.302 -23.8633 -185.489 -24.3907 -185.489 -25.072V-31.974H-184.495V-25.128C-184.495 -24.6987 -184.388 -24.3673 -184.173 -24.134C-183.949 -23.9007 -183.632 -23.784 -183.221 -23.784C-182.782 -23.784 -182.418 -23.91 -182.129 -24.162L-181.779 -23.448C-181.975 -23.2707 -182.213 -23.14 -182.493 -23.056C-182.764 -22.972 -183.044 -22.93 -183.333 -22.93ZM-186.805 -29.524V-30.35H-182.255V-29.524H-186.805ZM-176.175 -22.93C-176.81 -22.93 -177.384 -23.0747 -177.897 -23.364C-178.411 -23.6627 -178.821 -24.0873 -179.129 -24.638C-179.428 -25.198 -179.577 -25.8793 -179.577 -26.682C-179.577 -27.4847 -179.428 -28.1613 -179.129 -28.712C-178.831 -29.272 -178.425 -29.6967 -177.911 -29.986C-177.398 -30.2753 -176.819 -30.42 -176.175 -30.42C-175.475 -30.42 -174.85 -30.2613 -174.299 -29.944C-173.739 -29.636 -173.301 -29.1973 -172.983 -28.628C-172.666 -28.068 -172.507 -27.4193 -172.507 -26.682C-172.507 -25.9353 -172.666 -25.282 -172.983 -24.722C-173.301 -24.162 -173.739 -23.7233 -174.299 -23.406C-174.85 -23.0887 -175.475 -22.93 -176.175 -22.93ZM-179.969 -20.284V-30.35H-179.017V-28.138L-179.115 -26.668L-178.975 -25.184V-20.284H-179.969ZM-176.245 -23.812C-175.723 -23.812 -175.256 -23.9287 -174.845 -24.162C-174.435 -24.4047 -174.108 -24.7407 -173.865 -25.17C-173.623 -25.6087 -173.501 -26.1127 -173.501 -26.682C-173.501 -27.2513 -173.623 -27.7507 -173.865 -28.18C-174.108 -28.6093 -174.435 -28.9453 -174.845 -29.188C-175.256 -29.4307 -175.723 -29.552 -176.245 -29.552C-176.768 -29.552 -177.239 -29.4307 -177.659 -29.188C-178.07 -28.9453 -178.397 -28.6093 -178.639 -28.18C-178.873 -27.7507 -178.989 -27.2513 -178.989 -26.682C-178.989 -26.1127 -178.873 -25.6087 -178.639 -25.17C-178.397 -24.7407 -178.07 -24.4047 -177.659 -24.162C-177.239 -23.9287 -176.768 -23.812 -176.245 -23.812ZM-168.507 -22.93C-169.114 -22.93 -169.688 -23.014 -170.229 -23.182C-170.771 -23.3593 -171.195 -23.5787 -171.503 -23.84L-171.055 -24.624C-170.757 -24.4 -170.374 -24.204 -169.907 -24.036C-169.441 -23.8773 -168.951 -23.798 -168.437 -23.798C-167.737 -23.798 -167.233 -23.9053 -166.925 -24.12C-166.617 -24.344 -166.463 -24.638 -166.463 -25.002C-166.463 -25.2727 -166.552 -25.4827 -166.729 -25.632C-166.897 -25.7907 -167.121 -25.9073 -167.401 -25.982C-167.681 -26.066 -167.994 -26.136 -168.339 -26.192C-168.685 -26.248 -169.03 -26.3133 -169.375 -26.388C-169.711 -26.4627 -170.019 -26.57 -170.299 -26.71C-170.579 -26.8593 -170.808 -27.06 -170.985 -27.312C-171.153 -27.564 -171.237 -27.9 -171.237 -28.32C-171.237 -28.7213 -171.125 -29.0807 -170.901 -29.398C-170.677 -29.7153 -170.351 -29.9627 -169.921 -30.14C-169.483 -30.3267 -168.951 -30.42 -168.325 -30.42C-167.849 -30.42 -167.373 -30.3547 -166.897 -30.224C-166.421 -30.1027 -166.029 -29.9393 -165.721 -29.734L-166.155 -28.936C-166.482 -29.16 -166.832 -29.3187 -167.205 -29.412C-167.579 -29.5147 -167.952 -29.566 -168.325 -29.566C-168.988 -29.566 -169.478 -29.4493 -169.795 -29.216C-170.103 -28.992 -170.257 -28.7027 -170.257 -28.348C-170.257 -28.068 -170.173 -27.8487 -170.005 -27.69C-169.828 -27.5313 -169.599 -27.4053 -169.319 -27.312C-169.03 -27.228 -168.717 -27.158 -168.381 -27.102C-168.036 -27.046 -167.695 -26.976 -167.359 -26.892C-167.014 -26.8173 -166.701 -26.71 -166.421 -26.57C-166.132 -26.4393 -165.903 -26.248 -165.735 -25.996C-165.558 -25.7533 -165.469 -25.4313 -165.469 -25.03C-165.469 -24.6007 -165.591 -24.2273 -165.833 -23.91C-166.067 -23.602 -166.412 -23.3593 -166.869 -23.182C-167.317 -23.014 -167.863 -22.93 -168.507 -22.93ZM-163.547 -28.894C-163.753 -28.894 -163.93 -28.9687 -164.079 -29.118C-164.219 -29.2673 -164.289 -29.4493 -164.289 -29.664C-164.289 -29.888 -164.219 -30.07 -164.079 -30.21C-163.93 -30.35 -163.753 -30.42 -163.547 -30.42C-163.342 -30.42 -163.169 -30.35 -163.029 -30.21C-162.88 -30.07 -162.805 -29.888 -162.805 -29.664C-162.805 -29.4493 -162.88 -29.2673 -163.029 -29.118C-163.169 -28.9687 -163.342 -28.894 -163.547 -28.894ZM-163.547 -22.93C-163.753 -22.93 -163.93 -23.0047 -164.079 -23.154C-164.219 -23.3033 -164.289 -23.4853 -164.289 -23.7C-164.289 -23.924 -164.219 -24.106 -164.079 -24.246C-163.93 -24.386 -163.753 -24.456 -163.547 -24.456C-163.342 -24.456 -163.169 -24.386 -163.029 -24.246C-162.88 -24.106 -162.805 -23.924 -162.805 -23.7C-162.805 -23.4853 -162.88 -23.3033 -163.029 -23.154C-163.169 -23.0047 -163.342 -22.93 -163.547 -22.93ZM-161.786 -21.6L-157.166 -34.788H-156.256L-160.876 -21.6H-161.786ZM-157.998 -21.6L-153.378 -34.788H-152.468L-157.088 -21.6H-157.998ZM-147.779 -22.93C-148.423 -22.93 -149.002 -23.0747 -149.515 -23.364C-150.028 -23.6627 -150.434 -24.092 -150.733 -24.652C-151.032 -25.212 -151.181 -25.8887 -151.181 -26.682C-151.181 -27.4847 -151.032 -28.1613 -150.733 -28.712C-150.425 -29.272 -150.014 -29.6967 -149.501 -29.986C-148.988 -30.2753 -148.414 -30.42 -147.779 -30.42C-147.079 -30.42 -146.454 -30.2613 -145.903 -29.944C-145.343 -29.636 -144.904 -29.202 -144.587 -28.642C-144.27 -28.082 -144.111 -27.4287 -144.111 -26.682C-144.111 -25.9447 -144.27 -25.2913 -144.587 -24.722C-144.904 -24.162 -145.343 -23.7233 -145.903 -23.406C-146.454 -23.0887 -147.079 -22.93 -147.779 -22.93ZM-151.573 -23V-33.388H-150.579V-28.18L-150.719 -26.696L-150.621 -25.212V-23H-151.573ZM-147.849 -23.812C-147.326 -23.812 -146.86 -23.9287 -146.449 -24.162C-146.038 -24.4047 -145.712 -24.7407 -145.469 -25.17C-145.226 -25.6087 -145.105 -26.1127 -145.105 -26.682C-145.105 -27.2607 -145.226 -27.7647 -145.469 -28.194C-145.712 -28.6233 -146.038 -28.9547 -146.449 -29.188C-146.86 -29.4307 -147.326 -29.552 -147.849 -29.552C-148.372 -29.552 -148.843 -29.4307 -149.263 -29.188C-149.674 -28.9547 -150 -28.6233 -150.243 -28.194C-150.476 -27.7647 -150.593 -27.2607 -150.593 -26.682C-150.593 -26.1127 -150.476 -25.6087 -150.243 -25.17C-150 -24.7407 -149.674 -24.4047 -149.263 -24.162C-148.843 -23.9287 -148.372 -23.812 -147.849 -23.812ZM-137.52 -23V-24.624L-137.562 -24.89V-27.606C-137.562 -28.2313 -137.739 -28.712 -138.094 -29.048C-138.439 -29.384 -138.957 -29.552 -139.648 -29.552C-140.124 -29.552 -140.576 -29.4727 -141.006 -29.314C-141.435 -29.1553 -141.799 -28.9453 -142.098 -28.684L-142.546 -29.426C-142.172 -29.7433 -141.724 -29.986 -141.202 -30.154C-140.679 -30.3313 -140.128 -30.42 -139.55 -30.42C-138.598 -30.42 -137.865 -30.182 -137.352 -29.706C-136.829 -29.2393 -136.568 -28.5253 -136.568 -27.564V-23H-137.52ZM-140.054 -22.93C-140.604 -22.93 -141.085 -23.0187 -141.496 -23.196C-141.897 -23.3827 -142.205 -23.6347 -142.42 -23.952C-142.634 -24.2787 -142.742 -24.652 -142.742 -25.072C-142.742 -25.4547 -142.653 -25.8 -142.476 -26.108C-142.289 -26.4253 -141.99 -26.6773 -141.58 -26.864C-141.16 -27.06 -140.6 -27.158 -139.9 -27.158H-137.366V-26.416H-139.872C-140.581 -26.416 -141.076 -26.29 -141.356 -26.038C-141.626 -25.786 -141.762 -25.4733 -141.762 -25.1C-141.762 -24.68 -141.598 -24.344 -141.272 -24.092C-140.945 -23.84 -140.488 -23.714 -139.9 -23.714C-139.34 -23.714 -138.859 -23.84 -138.458 -24.092C-138.047 -24.3533 -137.748 -24.7267 -137.562 -25.212L-137.338 -24.526C-137.524 -24.0407 -137.851 -23.6533 -138.318 -23.364C-138.775 -23.0747 -139.354 -22.93 -140.054 -22.93ZM-133.868 -23V-30.35H-132.916V-28.348L-133.014 -28.698C-132.809 -29.258 -132.463 -29.6827 -131.978 -29.972C-131.493 -30.2707 -130.891 -30.42 -130.172 -30.42V-29.454C-130.209 -29.454 -130.247 -29.454 -130.284 -29.454C-130.321 -29.4633 -130.359 -29.468 -130.396 -29.468C-131.171 -29.468 -131.777 -29.23 -132.216 -28.754C-132.655 -28.2873 -132.874 -27.62 -132.874 -26.752V-23H-133.868ZM-124.564 -22.93C-125.208 -22.93 -125.787 -23.0747 -126.3 -23.364C-126.813 -23.6627 -127.219 -24.092 -127.518 -24.652C-127.817 -25.212 -127.966 -25.8887 -127.966 -26.682C-127.966 -27.4847 -127.817 -28.1613 -127.518 -28.712C-127.21 -29.272 -126.799 -29.6967 -126.286 -29.986C-125.773 -30.2753 -125.199 -30.42 -124.564 -30.42C-123.864 -30.42 -123.239 -30.2613 -122.688 -29.944C-122.128 -29.636 -121.689 -29.202 -121.372 -28.642C-121.055 -28.082 -120.896 -27.4287 -120.896 -26.682C-120.896 -25.9447 -121.055 -25.2913 -121.372 -24.722C-121.689 -24.162 -122.128 -23.7233 -122.688 -23.406C-123.239 -23.0887 -123.864 -22.93 -124.564 -22.93ZM-128.358 -23V-33.388H-127.364V-28.18L-127.504 -26.696L-127.406 -25.212V-23H-128.358ZM-124.634 -23.812C-124.111 -23.812 -123.645 -23.9287 -123.234 -24.162C-122.823 -24.4047 -122.497 -24.7407 -122.254 -25.17C-122.011 -25.6087 -121.89 -26.1127 -121.89 -26.682C-121.89 -27.2607 -122.011 -27.7647 -122.254 -28.194C-122.497 -28.6233 -122.823 -28.9547 -123.234 -29.188C-123.645 -29.4307 -124.111 -29.552 -124.634 -29.552C-125.157 -29.552 -125.628 -29.4307 -126.048 -29.188C-126.459 -28.9547 -126.785 -28.6233 -127.028 -28.194C-127.261 -27.7647 -127.378 -27.2607 -127.378 -26.682C-127.378 -26.1127 -127.261 -25.6087 -127.028 -25.17C-126.785 -24.7407 -126.459 -24.4047 -126.048 -24.162C-125.628 -23.9287 -125.157 -23.812 -124.634 -23.812ZM-115.748 -22.93C-116.513 -22.93 -117.185 -23.0887 -117.764 -23.406C-118.343 -23.7327 -118.795 -24.176 -119.122 -24.736C-119.449 -25.3053 -119.612 -25.954 -119.612 -26.682C-119.612 -27.41 -119.458 -28.054 -119.15 -28.614C-118.833 -29.174 -118.403 -29.6127 -117.862 -29.93C-117.311 -30.2567 -116.695 -30.42 -116.014 -30.42C-115.323 -30.42 -114.712 -30.2613 -114.18 -29.944C-113.639 -29.636 -113.214 -29.1973 -112.906 -28.628C-112.598 -28.068 -112.444 -27.4193 -112.444 -26.682C-112.444 -26.6353 -112.449 -26.584 -112.458 -26.528C-112.458 -26.4813 -112.458 -26.43 -112.458 -26.374H-118.856V-27.116H-112.99L-113.382 -26.822C-113.382 -27.354 -113.499 -27.8253 -113.732 -28.236C-113.956 -28.656 -114.264 -28.9827 -114.656 -29.216C-115.048 -29.4493 -115.501 -29.566 -116.014 -29.566C-116.518 -29.566 -116.971 -29.4493 -117.372 -29.216C-117.773 -28.9827 -118.086 -28.656 -118.31 -28.236C-118.534 -27.816 -118.646 -27.3353 -118.646 -26.794V-26.64C-118.646 -26.08 -118.525 -25.5853 -118.282 -25.156C-118.03 -24.736 -117.685 -24.4047 -117.246 -24.162C-116.798 -23.9287 -116.289 -23.812 -115.72 -23.812C-115.272 -23.812 -114.857 -23.8913 -114.474 -24.05C-114.082 -24.2087 -113.746 -24.4513 -113.466 -24.778L-112.906 -24.134C-113.233 -23.742 -113.643 -23.4433 -114.138 -23.238C-114.623 -23.0327 -115.16 -22.93 -115.748 -22.93ZM-110.421 -23V-30.35H-109.469V-28.348L-109.567 -28.698C-109.361 -29.258 -109.016 -29.6827 -108.531 -29.972C-108.045 -30.2707 -107.443 -30.42 -106.725 -30.42V-29.454C-106.762 -29.454 -106.799 -29.454 -106.837 -29.454C-106.874 -29.4633 -106.911 -29.468 -106.949 -29.468C-107.723 -29.468 -108.33 -29.23 -108.769 -28.754C-109.207 -28.2873 -109.427 -27.62 -109.427 -26.752V-23H-110.421ZM-102.855 -22.93C-103.462 -22.93 -104.036 -23.014 -104.577 -23.182C-105.118 -23.3593 -105.543 -23.5787 -105.851 -23.84L-105.403 -24.624C-105.104 -24.4 -104.722 -24.204 -104.255 -24.036C-103.788 -23.8773 -103.298 -23.798 -102.785 -23.798C-102.085 -23.798 -101.581 -23.9053 -101.273 -24.12C-100.965 -24.344 -100.811 -24.638 -100.811 -25.002C-100.811 -25.2727 -100.9 -25.4827 -101.077 -25.632C-101.245 -25.7907 -101.469 -25.9073 -101.749 -25.982C-102.029 -26.066 -102.342 -26.136 -102.687 -26.192C-103.032 -26.248 -103.378 -26.3133 -103.723 -26.388C-104.059 -26.4627 -104.367 -26.57 -104.647 -26.71C-104.927 -26.8593 -105.156 -27.06 -105.333 -27.312C-105.501 -27.564 -105.585 -27.9 -105.585 -28.32C-105.585 -28.7213 -105.473 -29.0807 -105.249 -29.398C-105.025 -29.7153 -104.698 -29.9627 -104.269 -30.14C-103.83 -30.3267 -103.298 -30.42 -102.673 -30.42C-102.197 -30.42 -101.721 -30.3547 -101.245 -30.224C-100.769 -30.1027 -100.377 -29.9393 -100.069 -29.734L-100.503 -28.936C-100.83 -29.16 -101.18 -29.3187 -101.553 -29.412C-101.926 -29.5147 -102.3 -29.566 -102.673 -29.566C-103.336 -29.566 -103.826 -29.4493 -104.143 -29.216C-104.451 -28.992 -104.605 -28.7027 -104.605 -28.348C-104.605 -28.068 -104.521 -27.8487 -104.353 -27.69C-104.176 -27.5313 -103.947 -27.4053 -103.667 -27.312C-103.378 -27.228 -103.065 -27.158 -102.729 -27.102C-102.384 -27.046 -102.043 -26.976 -101.707 -26.892C-101.362 -26.8173 -101.049 -26.71 -100.769 -26.57C-100.48 -26.4393 -100.251 -26.248 -100.083 -25.996C-99.9055 -25.7533 -99.8168 -25.4313 -99.8168 -25.03C-99.8168 -24.6007 -99.9382 -24.2273 -100.181 -23.91C-100.414 -23.602 -100.76 -23.3593 -101.217 -23.182C-101.665 -23.014 -102.211 -22.93 -102.855 -22.93ZM-94.2409 -30.42C-93.6436 -30.42 -93.1209 -30.3033 -92.6729 -30.07C-92.2156 -29.846 -91.8609 -29.5007 -91.6089 -29.034C-91.3476 -28.5673 -91.2169 -27.9793 -91.2169 -27.27V-23H-92.2109V-27.172C-92.2109 -27.9467 -92.4069 -28.53 -92.7989 -28.922C-93.1816 -29.3233 -93.7229 -29.524 -94.4229 -29.524C-94.9456 -29.524 -95.4029 -29.4167 -95.7949 -29.202C-96.1776 -28.9967 -96.4762 -28.6933 -96.6909 -28.292C-96.8962 -27.9 -96.9989 -27.424 -96.9989 -26.864V-23H-97.9929V-33.388H-96.9989V-28.334L-97.1949 -28.712C-96.9616 -29.244 -96.5882 -29.6593 -96.0749 -29.958C-95.5616 -30.266 -94.9502 -30.42 -94.2409 -30.42ZM-85.536 -22.93C-86.2453 -22.93 -86.8846 -23.0887 -87.454 -23.406C-88.014 -23.7327 -88.4573 -24.176 -88.784 -24.736C-89.1106 -25.3053 -89.274 -25.954 -89.274 -26.682C-89.274 -27.4193 -89.1106 -28.068 -88.784 -28.628C-88.4573 -29.188 -88.014 -29.6267 -87.454 -29.944C-86.894 -30.2613 -86.2546 -30.42 -85.536 -30.42C-84.808 -30.42 -84.164 -30.2613 -83.604 -29.944C-83.0346 -29.6267 -82.5913 -29.188 -82.274 -28.628C-81.9473 -28.068 -81.784 -27.4193 -81.784 -26.682C-81.784 -25.954 -81.9473 -25.3053 -82.274 -24.736C-82.5913 -24.176 -83.0346 -23.7327 -83.604 -23.406C-84.1733 -23.0887 -84.8173 -22.93 -85.536 -22.93ZM-85.536 -23.812C-85.004 -23.812 -84.5326 -23.9287 -84.122 -24.162C-83.7113 -24.4047 -83.3893 -24.7407 -83.156 -25.17C-82.9133 -25.6087 -82.792 -26.1127 -82.792 -26.682C-82.792 -27.2607 -82.9133 -27.7647 -83.156 -28.194C-83.3893 -28.6233 -83.7113 -28.9547 -84.122 -29.188C-84.5326 -29.4307 -84.9993 -29.552 -85.522 -29.552C-86.0446 -29.552 -86.5113 -29.4307 -86.922 -29.188C-87.3326 -28.9547 -87.6593 -28.6233 -87.902 -28.194C-88.1446 -27.7647 -88.266 -27.2607 -88.266 -26.682C-88.266 -26.1127 -88.1446 -25.6087 -87.902 -25.17C-87.6593 -24.7407 -87.3326 -24.4047 -86.922 -24.162C-86.5113 -23.9287 -86.0493 -23.812 -85.536 -23.812ZM-75.9606 -22.93C-76.5953 -22.93 -77.1693 -23.0747 -77.6826 -23.364C-78.196 -23.6627 -78.6066 -24.0873 -78.9146 -24.638C-79.2133 -25.198 -79.3626 -25.8793 -79.3626 -26.682C-79.3626 -27.4847 -79.2133 -28.1613 -78.9146 -28.712C-78.616 -29.272 -78.21 -29.6967 -77.6966 -29.986C-77.1833 -30.2753 -76.6046 -30.42 -75.9606 -30.42C-75.2606 -30.42 -74.6353 -30.2613 -74.0846 -29.944C-73.5246 -29.636 -73.086 -29.1973 -72.7686 -28.628C-72.4513 -28.068 -72.2926 -27.4193 -72.2926 -26.682C-72.2926 -25.9353 -72.4513 -25.282 -72.7686 -24.722C-73.086 -24.162 -73.5246 -23.7233 -74.0846 -23.406C-74.6353 -23.0887 -75.2606 -22.93 -75.9606 -22.93ZM-79.7546 -20.284V-30.35H-78.8026V-28.138L-78.9006 -26.668L-78.7606 -25.184V-20.284H-79.7546ZM-76.0306 -23.812C-75.508 -23.812 -75.0413 -23.9287 -74.6306 -24.162C-74.22 -24.4047 -73.8933 -24.7407 -73.6506 -25.17C-73.408 -25.6087 -73.2866 -26.1127 -73.2866 -26.682C-73.2866 -27.2513 -73.408 -27.7507 -73.6506 -28.18C-73.8933 -28.6093 -74.22 -28.9453 -74.6306 -29.188C-75.0413 -29.4307 -75.508 -29.552 -76.0306 -29.552C-76.5533 -29.552 -77.0246 -29.4307 -77.4446 -29.188C-77.8553 -28.9453 -78.182 -28.6093 -78.4246 -28.18C-78.658 -27.7507 -78.7746 -27.2513 -78.7746 -26.682C-78.7746 -26.1127 -78.658 -25.6087 -78.4246 -25.17C-78.182 -24.7407 -77.8553 -24.4047 -77.4446 -24.162C-77.0246 -23.9287 -76.5533 -23.812 -76.0306 -23.812ZM-70.3734 -22.93C-70.5788 -22.93 -70.7561 -23.0047 -70.9054 -23.154C-71.0454 -23.3033 -71.1154 -23.4853 -71.1154 -23.7C-71.1154 -23.924 -71.0454 -24.106 -70.9054 -24.246C-70.7561 -24.386 -70.5788 -24.456 -70.3734 -24.456C-70.1681 -24.456 -69.9954 -24.386 -69.8554 -24.246C-69.7061 -24.106 -69.6314 -23.924 -69.6314 -23.7C-69.6314 -23.4853 -69.7061 -23.3033 -69.8554 -23.154C-69.9954 -23.0047 -70.1681 -22.93 -70.3734 -22.93ZM-64.5737 -20.214C-65.2457 -20.214 -65.8897 -20.312 -66.5057 -20.508C-67.1217 -20.704 -67.621 -20.984 -68.0037 -21.348L-67.4997 -22.104C-67.1544 -21.796 -66.7297 -21.5533 -66.2257 -21.376C-65.7124 -21.1893 -65.171 -21.096 -64.6017 -21.096C-63.6684 -21.096 -62.9824 -21.3153 -62.5437 -21.754C-62.105 -22.1833 -61.8857 -22.8553 -61.8857 -23.77V-25.604L-61.7457 -26.864L-61.8437 -28.124V-30.35H-60.8917V-23.896C-60.8917 -22.6267 -61.2044 -21.698 -61.8297 -21.11C-62.4457 -20.5127 -63.3604 -20.214 -64.5737 -20.214ZM-64.7557 -23.28C-65.4557 -23.28 -66.0857 -23.4293 -66.6457 -23.728C-67.2057 -24.036 -67.649 -24.4607 -67.9757 -25.002C-68.293 -25.5433 -68.4517 -26.164 -68.4517 -26.864C-68.4517 -27.564 -68.293 -28.18 -67.9757 -28.712C-67.649 -29.2533 -67.2057 -29.6733 -66.6457 -29.972C-66.0857 -30.2707 -65.4557 -30.42 -64.7557 -30.42C-64.1024 -30.42 -63.5144 -30.2847 -62.9917 -30.014C-62.469 -29.7433 -62.0537 -29.342 -61.7457 -28.81C-61.4377 -28.278 -61.2837 -27.6293 -61.2837 -26.864C-61.2837 -26.0987 -61.4377 -25.45 -61.7457 -24.918C-62.0537 -24.386 -62.469 -23.98 -62.9917 -23.7C-63.5144 -23.42 -64.1024 -23.28 -64.7557 -23.28ZM-64.6577 -24.162C-64.1164 -24.162 -63.6357 -24.274 -63.2157 -24.498C-62.7957 -24.7313 -62.4644 -25.0487 -62.2217 -25.45C-61.979 -25.8607 -61.8577 -26.332 -61.8577 -26.864C-61.8577 -27.396 -61.979 -27.8627 -62.2217 -28.264C-62.4644 -28.6653 -62.7957 -28.978 -63.2157 -29.202C-63.6357 -29.4353 -64.1164 -29.552 -64.6577 -29.552C-65.1897 -29.552 -65.6704 -29.4353 -66.0997 -29.202C-66.5197 -28.978 -66.851 -28.6653 -67.0937 -28.264C-67.327 -27.8627 -67.4437 -27.396 -67.4437 -26.864C-67.4437 -26.332 -67.327 -25.8607 -67.0937 -25.45C-66.851 -25.0487 -66.5197 -24.7313 -66.0997 -24.498C-65.6704 -24.274 -65.1897 -24.162 -64.6577 -24.162ZM-55.1297 -22.93C-55.8391 -22.93 -56.4784 -23.0887 -57.0477 -23.406C-57.6077 -23.7327 -58.0511 -24.176 -58.3777 -24.736C-58.7044 -25.3053 -58.8677 -25.954 -58.8677 -26.682C-58.8677 -27.4193 -58.7044 -28.068 -58.3777 -28.628C-58.0511 -29.188 -57.6077 -29.6267 -57.0477 -29.944C-56.4877 -30.2613 -55.8484 -30.42 -55.1297 -30.42C-54.4017 -30.42 -53.7577 -30.2613 -53.1977 -29.944C-52.6284 -29.6267 -52.1851 -29.188 -51.8677 -28.628C-51.5411 -28.068 -51.3777 -27.4193 -51.3777 -26.682C-51.3777 -25.954 -51.5411 -25.3053 -51.8677 -24.736C-52.1851 -24.176 -52.6284 -23.7327 -53.1977 -23.406C-53.7671 -23.0887 -54.4111 -22.93 -55.1297 -22.93ZM-55.1297 -23.812C-54.5977 -23.812 -54.1264 -23.9287 -53.7157 -24.162C-53.3051 -24.4047 -52.9831 -24.7407 -52.7497 -25.17C-52.5071 -25.6087 -52.3857 -26.1127 -52.3857 -26.682C-52.3857 -27.2607 -52.5071 -27.7647 -52.7497 -28.194C-52.9831 -28.6233 -53.3051 -28.9547 -53.7157 -29.188C-54.1264 -29.4307 -54.5931 -29.552 -55.1157 -29.552C-55.6384 -29.552 -56.1051 -29.4307 -56.5157 -29.188C-56.9264 -28.9547 -57.2531 -28.6233 -57.4957 -28.194C-57.7384 -27.7647 -57.8597 -27.2607 -57.8597 -26.682C-57.8597 -26.1127 -57.7384 -25.6087 -57.4957 -25.17C-57.2531 -24.7407 -56.9264 -24.4047 -56.5157 -24.162C-56.1051 -23.9287 -55.6431 -23.812 -55.1297 -23.812ZM-49.3484 -23V-30.35H-48.3544V-23H-49.3484ZM-48.8444 -31.974C-49.0497 -31.974 -49.2224 -32.044 -49.3624 -32.184C-49.5024 -32.324 -49.5724 -32.492 -49.5724 -32.688C-49.5724 -32.884 -49.5024 -33.0473 -49.3624 -33.178C-49.2224 -33.318 -49.0497 -33.388 -48.8444 -33.388C-48.639 -33.388 -48.4664 -33.3227 -48.3264 -33.192C-48.1864 -33.0613 -48.1164 -32.898 -48.1164 -32.702C-48.1164 -32.4967 -48.1864 -32.324 -48.3264 -32.184C-48.457 -32.044 -48.6297 -31.974 -48.8444 -31.974ZM-43.2646 -22.93C-43.9553 -22.93 -44.4873 -23.1167 -44.8606 -23.49C-45.2339 -23.8633 -45.4206 -24.3907 -45.4206 -25.072V-31.974H-44.4266V-25.128C-44.4266 -24.6987 -44.3193 -24.3673 -44.1046 -24.134C-43.8806 -23.9007 -43.5633 -23.784 -43.1526 -23.784C-42.7139 -23.784 -42.3499 -23.91 -42.0606 -24.162L-41.7106 -23.448C-41.9066 -23.2707 -42.1446 -23.14 -42.4246 -23.056C-42.6953 -22.972 -42.9753 -22.93 -43.2646 -22.93ZM-46.7366 -29.524V-30.35H-42.1866V-29.524H-46.7366ZM-39.6664 -22.93C-39.8717 -22.93 -40.0491 -23.0047 -40.1984 -23.154C-40.3384 -23.3033 -40.4084 -23.4853 -40.4084 -23.7C-40.4084 -23.924 -40.3384 -24.106 -40.1984 -24.246C-40.0491 -24.386 -39.8717 -24.456 -39.6664 -24.456C-39.4611 -24.456 -39.2884 -24.386 -39.1484 -24.246C-38.9991 -24.106 -38.9244 -23.924 -38.9244 -23.7C-38.9244 -23.4853 -38.9991 -23.3033 -39.1484 -23.154C-39.2884 -23.0047 -39.4611 -22.93 -39.6664 -22.93ZM-33.8667 -20.214C-34.5387 -20.214 -35.1827 -20.312 -35.7987 -20.508C-36.4147 -20.704 -36.914 -20.984 -37.2967 -21.348L-36.7927 -22.104C-36.4473 -21.796 -36.0227 -21.5533 -35.5187 -21.376C-35.0053 -21.1893 -34.464 -21.096 -33.8947 -21.096C-32.9613 -21.096 -32.2753 -21.3153 -31.8367 -21.754C-31.398 -22.1833 -31.1787 -22.8553 -31.1787 -23.77V-25.604L-31.0387 -26.864L-31.1367 -28.124V-30.35H-30.1847V-23.896C-30.1847 -22.6267 -30.4973 -21.698 -31.1227 -21.11C-31.7387 -20.5127 -32.6533 -20.214 -33.8667 -20.214ZM-34.0487 -23.28C-34.7487 -23.28 -35.3787 -23.4293 -35.9387 -23.728C-36.4987 -24.036 -36.942 -24.4607 -37.2687 -25.002C-37.586 -25.5433 -37.7447 -26.164 -37.7447 -26.864C-37.7447 -27.564 -37.586 -28.18 -37.2687 -28.712C-36.942 -29.2533 -36.4987 -29.6733 -35.9387 -29.972C-35.3787 -30.2707 -34.7487 -30.42 -34.0487 -30.42C-33.3953 -30.42 -32.8073 -30.2847 -32.2847 -30.014C-31.762 -29.7433 -31.3467 -29.342 -31.0387 -28.81C-30.7307 -28.278 -30.5767 -27.6293 -30.5767 -26.864C-30.5767 -26.0987 -30.7307 -25.45 -31.0387 -24.918C-31.3467 -24.386 -31.762 -23.98 -32.2847 -23.7C-32.8073 -23.42 -33.3953 -23.28 -34.0487 -23.28ZM-33.9507 -24.162C-33.4093 -24.162 -32.9287 -24.274 -32.5087 -24.498C-32.0887 -24.7313 -31.7573 -25.0487 -31.5147 -25.45C-31.272 -25.8607 -31.1507 -26.332 -31.1507 -26.864C-31.1507 -27.396 -31.272 -27.8627 -31.5147 -28.264C-31.7573 -28.6653 -32.0887 -28.978 -32.5087 -29.202C-32.9287 -29.4353 -33.4093 -29.552 -33.9507 -29.552C-34.4827 -29.552 -34.9633 -29.4353 -35.3927 -29.202C-35.8127 -28.978 -36.144 -28.6653 -36.3867 -28.264C-36.62 -27.8627 -36.7367 -27.396 -36.7367 -26.864C-36.7367 -26.332 -36.62 -25.8607 -36.3867 -25.45C-36.144 -25.0487 -35.8127 -24.7313 -35.3927 -24.498C-34.9633 -24.274 -34.4827 -24.162 -33.9507 -24.162ZM-27.4187 -23V-33.388H-26.4247V-23H-27.4187ZM-20.6629 -22.93C-21.3723 -22.93 -22.0116 -23.0887 -22.5809 -23.406C-23.1409 -23.7327 -23.5843 -24.176 -23.9109 -24.736C-24.2376 -25.3053 -24.4009 -25.954 -24.4009 -26.682C-24.4009 -27.4193 -24.2376 -28.068 -23.9109 -28.628C-23.5843 -29.188 -23.1409 -29.6267 -22.5809 -29.944C-22.0209 -30.2613 -21.3816 -30.42 -20.6629 -30.42C-19.9349 -30.42 -19.2909 -30.2613 -18.7309 -29.944C-18.1616 -29.6267 -17.7183 -29.188 -17.4009 -28.628C-17.0743 -28.068 -16.9109 -27.4193 -16.9109 -26.682C-16.9109 -25.954 -17.0743 -25.3053 -17.4009 -24.736C-17.7183 -24.176 -18.1616 -23.7327 -18.7309 -23.406C-19.3003 -23.0887 -19.9443 -22.93 -20.6629 -22.93ZM-20.6629 -23.812C-20.1309 -23.812 -19.6596 -23.9287 -19.2489 -24.162C-18.8383 -24.4047 -18.5163 -24.7407 -18.2829 -25.17C-18.0403 -25.6087 -17.9189 -26.1127 -17.9189 -26.682C-17.9189 -27.2607 -18.0403 -27.7647 -18.2829 -28.194C-18.5163 -28.6233 -18.8383 -28.9547 -19.2489 -29.188C-19.6596 -29.4307 -20.1263 -29.552 -20.6489 -29.552C-21.1716 -29.552 -21.6383 -29.4307 -22.0489 -29.188C-22.4596 -28.9547 -22.7863 -28.6233 -23.0289 -28.194C-23.2716 -27.7647 -23.3929 -27.2607 -23.3929 -26.682C-23.3929 -26.1127 -23.2716 -25.6087 -23.0289 -25.17C-22.7863 -24.7407 -22.4596 -24.4047 -22.0489 -24.162C-21.6383 -23.9287 -21.1763 -23.812 -20.6629 -23.812ZM-11.0876 -22.93C-11.7316 -22.93 -12.3102 -23.0747 -12.8236 -23.364C-13.3369 -23.6627 -13.7429 -24.092 -14.0416 -24.652C-14.3402 -25.212 -14.4896 -25.8887 -14.4896 -26.682C-14.4896 -27.4847 -14.3402 -28.1613 -14.0416 -28.712C-13.7336 -29.272 -13.3229 -29.6967 -12.8096 -29.986C-12.2962 -30.2753 -11.7222 -30.42 -11.0876 -30.42C-10.3876 -30.42 -9.76224 -30.2613 -9.21158 -29.944C-8.65158 -29.636 -8.21291 -29.202 -7.89558 -28.642C-7.57824 -28.082 -7.41958 -27.4287 -7.41958 -26.682C-7.41958 -25.9447 -7.57824 -25.2913 -7.89558 -24.722C-8.21291 -24.162 -8.65158 -23.7233 -9.21158 -23.406C-9.76224 -23.0887 -10.3876 -22.93 -11.0876 -22.93ZM-14.8816 -23V-33.388H-13.8876V-28.18L-14.0276 -26.696L-13.9296 -25.212V-23H-14.8816ZM-11.1576 -23.812C-10.6349 -23.812 -10.1682 -23.9287 -9.75758 -24.162C-9.34691 -24.4047 -9.02024 -24.7407 -8.77758 -25.17C-8.53491 -25.6087 -8.41358 -26.1127 -8.41358 -26.682C-8.41358 -27.2607 -8.53491 -27.7647 -8.77758 -28.194C-9.02024 -28.6233 -9.34691 -28.9547 -9.75758 -29.188C-10.1682 -29.4307 -10.6349 -29.552 -11.1576 -29.552C-11.6802 -29.552 -12.1516 -29.4307 -12.5716 -29.188C-12.9822 -28.9547 -13.3089 -28.6233 -13.5516 -28.194C-13.7849 -27.7647 -13.9016 -27.2607 -13.9016 -26.682C-13.9016 -26.1127 -13.7849 -25.6087 -13.5516 -25.17C-13.3089 -24.7407 -12.9822 -24.4047 -12.5716 -24.162C-12.1516 -23.9287 -11.6802 -23.812 -11.1576 -23.812ZM-0.828312 -23V-24.624L-0.870312 -24.89V-27.606C-0.870312 -28.2313 -1.04765 -28.712 -1.40231 -29.048C-1.74765 -29.384 -2.26565 -29.552 -2.95631 -29.552C-3.43231 -29.552 -3.88498 -29.4727 -4.31431 -29.314C-4.74365 -29.1553 -5.10765 -28.9453 -5.40631 -28.684L-5.85431 -29.426C-5.48098 -29.7433 -5.03298 -29.986 -4.51031 -30.154C-3.98765 -30.3313 -3.43698 -30.42 -2.85831 -30.42C-1.90631 -30.42 -1.17365 -30.182 -0.660312 -29.706C-0.137646 -29.2393 0.123688 -28.5253 0.123688 -27.564V-23H-0.828312ZM-3.36231 -22.93C-3.91298 -22.93 -4.39365 -23.0187 -4.80431 -23.196C-5.20565 -23.3827 -5.51365 -23.6347 -5.72831 -23.952C-5.94298 -24.2787 -6.05031 -24.652 -6.05031 -25.072C-6.05031 -25.4547 -5.96165 -25.8 -5.78431 -26.108C-5.59765 -26.4253 -5.29898 -26.6773 -4.88831 -26.864C-4.46831 -27.06 -3.90831 -27.158 -3.20831 -27.158H-0.674312V-26.416H-3.18031C-3.88965 -26.416 -4.38431 -26.29 -4.66431 -26.038C-4.93498 -25.786 -5.07031 -25.4733 -5.07031 -25.1C-5.07031 -24.68 -4.90698 -24.344 -4.58031 -24.092C-4.25365 -23.84 -3.79631 -23.714 -3.20831 -23.714C-2.64831 -23.714 -2.16765 -23.84 -1.76631 -24.092C-1.35565 -24.3533 -1.05698 -24.7267 -0.870312 -25.212L-0.646312 -24.526C-0.832979 -24.0407 -1.15965 -23.6533 -1.62631 -23.364C-2.08365 -23.0747 -2.66231 -22.93 -3.36231 -22.93ZM2.8235 -23V-33.388H3.8175V-23H2.8235ZM4.84727 -21.6L9.46727 -34.788H10.3773L5.75727 -21.6H4.84727ZM-196.862 -6.42C-196.265 -6.42 -195.742 -6.30333 -195.294 -6.07C-194.837 -5.846 -194.482 -5.50067 -194.23 -5.034C-193.969 -4.56733 -193.838 -3.97933 -193.838 -3.27V1H-194.832V-3.172C-194.832 -3.94667 -195.028 -4.53 -195.42 -4.922C-195.803 -5.32333 -196.344 -5.524 -197.044 -5.524C-197.567 -5.524 -198.024 -5.41667 -198.416 -5.202C-198.799 -4.99667 -199.097 -4.69333 -199.312 -4.292C-199.517 -3.9 -199.62 -3.424 -199.62 -2.864V1H-200.614V-9.388H-199.62V-4.334L-199.816 -4.712C-199.583 -5.244 -199.209 -5.65933 -198.696 -5.958C-198.183 -6.266 -197.571 -6.42 -196.862 -6.42ZM-188.829 1.07C-189.52 1.07 -190.052 0.883333 -190.425 0.51C-190.798 0.136667 -190.985 -0.390667 -190.985 -1.072V-7.974H-189.991V-1.128C-189.991 -0.698667 -189.884 -0.367333 -189.669 -0.134C-189.445 0.0993333 -189.128 0.216 -188.717 0.216C-188.278 0.216 -187.914 0.09 -187.625 -0.162L-187.275 0.552C-187.471 0.729333 -187.709 0.86 -187.989 0.944C-188.26 1.028 -188.54 1.07 -188.829 1.07ZM-192.301 -5.524V-6.35H-187.751V-5.524H-192.301ZM-183.333 1.07C-184.024 1.07 -184.556 0.883333 -184.929 0.51C-185.302 0.136667 -185.489 -0.390667 -185.489 -1.072V-7.974H-184.495V-1.128C-184.495 -0.698667 -184.388 -0.367333 -184.173 -0.134C-183.949 0.0993333 -183.632 0.216 -183.221 0.216C-182.782 0.216 -182.418 0.09 -182.129 -0.162L-181.779 0.552C-181.975 0.729333 -182.213 0.86 -182.493 0.944C-182.764 1.028 -183.044 1.07 -183.333 1.07ZM-186.805 -5.524V-6.35H-182.255V-5.524H-186.805ZM-176.175 1.07C-176.81 1.07 -177.384 0.925333 -177.897 0.636C-178.411 0.337333 -178.821 -0.0873334 -179.129 -0.638C-179.428 -1.198 -179.577 -1.87933 -179.577 -2.682C-179.577 -3.48467 -179.428 -4.16133 -179.129 -4.712C-178.831 -5.272 -178.425 -5.69667 -177.911 -5.986C-177.398 -6.27533 -176.819 -6.42 -176.175 -6.42C-175.475 -6.42 -174.85 -6.26133 -174.299 -5.944C-173.739 -5.636 -173.301 -5.19733 -172.983 -4.628C-172.666 -4.068 -172.507 -3.41933 -172.507 -2.682C-172.507 -1.93533 -172.666 -1.282 -172.983 -0.722C-173.301 -0.162 -173.739 0.276667 -174.299 0.594C-174.85 0.911333 -175.475 1.07 -176.175 1.07ZM-179.969 3.716V-6.35H-179.017V-4.138L-179.115 -2.668L-178.975 -1.184V3.716H-179.969ZM-176.245 0.188C-175.723 0.188 -175.256 0.0713333 -174.845 -0.162C-174.435 -0.404667 -174.108 -0.740667 -173.865 -1.17C-173.623 -1.60867 -173.501 -2.11267 -173.501 -2.682C-173.501 -3.25133 -173.623 -3.75067 -173.865 -4.18C-174.108 -4.60933 -174.435 -4.94533 -174.845 -5.188C-175.256 -5.43067 -175.723 -5.552 -176.245 -5.552C-176.768 -5.552 -177.239 -5.43067 -177.659 -5.188C-178.07 -4.94533 -178.397 -4.60933 -178.639 -4.18C-178.873 -3.75067 -178.989 -3.25133 -178.989 -2.682C-178.989 -2.11267 -178.873 -1.60867 -178.639 -1.17C-178.397 -0.740667 -178.07 -0.404667 -177.659 -0.162C-177.239 0.0713333 -176.768 0.188 -176.245 0.188ZM-168.507 1.07C-169.114 1.07 -169.688 0.986 -170.229 0.818C-170.771 0.640667 -171.195 0.421333 -171.503 0.16L-171.055 -0.624C-170.757 -0.4 -170.374 -0.204 -169.907 -0.036C-169.441 0.122667 -168.951 0.202 -168.437 0.202C-167.737 0.202 -167.233 0.0946666 -166.925 -0.12C-166.617 -0.344 -166.463 -0.638 -166.463 -1.002C-166.463 -1.27267 -166.552 -1.48267 -166.729 -1.632C-166.897 -1.79067 -167.121 -1.90733 -167.401 -1.982C-167.681 -2.066 -167.994 -2.136 -168.339 -2.192C-168.685 -2.248 -169.03 -2.31333 -169.375 -2.388C-169.711 -2.46267 -170.019 -2.57 -170.299 -2.71C-170.579 -2.85933 -170.808 -3.06 -170.985 -3.312C-171.153 -3.564 -171.237 -3.9 -171.237 -4.32C-171.237 -4.72133 -171.125 -5.08067 -170.901 -5.398C-170.677 -5.71533 -170.351 -5.96267 -169.921 -6.14C-169.483 -6.32667 -168.951 -6.42 -168.325 -6.42C-167.849 -6.42 -167.373 -6.35467 -166.897 -6.224C-166.421 -6.10267 -166.029 -5.93933 -165.721 -5.734L-166.155 -4.936C-166.482 -5.16 -166.832 -5.31867 -167.205 -5.412C-167.579 -5.51467 -167.952 -5.566 -168.325 -5.566C-168.988 -5.566 -169.478 -5.44933 -169.795 -5.216C-170.103 -4.992 -170.257 -4.70267 -170.257 -4.348C-170.257 -4.068 -170.173 -3.84867 -170.005 -3.69C-169.828 -3.53133 -169.599 -3.40533 -169.319 -3.312C-169.03 -3.228 -168.717 -3.158 -168.381 -3.102C-168.036 -3.046 -167.695 -2.976 -167.359 -2.892C-167.014 -2.81733 -166.701 -2.71 -166.421 -2.57C-166.132 -2.43933 -165.903 -2.248 -165.735 -1.996C-165.558 -1.75333 -165.469 -1.43133 -165.469 -1.03C-165.469 -0.600667 -165.591 -0.227333 -165.833 0.0899999C-166.067 0.398 -166.412 0.640667 -166.869 0.818C-167.317 0.986 -167.863 1.07 -168.507 1.07ZM-163.547 -4.894C-163.753 -4.894 -163.93 -4.96867 -164.079 -5.118C-164.219 -5.26733 -164.289 -5.44933 -164.289 -5.664C-164.289 -5.888 -164.219 -6.07 -164.079 -6.21C-163.93 -6.35 -163.753 -6.42 -163.547 -6.42C-163.342 -6.42 -163.169 -6.35 -163.029 -6.21C-162.88 -6.07 -162.805 -5.888 -162.805 -5.664C-162.805 -5.44933 -162.88 -5.26733 -163.029 -5.118C-163.169 -4.96867 -163.342 -4.894 -163.547 -4.894ZM-163.547 1.07C-163.753 1.07 -163.93 0.995333 -164.079 0.846C-164.219 0.696667 -164.289 0.514667 -164.289 0.3C-164.289 0.076 -164.219 -0.106 -164.079 -0.246C-163.93 -0.386 -163.753 -0.456 -163.547 -0.456C-163.342 -0.456 -163.169 -0.386 -163.029 -0.246C-162.88 -0.106 -162.805 0.076 -162.805 0.3C-162.805 0.514667 -162.88 0.696667 -163.029 0.846C-163.169 0.995333 -163.342 1.07 -163.547 1.07ZM-161.786 2.4L-157.166 -10.788H-156.256L-160.876 2.4H-161.786ZM-157.998 2.4L-153.378 -10.788H-152.468L-157.088 2.4H-157.998ZM-149.478 1.07C-150.206 1.07 -150.859 0.911333 -151.438 0.594C-152.007 0.267333 -152.455 -0.176 -152.782 -0.736C-153.109 -1.30533 -153.272 -1.954 -153.272 -2.682C-153.272 -3.41933 -153.109 -4.068 -152.782 -4.628C-152.455 -5.188 -152.007 -5.62667 -151.438 -5.944C-150.859 -6.26133 -150.206 -6.42 -149.478 -6.42C-148.853 -6.42 -148.288 -6.29867 -147.784 -6.056C-147.28 -5.81333 -146.883 -5.44933 -146.594 -4.964L-147.336 -4.46C-147.588 -4.83333 -147.901 -5.10867 -148.274 -5.286C-148.647 -5.46333 -149.053 -5.552 -149.492 -5.552C-150.015 -5.552 -150.486 -5.43067 -150.906 -5.188C-151.326 -4.95467 -151.657 -4.62333 -151.9 -4.194C-152.143 -3.76467 -152.264 -3.26067 -152.264 -2.682C-152.264 -2.10333 -152.143 -1.59933 -151.9 -1.17C-151.657 -0.740667 -151.326 -0.404667 -150.906 -0.162C-150.486 0.0713333 -150.015 0.188 -149.492 0.188C-149.053 0.188 -148.647 0.0993333 -148.274 -0.0780001C-147.901 -0.255333 -147.588 -0.526 -147.336 -0.89L-146.594 -0.386C-146.883 0.09 -147.28 0.454 -147.784 0.706C-148.288 0.948667 -148.853 1.07 -149.478 1.07ZM-144.641 1V-6.35H-143.689V-4.348L-143.787 -4.698C-143.582 -5.258 -143.237 -5.68267 -142.751 -5.972C-142.266 -6.27067 -141.664 -6.42 -140.945 -6.42V-5.454C-140.983 -5.454 -141.02 -5.454 -141.057 -5.454C-141.095 -5.46333 -141.132 -5.468 -141.169 -5.468C-141.944 -5.468 -142.551 -5.23 -142.989 -4.754C-143.428 -4.28733 -143.647 -3.62 -143.647 -2.752V1H-144.641ZM-138.761 3.786C-139.106 3.786 -139.438 3.73 -139.755 3.618C-140.063 3.506 -140.329 3.338 -140.553 3.114L-140.091 2.372C-139.904 2.54933 -139.704 2.68467 -139.489 2.778C-139.265 2.88067 -139.018 2.932 -138.747 2.932C-138.42 2.932 -138.14 2.83867 -137.907 2.652C-137.664 2.47467 -137.436 2.15733 -137.221 1.7L-136.745 0.622L-136.633 0.468L-133.609 -6.35H-132.629L-136.311 1.882C-136.516 2.358 -136.745 2.736 -136.997 3.016C-137.24 3.296 -137.506 3.492 -137.795 3.604C-138.084 3.72533 -138.406 3.786 -138.761 3.786ZM-136.801 1.21L-140.189 -6.35H-139.153L-136.157 0.398L-136.801 1.21ZM-127.435 1.07C-128.07 1.07 -128.644 0.925333 -129.157 0.636C-129.671 0.337333 -130.081 -0.0873334 -130.389 -0.638C-130.688 -1.198 -130.837 -1.87933 -130.837 -2.682C-130.837 -3.48467 -130.688 -4.16133 -130.389 -4.712C-130.091 -5.272 -129.685 -5.69667 -129.171 -5.986C-128.658 -6.27533 -128.079 -6.42 -127.435 -6.42C-126.735 -6.42 -126.11 -6.26133 -125.559 -5.944C-124.999 -5.636 -124.561 -5.19733 -124.243 -4.628C-123.926 -4.068 -123.767 -3.41933 -123.767 -2.682C-123.767 -1.93533 -123.926 -1.282 -124.243 -0.722C-124.561 -0.162 -124.999 0.276667 -125.559 0.594C-126.11 0.911333 -126.735 1.07 -127.435 1.07ZM-131.229 3.716V-6.35H-130.277V-4.138L-130.375 -2.668L-130.235 -1.184V3.716H-131.229ZM-127.505 0.188C-126.983 0.188 -126.516 0.0713333 -126.105 -0.162C-125.695 -0.404667 -125.368 -0.740667 -125.125 -1.17C-124.883 -1.60867 -124.761 -2.11267 -124.761 -2.682C-124.761 -3.25133 -124.883 -3.75067 -125.125 -4.18C-125.368 -4.60933 -125.695 -4.94533 -126.105 -5.188C-126.516 -5.43067 -126.983 -5.552 -127.505 -5.552C-128.028 -5.552 -128.499 -5.43067 -128.919 -5.188C-129.33 -4.94533 -129.657 -4.60933 -129.899 -4.18C-130.133 -3.75067 -130.249 -3.25133 -130.249 -2.682C-130.249 -2.11267 -130.133 -1.60867 -129.899 -1.17C-129.657 -0.740667 -129.33 -0.404667 -128.919 -0.162C-128.499 0.0713333 -128.028 0.188 -127.505 0.188ZM-119.417 1.07C-120.108 1.07 -120.64 0.883333 -121.013 0.51C-121.386 0.136667 -121.573 -0.390667 -121.573 -1.072V-7.974H-120.579V-1.128C-120.579 -0.698667 -120.472 -0.367333 -120.257 -0.134C-120.033 0.0993333 -119.716 0.216 -119.305 0.216C-118.866 0.216 -118.502 0.09 -118.213 -0.162L-117.863 0.552C-118.059 0.729333 -118.297 0.86 -118.577 0.944C-118.848 1.028 -119.128 1.07 -119.417 1.07ZM-122.889 -5.524V-6.35H-118.339V-5.524H-122.889ZM-113.317 1.07C-114.027 1.07 -114.666 0.911333 -115.235 0.594C-115.795 0.267333 -116.239 -0.176 -116.565 -0.736C-116.892 -1.30533 -117.055 -1.954 -117.055 -2.682C-117.055 -3.41933 -116.892 -4.068 -116.565 -4.628C-116.239 -5.188 -115.795 -5.62667 -115.235 -5.944C-114.675 -6.26133 -114.036 -6.42 -113.317 -6.42C-112.589 -6.42 -111.945 -6.26133 -111.385 -5.944C-110.816 -5.62667 -110.373 -5.188 -110.055 -4.628C-109.729 -4.068 -109.565 -3.41933 -109.565 -2.682C-109.565 -1.954 -109.729 -1.30533 -110.055 -0.736C-110.373 -0.176 -110.816 0.267333 -111.385 0.594C-111.955 0.911333 -112.599 1.07 -113.317 1.07ZM-113.317 0.188C-112.785 0.188 -112.314 0.0713333 -111.903 -0.162C-111.493 -0.404667 -111.171 -0.740667 -110.937 -1.17C-110.695 -1.60867 -110.573 -2.11267 -110.573 -2.682C-110.573 -3.26067 -110.695 -3.76467 -110.937 -4.194C-111.171 -4.62333 -111.493 -4.95467 -111.903 -5.188C-112.314 -5.43067 -112.781 -5.552 -113.303 -5.552C-113.826 -5.552 -114.293 -5.43067 -114.703 -5.188C-115.114 -4.95467 -115.441 -4.62333 -115.683 -4.194C-115.926 -3.76467 -116.047 -3.26067 -116.047 -2.682C-116.047 -2.11267 -115.926 -1.60867 -115.683 -1.17C-115.441 -0.740667 -115.114 -0.404667 -114.703 -0.162C-114.293 0.0713333 -113.831 0.188 -113.317 0.188ZM-103.784 -6.42C-103.187 -6.42 -102.664 -6.30333 -102.216 -6.07C-101.759 -5.846 -101.404 -5.50067 -101.152 -5.034C-100.891 -4.56733 -100.76 -3.97933 -100.76 -3.27V1H-101.754V-3.172C-101.754 -3.94667 -101.95 -4.53 -102.342 -4.922C-102.725 -5.32333 -103.266 -5.524 -103.966 -5.524C-104.489 -5.524 -104.946 -5.41667 -105.338 -5.202C-105.721 -4.99667 -106.019 -4.69333 -106.234 -4.292C-106.439 -3.9 -106.542 -3.424 -106.542 -2.864V1H-107.536V-9.388H-106.542V-4.334L-106.738 -4.712C-106.505 -5.244 -106.131 -5.65933 -105.618 -5.958C-105.105 -6.266 -104.493 -6.42 -103.784 -6.42ZM-95.0369 1.07C-95.6623 1.07 -96.2083 0.953333 -96.6749 0.72C-97.1416 0.486667 -97.5056 0.136667 -97.7669 -0.33C-98.0189 -0.796667 -98.1449 -1.38 -98.1449 -2.08V-6.35H-97.1509V-2.192C-97.1509 -1.408 -96.9596 -0.815333 -96.5769 -0.414C-96.1849 -0.0220001 -95.6389 0.174 -94.9389 0.174C-94.4256 0.174 -93.9823 0.0713333 -93.6089 -0.134C-93.2263 -0.348667 -92.9369 -0.656667 -92.7409 -1.058C-92.5356 -1.45933 -92.4329 -1.94 -92.4329 -2.5V-6.35H-91.4389V1H-92.3909V-1.016L-92.2369 -0.652C-92.4703 -0.110667 -92.8343 0.314 -93.3289 0.622C-93.8143 0.920667 -94.3836 1.07 -95.0369 1.07ZM-84.8747 1.07C-85.5187 1.07 -86.0974 0.925333 -86.6107 0.636C-87.124 0.337333 -87.53 -0.0920001 -87.8287 -0.652C-88.1274 -1.212 -88.2767 -1.88867 -88.2767 -2.682C-88.2767 -3.48467 -88.1274 -4.16133 -87.8287 -4.712C-87.5207 -5.272 -87.11 -5.69667 -86.5967 -5.986C-86.0834 -6.27533 -85.5094 -6.42 -84.8747 -6.42C-84.1747 -6.42 -83.5494 -6.26133 -82.9987 -5.944C-82.4387 -5.636 -82 -5.202 -81.6827 -4.642C-81.3654 -4.082 -81.2067 -3.42867 -81.2067 -2.682C-81.2067 -1.94467 -81.3654 -1.29133 -81.6827 -0.722C-82 -0.162 -82.4387 0.276667 -82.9987 0.594C-83.5494 0.911333 -84.1747 1.07 -84.8747 1.07ZM-88.6687 1V-9.388H-87.6747V-4.18L-87.8147 -2.696L-87.7167 -1.212V1H-88.6687ZM-84.9447 0.188C-84.422 0.188 -83.9554 0.0713333 -83.5447 -0.162C-83.134 -0.404667 -82.8074 -0.740667 -82.5647 -1.17C-82.322 -1.60867 -82.2007 -2.11267 -82.2007 -2.682C-82.2007 -3.26067 -82.322 -3.76467 -82.5647 -4.194C-82.8074 -4.62333 -83.134 -4.95467 -83.5447 -5.188C-83.9554 -5.43067 -84.422 -5.552 -84.9447 -5.552C-85.4674 -5.552 -85.9387 -5.43067 -86.3587 -5.188C-86.7694 -4.95467 -87.096 -4.62333 -87.3387 -4.194C-87.572 -3.76467 -87.6887 -3.26067 -87.6887 -2.682C-87.6887 -2.11267 -87.572 -1.60867 -87.3387 -1.17C-87.096 -0.740667 -86.7694 -0.404667 -86.3587 -0.162C-85.9387 0.0713333 -85.4674 0.188 -84.9447 0.188ZM-79.2875 1.07C-79.4928 1.07 -79.6702 0.995333 -79.8195 0.846C-79.9595 0.696667 -80.0295 0.514667 -80.0295 0.3C-80.0295 0.076 -79.9595 -0.106 -79.8195 -0.246C-79.6702 -0.386 -79.4928 -0.456 -79.2875 -0.456C-79.0822 -0.456 -78.9095 -0.386 -78.7695 -0.246C-78.6202 -0.106 -78.5455 0.076 -78.5455 0.3C-78.5455 0.514667 -78.6202 0.696667 -78.7695 0.846C-78.9095 0.995333 -79.0822 1.07 -79.2875 1.07ZM-73.4878 3.786C-74.1598 3.786 -74.8038 3.688 -75.4198 3.492C-76.0358 3.296 -76.5351 3.016 -76.9178 2.652L-76.4138 1.896C-76.0684 2.204 -75.6438 2.44667 -75.1398 2.624C-74.6264 2.81067 -74.0851 2.904 -73.5158 2.904C-72.5824 2.904 -71.8964 2.68467 -71.4578 2.246C-71.0191 1.81667 -70.7998 1.14467 -70.7998 0.23V-1.604L-70.6598 -2.864L-70.7578 -4.124V-6.35H-69.8058V0.104C-69.8058 1.37333 -70.1184 2.302 -70.7438 2.89C-71.3598 3.48733 -72.2744 3.786 -73.4878 3.786ZM-73.6698 0.72C-74.3698 0.72 -74.9998 0.570667 -75.5598 0.272C-76.1198 -0.036 -76.5631 -0.460667 -76.8898 -1.002C-77.2071 -1.54333 -77.3658 -2.164 -77.3658 -2.864C-77.3658 -3.564 -77.2071 -4.18 -76.8898 -4.712C-76.5631 -5.25333 -76.1198 -5.67333 -75.5598 -5.972C-74.9998 -6.27067 -74.3698 -6.42 -73.6698 -6.42C-73.0164 -6.42 -72.4284 -6.28467 -71.9058 -6.014C-71.3831 -5.74333 -70.9678 -5.342 -70.6598 -4.81C-70.3518 -4.278 -70.1978 -3.62933 -70.1978 -2.864C-70.1978 -2.09867 -70.3518 -1.45 -70.6598 -0.918C-70.9678 -0.386 -71.3831 0.0199999 -71.9058 0.3C-72.4284 0.58 -73.0164 0.72 -73.6698 0.72ZM-73.5718 -0.162C-73.0304 -0.162 -72.5498 -0.274 -72.1298 -0.498C-71.7098 -0.731333 -71.3784 -1.04867 -71.1358 -1.45C-70.8931 -1.86067 -70.7718 -2.332 -70.7718 -2.864C-70.7718 -3.396 -70.8931 -3.86267 -71.1358 -4.264C-71.3784 -4.66533 -71.7098 -4.978 -72.1298 -5.202C-72.5498 -5.43533 -73.0304 -5.552 -73.5718 -5.552C-74.1038 -5.552 -74.5844 -5.43533 -75.0138 -5.202C-75.4338 -4.978 -75.7651 -4.66533 -76.0078 -4.264C-76.2411 -3.86267 -76.3578 -3.396 -76.3578 -2.864C-76.3578 -2.332 -76.2411 -1.86067 -76.0078 -1.45C-75.7651 -1.04867 -75.4338 -0.731333 -75.0138 -0.498C-74.5844 -0.274 -74.1038 -0.162 -73.5718 -0.162ZM-64.0438 1.07C-64.7531 1.07 -65.3924 0.911333 -65.9618 0.594C-66.5218 0.267333 -66.9651 -0.176 -67.2918 -0.736C-67.6184 -1.30533 -67.7818 -1.954 -67.7818 -2.682C-67.7818 -3.41933 -67.6184 -4.068 -67.2918 -4.628C-66.9651 -5.188 -66.5218 -5.62667 -65.9618 -5.944C-65.4018 -6.26133 -64.7624 -6.42 -64.0438 -6.42C-63.3158 -6.42 -62.6718 -6.26133 -62.1118 -5.944C-61.5424 -5.62667 -61.0991 -5.188 -60.7818 -4.628C-60.4551 -4.068 -60.2918 -3.41933 -60.2918 -2.682C-60.2918 -1.954 -60.4551 -1.30533 -60.7818 -0.736C-61.0991 -0.176 -61.5424 0.267333 -62.1118 0.594C-62.6811 0.911333 -63.3251 1.07 -64.0438 1.07ZM-64.0438 0.188C-63.5118 0.188 -63.0404 0.0713333 -62.6298 -0.162C-62.2191 -0.404667 -61.8971 -0.740667 -61.6638 -1.17C-61.4211 -1.60867 -61.2998 -2.11267 -61.2998 -2.682C-61.2998 -3.26067 -61.4211 -3.76467 -61.6638 -4.194C-61.8971 -4.62333 -62.2191 -4.95467 -62.6298 -5.188C-63.0404 -5.43067 -63.5071 -5.552 -64.0298 -5.552C-64.5524 -5.552 -65.0191 -5.43067 -65.4298 -5.188C-65.8404 -4.95467 -66.1671 -4.62333 -66.4098 -4.194C-66.6524 -3.76467 -66.7738 -3.26067 -66.7738 -2.682C-66.7738 -2.11267 -66.6524 -1.60867 -66.4098 -1.17C-66.1671 -0.740667 -65.8404 -0.404667 -65.4298 -0.162C-65.0191 0.0713333 -64.5571 0.188 -64.0438 0.188ZM-58.2624 1V-6.35H-57.2684V1H-58.2624ZM-57.7584 -7.974C-57.9638 -7.974 -58.1364 -8.044 -58.2764 -8.184C-58.4164 -8.324 -58.4864 -8.492 -58.4864 -8.688C-58.4864 -8.884 -58.4164 -9.04733 -58.2764 -9.178C-58.1364 -9.318 -57.9638 -9.388 -57.7584 -9.388C-57.5531 -9.388 -57.3804 -9.32267 -57.2404 -9.192C-57.1004 -9.06133 -57.0304 -8.898 -57.0304 -8.702C-57.0304 -8.49667 -57.1004 -8.324 -57.2404 -8.184C-57.3711 -8.044 -57.5438 -7.974 -57.7584 -7.974ZM-52.1787 1.07C-52.8693 1.07 -53.4013 0.883333 -53.7747 0.51C-54.148 0.136667 -54.3347 -0.390667 -54.3347 -1.072V-7.974H-53.3407V-1.128C-53.3407 -0.698667 -53.2333 -0.367333 -53.0187 -0.134C-52.7947 0.0993333 -52.4773 0.216 -52.0667 0.216C-51.628 0.216 -51.264 0.09 -50.9747 -0.162L-50.6247 0.552C-50.8207 0.729333 -51.0587 0.86 -51.3387 0.944C-51.6093 1.028 -51.8893 1.07 -52.1787 1.07ZM-55.6507 -5.524V-6.35H-51.1007V-5.524H-55.6507ZM-48.5805 1.07C-48.7858 1.07 -48.9631 0.995333 -49.1125 0.846C-49.2525 0.696667 -49.3225 0.514667 -49.3225 0.3C-49.3225 0.076 -49.2525 -0.106 -49.1125 -0.246C-48.9631 -0.386 -48.7858 -0.456 -48.5805 -0.456C-48.3751 -0.456 -48.2025 -0.386 -48.0625 -0.246C-47.9131 -0.106 -47.8385 0.076 -47.8385 0.3C-47.8385 0.514667 -47.9131 0.696667 -48.0625 0.846C-48.2025 0.995333 -48.3751 1.07 -48.5805 1.07ZM-42.7807 3.786C-43.4527 3.786 -44.0967 3.688 -44.7127 3.492C-45.3287 3.296 -45.8281 3.016 -46.2107 2.652L-45.7067 1.896C-45.3614 2.204 -44.9367 2.44667 -44.4327 2.624C-43.9194 2.81067 -43.3781 2.904 -42.8087 2.904C-41.8754 2.904 -41.1894 2.68467 -40.7507 2.246C-40.3121 1.81667 -40.0927 1.14467 -40.0927 0.23V-1.604L-39.9527 -2.864L-40.0507 -4.124V-6.35H-39.0987V0.104C-39.0987 1.37333 -39.4114 2.302 -40.0367 2.89C-40.6527 3.48733 -41.5674 3.786 -42.7807 3.786ZM-42.9627 0.72C-43.6627 0.72 -44.2927 0.570667 -44.8527 0.272C-45.4127 -0.036 -45.8561 -0.460667 -46.1827 -1.002C-46.5001 -1.54333 -46.6587 -2.164 -46.6587 -2.864C-46.6587 -3.564 -46.5001 -4.18 -46.1827 -4.712C-45.8561 -5.25333 -45.4127 -5.67333 -44.8527 -5.972C-44.2927 -6.27067 -43.6627 -6.42 -42.9627 -6.42C-42.3094 -6.42 -41.7214 -6.28467 -41.1987 -6.014C-40.6761 -5.74333 -40.2607 -5.342 -39.9527 -4.81C-39.6447 -4.278 -39.4907 -3.62933 -39.4907 -2.864C-39.4907 -2.09867 -39.6447 -1.45 -39.9527 -0.918C-40.2607 -0.386 -40.6761 0.0199999 -41.1987 0.3C-41.7214 0.58 -42.3094 0.72 -42.9627 0.72ZM-42.8647 -0.162C-42.3234 -0.162 -41.8427 -0.274 -41.4227 -0.498C-41.0027 -0.731333 -40.6714 -1.04867 -40.4287 -1.45C-40.1861 -1.86067 -40.0647 -2.332 -40.0647 -2.864C-40.0647 -3.396 -40.1861 -3.86267 -40.4287 -4.264C-40.6714 -4.66533 -41.0027 -4.978 -41.4227 -5.202C-41.8427 -5.43533 -42.3234 -5.552 -42.8647 -5.552C-43.3967 -5.552 -43.8774 -5.43533 -44.3067 -5.202C-44.7267 -4.978 -45.0581 -4.66533 -45.3007 -4.264C-45.5341 -3.86267 -45.6507 -3.396 -45.6507 -2.864C-45.6507 -2.332 -45.5341 -1.86067 -45.3007 -1.45C-45.0581 -1.04867 -44.7267 -0.731333 -44.3067 -0.498C-43.8774 -0.274 -43.3967 -0.162 -42.8647 -0.162ZM-36.3327 1V-9.388H-35.3387V1H-36.3327ZM-29.577 1.07C-30.2863 1.07 -30.9257 0.911333 -31.495 0.594C-32.055 0.267333 -32.4983 -0.176 -32.825 -0.736C-33.1517 -1.30533 -33.315 -1.954 -33.315 -2.682C-33.315 -3.41933 -33.1517 -4.068 -32.825 -4.628C-32.4983 -5.188 -32.055 -5.62667 -31.495 -5.944C-30.935 -6.26133 -30.2957 -6.42 -29.577 -6.42C-28.849 -6.42 -28.205 -6.26133 -27.645 -5.944C-27.0757 -5.62667 -26.6323 -5.188 -26.315 -4.628C-25.9883 -4.068 -25.825 -3.41933 -25.825 -2.682C-25.825 -1.954 -25.9883 -1.30533 -26.315 -0.736C-26.6323 -0.176 -27.0757 0.267333 -27.645 0.594C-28.2143 0.911333 -28.8583 1.07 -29.577 1.07ZM-29.577 0.188C-29.045 0.188 -28.5737 0.0713333 -28.163 -0.162C-27.7523 -0.404667 -27.4303 -0.740667 -27.197 -1.17C-26.9543 -1.60867 -26.833 -2.11267 -26.833 -2.682C-26.833 -3.26067 -26.9543 -3.76467 -27.197 -4.194C-27.4303 -4.62333 -27.7523 -4.95467 -28.163 -5.188C-28.5737 -5.43067 -29.0403 -5.552 -29.563 -5.552C-30.0857 -5.552 -30.5523 -5.43067 -30.963 -5.188C-31.3737 -4.95467 -31.7003 -4.62333 -31.943 -4.194C-32.1857 -3.76467 -32.307 -3.26067 -32.307 -2.682C-32.307 -2.11267 -32.1857 -1.60867 -31.943 -1.17C-31.7003 -0.740667 -31.3737 -0.404667 -30.963 -0.162C-30.5523 0.0713333 -30.0903 0.188 -29.577 0.188ZM-20.0016 1.07C-20.6456 1.07 -21.2243 0.925333 -21.7376 0.636C-22.251 0.337333 -22.657 -0.0920001 -22.9556 -0.652C-23.2543 -1.212 -23.4036 -1.88867 -23.4036 -2.682C-23.4036 -3.48467 -23.2543 -4.16133 -22.9556 -4.712C-22.6476 -5.272 -22.237 -5.69667 -21.7236 -5.986C-21.2103 -6.27533 -20.6363 -6.42 -20.0016 -6.42C-19.3016 -6.42 -18.6763 -6.26133 -18.1256 -5.944C-17.5656 -5.636 -17.127 -5.202 -16.8096 -4.642C-16.4923 -4.082 -16.3336 -3.42867 -16.3336 -2.682C-16.3336 -1.94467 -16.4923 -1.29133 -16.8096 -0.722C-17.127 -0.162 -17.5656 0.276667 -18.1256 0.594C-18.6763 0.911333 -19.3016 1.07 -20.0016 1.07ZM-23.7956 1V-9.388H-22.8016V-4.18L-22.9416 -2.696L-22.8436 -1.212V1H-23.7956ZM-20.0716 0.188C-19.549 0.188 -19.0823 0.0713333 -18.6716 -0.162C-18.261 -0.404667 -17.9343 -0.740667 -17.6916 -1.17C-17.449 -1.60867 -17.3276 -2.11267 -17.3276 -2.682C-17.3276 -3.26067 -17.449 -3.76467 -17.6916 -4.194C-17.9343 -4.62333 -18.261 -4.95467 -18.6716 -5.188C-19.0823 -5.43067 -19.549 -5.552 -20.0716 -5.552C-20.5943 -5.552 -21.0656 -5.43067 -21.4856 -5.188C-21.8963 -4.95467 -22.223 -4.62333 -22.4656 -4.194C-22.699 -3.76467 -22.8156 -3.26067 -22.8156 -2.682C-22.8156 -2.11267 -22.699 -1.60867 -22.4656 -1.17C-22.223 -0.740667 -21.8963 -0.404667 -21.4856 -0.162C-21.0656 0.0713333 -20.5943 0.188 -20.0716 0.188ZM-9.74237 1V-0.624L-9.78437 -0.89V-3.606C-9.78437 -4.23133 -9.96171 -4.712 -10.3164 -5.048C-10.6617 -5.384 -11.1797 -5.552 -11.8704 -5.552C-12.3464 -5.552 -12.799 -5.47267 -13.2284 -5.314C-13.6577 -5.15533 -14.0217 -4.94533 -14.3204 -4.684L-14.7684 -5.426C-14.395 -5.74333 -13.947 -5.986 -13.4244 -6.154C-12.9017 -6.33133 -12.351 -6.42 -11.7724 -6.42C-10.8204 -6.42 -10.0877 -6.182 -9.57437 -5.706C-9.05171 -5.23933 -8.79037 -4.52533 -8.79037 -3.564V1H-9.74237ZM-12.2764 1.07C-12.827 1.07 -13.3077 0.981333 -13.7184 0.804C-14.1197 0.617333 -14.4277 0.365333 -14.6424 0.0479999C-14.857 -0.278667 -14.9644 -0.652 -14.9644 -1.072C-14.9644 -1.45467 -14.8757 -1.8 -14.6984 -2.108C-14.5117 -2.42533 -14.213 -2.67733 -13.8024 -2.864C-13.3824 -3.06 -12.8224 -3.158 -12.1224 -3.158H-9.58837V-2.416H-12.0944C-12.8037 -2.416 -13.2984 -2.29 -13.5784 -2.038C-13.849 -1.786 -13.9844 -1.47333 -13.9844 -1.1C-13.9844 -0.68 -13.821 -0.344 -13.4944 -0.092C-13.1677 0.16 -12.7104 0.286 -12.1224 0.286C-11.5624 0.286 -11.0817 0.16 -10.6804 -0.092C-10.2697 -0.353333 -9.97104 -0.726667 -9.78437 -1.212L-9.56037 -0.526C-9.74704 -0.0406667 -10.0737 0.346667 -10.5404 0.636C-10.9977 0.925333 -11.5764 1.07 -12.2764 1.07ZM-6.09056 1V-9.388H-5.09656V1H-6.09056ZM-4.0668 2.4L0.553203 -10.788H1.4632L-3.1568 2.4H-4.0668ZM-196.862 17.58C-196.265 17.58 -195.742 17.6967 -195.294 17.93C-194.837 18.154 -194.482 18.4993 -194.23 18.966C-193.969 19.4327 -193.838 20.0207 -193.838 20.73V25H-194.832V20.828C-194.832 20.0533 -195.028 19.47 -195.42 19.078C-195.803 18.6767 -196.344 18.476 -197.044 18.476C-197.567 18.476 -198.024 18.5833 -198.416 18.798C-198.799 19.0033 -199.097 19.3067 -199.312 19.708C-199.517 20.1 -199.62 20.576 -199.62 21.136V25H-200.614V14.612H-199.62V19.666L-199.816 19.288C-199.583 18.756 -199.209 18.3407 -198.696 18.042C-198.183 17.734 -197.571 17.58 -196.862 17.58ZM-188.829 25.07C-189.52 25.07 -190.052 24.8833 -190.425 24.51C-190.798 24.1367 -190.985 23.6093 -190.985 22.928V16.026H-189.991V22.872C-189.991 23.3013 -189.884 23.6327 -189.669 23.866C-189.445 24.0993 -189.128 24.216 -188.717 24.216C-188.278 24.216 -187.914 24.09 -187.625 23.838L-187.275 24.552C-187.471 24.7293 -187.709 24.86 -187.989 24.944C-188.26 25.028 -188.54 25.07 -188.829 25.07ZM-192.301 18.476V17.65H-187.751V18.476H-192.301ZM-183.333 25.07C-184.024 25.07 -184.556 24.8833 -184.929 24.51C-185.302 24.1367 -185.489 23.6093 -185.489 22.928V16.026H-184.495V22.872C-184.495 23.3013 -184.388 23.6327 -184.173 23.866C-183.949 24.0993 -183.632 24.216 -183.221 24.216C-182.782 24.216 -182.418 24.09 -182.129 23.838L-181.779 24.552C-181.975 24.7293 -182.213 24.86 -182.493 24.944C-182.764 25.028 -183.044 25.07 -183.333 25.07ZM-186.805 18.476V17.65H-182.255V18.476H-186.805ZM-176.175 25.07C-176.81 25.07 -177.384 24.9253 -177.897 24.636C-178.411 24.3373 -178.821 23.9127 -179.129 23.362C-179.428 22.802 -179.577 22.1207 -179.577 21.318C-179.577 20.5153 -179.428 19.8387 -179.129 19.288C-178.831 18.728 -178.425 18.3033 -177.911 18.014C-177.398 17.7247 -176.819 17.58 -176.175 17.58C-175.475 17.58 -174.85 17.7387 -174.299 18.056C-173.739 18.364 -173.301 18.8027 -172.983 19.372C-172.666 19.932 -172.507 20.5807 -172.507 21.318C-172.507 22.0647 -172.666 22.718 -172.983 23.278C-173.301 23.838 -173.739 24.2767 -174.299 24.594C-174.85 24.9113 -175.475 25.07 -176.175 25.07ZM-179.969 27.716V17.65H-179.017V19.862L-179.115 21.332L-178.975 22.816V27.716H-179.969ZM-176.245 24.188C-175.723 24.188 -175.256 24.0713 -174.845 23.838C-174.435 23.5953 -174.108 23.2593 -173.865 22.83C-173.623 22.3913 -173.501 21.8873 -173.501 21.318C-173.501 20.7487 -173.623 20.2493 -173.865 19.82C-174.108 19.3907 -174.435 19.0547 -174.845 18.812C-175.256 18.5693 -175.723 18.448 -176.245 18.448C-176.768 18.448 -177.239 18.5693 -177.659 18.812C-178.07 19.0547 -178.397 19.3907 -178.639 19.82C-178.873 20.2493 -178.989 20.7487 -178.989 21.318C-178.989 21.8873 -178.873 22.3913 -178.639 22.83C-178.397 23.2593 -178.07 23.5953 -177.659 23.838C-177.239 24.0713 -176.768 24.188 -176.245 24.188ZM-168.507 25.07C-169.114 25.07 -169.688 24.986 -170.229 24.818C-170.771 24.6407 -171.195 24.4213 -171.503 24.16L-171.055 23.376C-170.757 23.6 -170.374 23.796 -169.907 23.964C-169.441 24.1227 -168.951 24.202 -168.437 24.202C-167.737 24.202 -167.233 24.0947 -166.925 23.88C-166.617 23.656 -166.463 23.362 -166.463 22.998C-166.463 22.7273 -166.552 22.5173 -166.729 22.368C-166.897 22.2093 -167.121 22.0927 -167.401 22.018C-167.681 21.934 -167.994 21.864 -168.339 21.808C-168.685 21.752 -169.03 21.6867 -169.375 21.612C-169.711 21.5373 -170.019 21.43 -170.299 21.29C-170.579 21.1407 -170.808 20.94 -170.985 20.688C-171.153 20.436 -171.237 20.1 -171.237 19.68C-171.237 19.2787 -171.125 18.9193 -170.901 18.602C-170.677 18.2847 -170.351 18.0373 -169.921 17.86C-169.483 17.6733 -168.951 17.58 -168.325 17.58C-167.849 17.58 -167.373 17.6453 -166.897 17.776C-166.421 17.8973 -166.029 18.0607 -165.721 18.266L-166.155 19.064C-166.482 18.84 -166.832 18.6813 -167.205 18.588C-167.579 18.4853 -167.952 18.434 -168.325 18.434C-168.988 18.434 -169.478 18.5507 -169.795 18.784C-170.103 19.008 -170.257 19.2973 -170.257 19.652C-170.257 19.932 -170.173 20.1513 -170.005 20.31C-169.828 20.4687 -169.599 20.5947 -169.319 20.688C-169.03 20.772 -168.717 20.842 -168.381 20.898C-168.036 20.954 -167.695 21.024 -167.359 21.108C-167.014 21.1827 -166.701 21.29 -166.421 21.43C-166.132 21.5607 -165.903 21.752 -165.735 22.004C-165.558 22.2467 -165.469 22.5687 -165.469 22.97C-165.469 23.3993 -165.591 23.7727 -165.833 24.09C-166.067 24.398 -166.412 24.6407 -166.869 24.818C-167.317 24.986 -167.863 25.07 -168.507 25.07ZM-163.547 19.106C-163.753 19.106 -163.93 19.0313 -164.079 18.882C-164.219 18.7327 -164.289 18.5507 -164.289 18.336C-164.289 18.112 -164.219 17.93 -164.079 17.79C-163.93 17.65 -163.753 17.58 -163.547 17.58C-163.342 17.58 -163.169 17.65 -163.029 17.79C-162.88 17.93 -162.805 18.112 -162.805 18.336C-162.805 18.5507 -162.88 18.7327 -163.029 18.882C-163.169 19.0313 -163.342 19.106 -163.547 19.106ZM-163.547 25.07C-163.753 25.07 -163.93 24.9953 -164.079 24.846C-164.219 24.6967 -164.289 24.5147 -164.289 24.3C-164.289 24.076 -164.219 23.894 -164.079 23.754C-163.93 23.614 -163.753 23.544 -163.547 23.544C-163.342 23.544 -163.169 23.614 -163.029 23.754C-162.88 23.894 -162.805 24.076 -162.805 24.3C-162.805 24.5147 -162.88 24.6967 -163.029 24.846C-163.169 24.9953 -163.342 25.07 -163.547 25.07ZM-161.786 26.4L-157.166 13.212H-156.256L-160.876 26.4H-161.786ZM-157.998 26.4L-153.378 13.212H-152.468L-157.088 26.4H-157.998ZM-150.789 23.096L-150.761 21.822L-146.183 17.65H-144.965L-148.199 20.744L-148.759 21.22L-150.789 23.096ZM-151.573 25V14.612H-150.579V25H-151.573ZM-145.875 25L-148.941 21.178L-148.297 20.408L-144.657 25H-145.875ZM-143.165 25V17.65H-142.171V25H-143.165ZM-142.661 16.026C-142.866 16.026 -143.039 15.956 -143.179 15.816C-143.319 15.676 -143.389 15.508 -143.389 15.312C-143.389 15.116 -143.319 14.9527 -143.179 14.822C-143.039 14.682 -142.866 14.612 -142.661 14.612C-142.455 14.612 -142.283 14.6773 -142.143 14.808C-142.003 14.9387 -141.933 15.102 -141.933 15.298C-141.933 15.5033 -142.003 15.676 -142.143 15.816C-142.273 15.956 -142.446 16.026 -142.661 16.026ZM-136.479 25.07C-137.179 25.07 -137.809 24.9113 -138.369 24.594C-138.92 24.2767 -139.354 23.838 -139.671 23.278C-139.988 22.7087 -140.147 22.0553 -140.147 21.318C-140.147 20.5713 -139.988 19.918 -139.671 19.358C-139.354 18.798 -138.92 18.364 -138.369 18.056C-137.809 17.7387 -137.179 17.58 -136.479 17.58C-135.835 17.58 -135.261 17.7247 -134.757 18.014C-134.244 18.3033 -133.838 18.728 -133.539 19.288C-133.231 19.8387 -133.077 20.5153 -133.077 21.318C-133.077 22.1113 -133.226 22.788 -133.525 23.348C-133.824 23.908 -134.23 24.3373 -134.743 24.636C-135.247 24.9253 -135.826 25.07 -136.479 25.07ZM-136.409 24.188C-135.886 24.188 -135.42 24.0713 -135.009 23.838C-134.589 23.5953 -134.262 23.2593 -134.029 22.83C-133.786 22.3913 -133.665 21.8873 -133.665 21.318C-133.665 20.7393 -133.786 20.2353 -134.029 19.806C-134.262 19.3767 -134.589 19.0453 -135.009 18.812C-135.42 18.5693 -135.886 18.448 -136.409 18.448C-136.922 18.448 -137.384 18.5693 -137.795 18.812C-138.206 19.0453 -138.532 19.3767 -138.775 19.806C-139.018 20.2353 -139.139 20.7393 -139.139 21.318C-139.139 21.8873 -139.018 22.3913 -138.775 22.83C-138.532 23.2593 -138.206 23.5953 -137.795 23.838C-137.384 24.0713 -136.922 24.188 -136.409 24.188ZM-133.637 25V22.788L-133.539 21.304L-133.679 19.82V14.612H-132.685V25H-133.637ZM-127.943 25.07C-128.549 25.07 -129.123 24.986 -129.665 24.818C-130.206 24.6407 -130.631 24.4213 -130.939 24.16L-130.491 23.376C-130.192 23.6 -129.809 23.796 -129.343 23.964C-128.876 24.1227 -128.386 24.202 -127.873 24.202C-127.173 24.202 -126.669 24.0947 -126.361 23.88C-126.053 23.656 -125.899 23.362 -125.899 22.998C-125.899 22.7273 -125.987 22.5173 -126.165 22.368C-126.333 22.2093 -126.557 22.0927 -126.837 22.018C-127.117 21.934 -127.429 21.864 -127.775 21.808C-128.12 21.752 -128.465 21.6867 -128.811 21.612C-129.147 21.5373 -129.455 21.43 -129.735 21.29C-130.015 21.1407 -130.243 20.94 -130.421 20.688C-130.589 20.436 -130.673 20.1 -130.673 19.68C-130.673 19.2787 -130.561 18.9193 -130.337 18.602C-130.113 18.2847 -129.786 18.0373 -129.357 17.86C-128.918 17.6733 -128.386 17.58 -127.761 17.58C-127.285 17.58 -126.809 17.6453 -126.333 17.776C-125.857 17.8973 -125.465 18.0607 -125.157 18.266L-125.591 19.064C-125.917 18.84 -126.267 18.6813 -126.641 18.588C-127.014 18.4853 -127.387 18.434 -127.761 18.434C-128.423 18.434 -128.913 18.5507 -129.231 18.784C-129.539 19.008 -129.693 19.2973 -129.693 19.652C-129.693 19.932 -129.609 20.1513 -129.441 20.31C-129.263 20.4687 -129.035 20.5947 -128.755 20.688C-128.465 20.772 -128.153 20.842 -127.817 20.898C-127.471 20.954 -127.131 21.024 -126.795 21.108C-126.449 21.1827 -126.137 21.29 -125.857 21.43C-125.567 21.5607 -125.339 21.752 -125.171 22.004C-124.993 22.2467 -124.905 22.5687 -124.905 22.97C-124.905 23.3993 -125.026 23.7727 -125.269 24.09C-125.502 24.398 -125.847 24.6407 -126.305 24.818C-126.753 24.986 -127.299 25.07 -127.943 25.07ZM-123.081 25V14.612H-122.087V25H-123.081ZM-119.321 25V17.65H-118.327V25H-119.321ZM-118.817 16.026C-119.022 16.026 -119.195 15.956 -119.335 15.816C-119.475 15.676 -119.545 15.508 -119.545 15.312C-119.545 15.116 -119.475 14.9527 -119.335 14.822C-119.195 14.682 -119.022 14.612 -118.817 14.612C-118.612 14.612 -118.439 14.6773 -118.299 14.808C-118.159 14.9387 -118.089 15.102 -118.089 15.298C-118.089 15.5033 -118.159 15.676 -118.299 15.816C-118.43 15.956 -118.602 16.026 -118.817 16.026ZM-114.777 23.096L-114.749 21.822L-110.171 17.65H-108.953L-112.187 20.744L-112.747 21.22L-114.777 23.096ZM-115.561 25V14.612H-114.567V25H-115.561ZM-109.863 25L-112.929 21.178L-112.285 20.408L-108.645 25H-109.863ZM-104.318 25.07C-105.084 25.07 -105.756 24.9113 -106.334 24.594C-106.913 24.2673 -107.366 23.824 -107.692 23.264C-108.019 22.6947 -108.182 22.046 -108.182 21.318C-108.182 20.59 -108.028 19.946 -107.72 19.386C-107.403 18.826 -106.974 18.3873 -106.432 18.07C-105.882 17.7433 -105.266 17.58 -104.584 17.58C-103.894 17.58 -103.282 17.7387 -102.75 18.056C-102.209 18.364 -101.784 18.8027 -101.476 19.372C-101.168 19.932 -101.014 20.5807 -101.014 21.318C-101.014 21.3647 -101.019 21.416 -101.028 21.472C-101.028 21.5187 -101.028 21.57 -101.028 21.626H-107.426V20.884H-101.56L-101.952 21.178C-101.952 20.646 -102.069 20.1747 -102.302 19.764C-102.526 19.344 -102.834 19.0173 -103.226 18.784C-103.618 18.5507 -104.071 18.434 -104.584 18.434C-105.088 18.434 -105.541 18.5507 -105.942 18.784C-106.344 19.0173 -106.656 19.344 -106.88 19.764C-107.104 20.184 -107.216 20.6647 -107.216 21.206V21.36C-107.216 21.92 -107.095 22.4147 -106.852 22.844C-106.6 23.264 -106.255 23.5953 -105.816 23.838C-105.368 24.0713 -104.86 24.188 -104.29 24.188C-103.842 24.188 -103.427 24.1087 -103.044 23.95C-102.652 23.7913 -102.316 23.5487 -102.036 23.222L-101.476 23.866C-101.803 24.258 -102.214 24.5567 -102.708 24.762C-103.194 24.9673 -103.73 25.07 -104.318 25.07ZM-98.893 25.07C-99.0983 25.07 -99.2756 24.9953 -99.425 24.846C-99.565 24.6967 -99.635 24.5147 -99.635 24.3C-99.635 24.076 -99.565 23.894 -99.425 23.754C-99.2756 23.614 -99.0983 23.544 -98.893 23.544C-98.6876 23.544 -98.515 23.614 -98.375 23.754C-98.2256 23.894 -98.151 24.076 -98.151 24.3C-98.151 24.5147 -98.2256 24.6967 -98.375 24.846C-98.515 24.9953 -98.6876 25.07 -98.893 25.07ZM-93.0932 27.786C-93.7652 27.786 -94.4092 27.688 -95.0252 27.492C-95.6412 27.296 -96.1406 27.016 -96.5232 26.652L-96.0192 25.896C-95.6739 26.204 -95.2492 26.4467 -94.7452 26.624C-94.2319 26.8107 -93.6906 26.904 -93.1212 26.904C-92.1879 26.904 -91.5019 26.6847 -91.0632 26.246C-90.6246 25.8167 -90.4052 25.1447 -90.4052 24.23V22.396L-90.2652 21.136L-90.3632 19.876V17.65H-89.4112V24.104C-89.4112 25.3733 -89.7239 26.302 -90.3492 26.89C-90.9652 27.4873 -91.8799 27.786 -93.0932 27.786ZM-93.2752 24.72C-93.9752 24.72 -94.6052 24.5707 -95.1652 24.272C-95.7252 23.964 -96.1686 23.5393 -96.4952 22.998C-96.8126 22.4567 -96.9712 21.836 -96.9712 21.136C-96.9712 20.436 -96.8126 19.82 -96.4952 19.288C-96.1686 18.7467 -95.7252 18.3267 -95.1652 18.028C-94.6052 17.7293 -93.9752 17.58 -93.2752 17.58C-92.6219 17.58 -92.0339 17.7153 -91.5112 17.986C-90.9886 18.2567 -90.5732 18.658 -90.2652 19.19C-89.9572 19.722 -89.8032 20.3707 -89.8032 21.136C-89.8032 21.9013 -89.9572 22.55 -90.2652 23.082C-90.5732 23.614 -90.9886 24.02 -91.5112 24.3C-92.0339 24.58 -92.6219 24.72 -93.2752 24.72ZM-93.1772 23.838C-92.6359 23.838 -92.1552 23.726 -91.7352 23.502C-91.3152 23.2687 -90.9839 22.9513 -90.7412 22.55C-90.4986 22.1393 -90.3772 21.668 -90.3772 21.136C-90.3772 20.604 -90.4986 20.1373 -90.7412 19.736C-90.9839 19.3347 -91.3152 19.022 -91.7352 18.798C-92.1552 18.5647 -92.6359 18.448 -93.1772 18.448C-93.7092 18.448 -94.1899 18.5647 -94.6192 18.798C-95.0392 19.022 -95.3706 19.3347 -95.6132 19.736C-95.8466 20.1373 -95.9632 20.604 -95.9632 21.136C-95.9632 21.668 -95.8466 22.1393 -95.6132 22.55C-95.3706 22.9513 -95.0392 23.2687 -94.6192 23.502C-94.1899 23.726 -93.7092 23.838 -93.1772 23.838ZM-83.6492 25.07C-84.3586 25.07 -84.9979 24.9113 -85.5672 24.594C-86.1272 24.2673 -86.5706 23.824 -86.8972 23.264C-87.2239 22.6947 -87.3872 22.046 -87.3872 21.318C-87.3872 20.5807 -87.2239 19.932 -86.8972 19.372C-86.5706 18.812 -86.1272 18.3733 -85.5672 18.056C-85.0072 17.7387 -84.3679 17.58 -83.6492 17.58C-82.9212 17.58 -82.2772 17.7387 -81.7172 18.056C-81.1479 18.3733 -80.7046 18.812 -80.3872 19.372C-80.0606 19.932 -79.8972 20.5807 -79.8972 21.318C-79.8972 22.046 -80.0606 22.6947 -80.3872 23.264C-80.7046 23.824 -81.1479 24.2673 -81.7172 24.594C-82.2866 24.9113 -82.9306 25.07 -83.6492 25.07ZM-83.6492 24.188C-83.1172 24.188 -82.6459 24.0713 -82.2352 23.838C-81.8246 23.5953 -81.5026 23.2593 -81.2692 22.83C-81.0266 22.3913 -80.9052 21.8873 -80.9052 21.318C-80.9052 20.7393 -81.0266 20.2353 -81.2692 19.806C-81.5026 19.3767 -81.8246 19.0453 -82.2352 18.812C-82.6459 18.5693 -83.1126 18.448 -83.6352 18.448C-84.1579 18.448 -84.6246 18.5693 -85.0352 18.812C-85.4459 19.0453 -85.7726 19.3767 -86.0152 19.806C-86.2579 20.2353 -86.3792 20.7393 -86.3792 21.318C-86.3792 21.8873 -86.2579 22.3913 -86.0152 22.83C-85.7726 23.2593 -85.4459 23.5953 -85.0352 23.838C-84.6246 24.0713 -84.1626 24.188 -83.6492 24.188ZM-77.8679 25V17.65H-76.8739V25H-77.8679ZM-77.3639 16.026C-77.5692 16.026 -77.7419 15.956 -77.8819 15.816C-78.0219 15.676 -78.0919 15.508 -78.0919 15.312C-78.0919 15.116 -78.0219 14.9527 -77.8819 14.822C-77.7419 14.682 -77.5692 14.612 -77.3639 14.612C-77.1586 14.612 -76.9859 14.6773 -76.8459 14.808C-76.7059 14.9387 -76.6359 15.102 -76.6359 15.298C-76.6359 15.5033 -76.7059 15.676 -76.8459 15.816C-76.9766 15.956 -77.1492 16.026 -77.3639 16.026ZM-71.7841 25.07C-72.4748 25.07 -73.0068 24.8833 -73.3801 24.51C-73.7535 24.1367 -73.9401 23.6093 -73.9401 22.928V16.026H-72.9461V22.872C-72.9461 23.3013 -72.8388 23.6327 -72.6241 23.866C-72.4001 24.0993 -72.0828 24.216 -71.6721 24.216C-71.2335 24.216 -70.8695 24.09 -70.5801 23.838L-70.2301 24.552C-70.4261 24.7293 -70.6641 24.86 -70.9441 24.944C-71.2148 25.028 -71.4948 25.07 -71.7841 25.07ZM-75.2561 18.476V17.65H-70.7061V18.476H-75.2561ZM-68.1859 25.07C-68.3913 25.07 -68.5686 24.9953 -68.7179 24.846C-68.8579 24.6967 -68.9279 24.5147 -68.9279 24.3C-68.9279 24.076 -68.8579 23.894 -68.7179 23.754C-68.5686 23.614 -68.3913 23.544 -68.1859 23.544C-67.9806 23.544 -67.8079 23.614 -67.6679 23.754C-67.5186 23.894 -67.4439 24.076 -67.4439 24.3C-67.4439 24.5147 -67.5186 24.6967 -67.6679 24.846C-67.8079 24.9953 -67.9806 25.07 -68.1859 25.07ZM-62.3862 27.786C-63.0582 27.786 -63.7022 27.688 -64.3182 27.492C-64.9342 27.296 -65.4335 27.016 -65.8162 26.652L-65.3122 25.896C-64.9669 26.204 -64.5422 26.4467 -64.0382 26.624C-63.5249 26.8107 -62.9835 26.904 -62.4142 26.904C-61.4809 26.904 -60.7949 26.6847 -60.3562 26.246C-59.9175 25.8167 -59.6982 25.1447 -59.6982 24.23V22.396L-59.5582 21.136L-59.6562 19.876V17.65H-58.7042V24.104C-58.7042 25.3733 -59.0169 26.302 -59.6422 26.89C-60.2582 27.4873 -61.1729 27.786 -62.3862 27.786ZM-62.5682 24.72C-63.2682 24.72 -63.8982 24.5707 -64.4582 24.272C-65.0182 23.964 -65.4615 23.5393 -65.7882 22.998C-66.1055 22.4567 -66.2642 21.836 -66.2642 21.136C-66.2642 20.436 -66.1055 19.82 -65.7882 19.288C-65.4615 18.7467 -65.0182 18.3267 -64.4582 18.028C-63.8982 17.7293 -63.2682 17.58 -62.5682 17.58C-61.9149 17.58 -61.3269 17.7153 -60.8042 17.986C-60.2815 18.2567 -59.8662 18.658 -59.5582 19.19C-59.2502 19.722 -59.0962 20.3707 -59.0962 21.136C-59.0962 21.9013 -59.2502 22.55 -59.5582 23.082C-59.8662 23.614 -60.2815 24.02 -60.8042 24.3C-61.3269 24.58 -61.9149 24.72 -62.5682 24.72ZM-62.4702 23.838C-61.9289 23.838 -61.4482 23.726 -61.0282 23.502C-60.6082 23.2687 -60.2769 22.9513 -60.0342 22.55C-59.7915 22.1393 -59.6702 21.668 -59.6702 21.136C-59.6702 20.604 -59.7915 20.1373 -60.0342 19.736C-60.2769 19.3347 -60.6082 19.022 -61.0282 18.798C-61.4482 18.5647 -61.9289 18.448 -62.4702 18.448C-63.0022 18.448 -63.4829 18.5647 -63.9122 18.798C-64.3322 19.022 -64.6635 19.3347 -64.9062 19.736C-65.1395 20.1373 -65.2562 20.604 -65.2562 21.136C-65.2562 21.668 -65.1395 22.1393 -64.9062 22.55C-64.6635 22.9513 -64.3322 23.2687 -63.9122 23.502C-63.4829 23.726 -63.0022 23.838 -62.4702 23.838ZM-55.9382 25V14.612H-54.9442V25H-55.9382ZM-49.1825 25.07C-49.8918 25.07 -50.5311 24.9113 -51.1005 24.594C-51.6605 24.2673 -52.1038 23.824 -52.4305 23.264C-52.7571 22.6947 -52.9205 22.046 -52.9205 21.318C-52.9205 20.5807 -52.7571 19.932 -52.4305 19.372C-52.1038 18.812 -51.6605 18.3733 -51.1005 18.056C-50.5405 17.7387 -49.9011 17.58 -49.1825 17.58C-48.4545 17.58 -47.8105 17.7387 -47.2505 18.056C-46.6811 18.3733 -46.2378 18.812 -45.9205 19.372C-45.5938 19.932 -45.4305 20.5807 -45.4305 21.318C-45.4305 22.046 -45.5938 22.6947 -45.9205 23.264C-46.2378 23.824 -46.6811 24.2673 -47.2505 24.594C-47.8198 24.9113 -48.4638 25.07 -49.1825 25.07ZM-49.1825 24.188C-48.6505 24.188 -48.1791 24.0713 -47.7685 23.838C-47.3578 23.5953 -47.0358 23.2593 -46.8025 22.83C-46.5598 22.3913 -46.4385 21.8873 -46.4385 21.318C-46.4385 20.7393 -46.5598 20.2353 -46.8025 19.806C-47.0358 19.3767 -47.3578 19.0453 -47.7685 18.812C-48.1791 18.5693 -48.6458 18.448 -49.1685 18.448C-49.6911 18.448 -50.1578 18.5693 -50.5685 18.812C-50.9791 19.0453 -51.3058 19.3767 -51.5485 19.806C-51.7911 20.2353 -51.9125 20.7393 -51.9125 21.318C-51.9125 21.8873 -51.7911 22.3913 -51.5485 22.83C-51.3058 23.2593 -50.9791 23.5953 -50.5685 23.838C-50.1578 24.0713 -49.6958 24.188 -49.1825 24.188ZM-39.6071 25.07C-40.2511 25.07 -40.8298 24.9253 -41.3431 24.636C-41.8564 24.3373 -42.2624 23.908 -42.5611 23.348C-42.8598 22.788 -43.0091 22.1113 -43.0091 21.318C-43.0091 20.5153 -42.8598 19.8387 -42.5611 19.288C-42.2531 18.728 -41.8424 18.3033 -41.3291 18.014C-40.8158 17.7247 -40.2418 17.58 -39.6071 17.58C-38.9071 17.58 -38.2818 17.7387 -37.7311 18.056C-37.1711 18.364 -36.7324 18.798 -36.4151 19.358C-36.0978 19.918 -35.9391 20.5713 -35.9391 21.318C-35.9391 22.0553 -36.0978 22.7087 -36.4151 23.278C-36.7324 23.838 -37.1711 24.2767 -37.7311 24.594C-38.2818 24.9113 -38.9071 25.07 -39.6071 25.07ZM-43.4011 25V14.612H-42.4071V19.82L-42.5471 21.304L-42.4491 22.788V25H-43.4011ZM-39.6771 24.188C-39.1544 24.188 -38.6878 24.0713 -38.2771 23.838C-37.8664 23.5953 -37.5398 23.2593 -37.2971 22.83C-37.0544 22.3913 -36.9331 21.8873 -36.9331 21.318C-36.9331 20.7393 -37.0544 20.2353 -37.2971 19.806C-37.5398 19.3767 -37.8664 19.0453 -38.2771 18.812C-38.6878 18.5693 -39.1544 18.448 -39.6771 18.448C-40.1998 18.448 -40.6711 18.5693 -41.0911 18.812C-41.5018 19.0453 -41.8284 19.3767 -42.0711 19.806C-42.3044 20.2353 -42.4211 20.7393 -42.4211 21.318C-42.4211 21.8873 -42.3044 22.3913 -42.0711 22.83C-41.8284 23.2593 -41.5018 23.5953 -41.0911 23.838C-40.6711 24.0713 -40.1998 24.188 -39.6771 24.188ZM-29.3478 25V23.376L-29.3898 23.11V20.394C-29.3898 19.7687 -29.5672 19.288 -29.9218 18.952C-30.2672 18.616 -30.7852 18.448 -31.4758 18.448C-31.9518 18.448 -32.4045 18.5273 -32.8338 18.686C-33.2632 18.8447 -33.6272 19.0547 -33.9258 19.316L-34.3738 18.574C-34.0005 18.2567 -33.5525 18.014 -33.0298 17.846C-32.5072 17.6687 -31.9565 17.58 -31.3778 17.58C-30.4258 17.58 -29.6932 17.818 -29.1798 18.294C-28.6572 18.7607 -28.3958 19.4747 -28.3958 20.436V25H-29.3478ZM-31.8818 25.07C-32.4325 25.07 -32.9132 24.9813 -33.3238 24.804C-33.7252 24.6173 -34.0332 24.3653 -34.2478 24.048C-34.4625 23.7213 -34.5698 23.348 -34.5698 22.928C-34.5698 22.5453 -34.4812 22.2 -34.3038 21.892C-34.1172 21.5747 -33.8185 21.3227 -33.4078 21.136C-32.9878 20.94 -32.4278 20.842 -31.7278 20.842H-29.1938V21.584H-31.6998C-32.4092 21.584 -32.9038 21.71 -33.1838 21.962C-33.4545 22.214 -33.5898 22.5267 -33.5898 22.9C-33.5898 23.32 -33.4265 23.656 -33.0998 23.908C-32.7732 24.16 -32.3158 24.286 -31.7278 24.286C-31.1678 24.286 -30.6872 24.16 -30.2858 23.908C-29.8752 23.6467 -29.5765 23.2733 -29.3898 22.788L-29.1658 23.474C-29.3525 23.9593 -29.6792 24.3467 -30.1458 24.636C-30.6032 24.9253 -31.1818 25.07 -31.8818 25.07ZM-25.696 25V14.612H-24.702V25H-25.696ZM-23.6723 26.4L-19.0523 13.212H-18.1423L-22.7623 26.4H-23.6723Z" fill="#595959"/>
<path d="M-202 -21.25H9.88727V-20.55H-202V-21.25Z" fill="#595959"/>
<path d="M-202 2.75H0.973206V3.45H-202V2.75Z" fill="#595959"/>
<path d="M-202 26.75H-18.6323V27.45H-202V26.75Z" fill="#595959"/>
</g>
<a href="https://barbershop.goit.global/">
<rect fill="black" fill-opacity="0" y="3.467" width="211.887" height="17.066"/>
</a>
<a href="https://cryptohub.goit.global/">
<rect fill="black" fill-opacity="0" y="27.467" width="202.973" height="17.066"/>
</a>
<a href="https://kidslike.goit.global/">
<rect fill="black" fill-opacity="0" y="51.467" width="183.368" height="17.066"/>
</a>
<g id="Group 1">
<g id="Frame 2">
<path id="Vector 2" d="M122.5 1H0.116867" stroke="#A8A8A8" stroke-dasharray="4 4"/>
</g>
</g>
</g>
</g>
<defs>
<filter id="filter0_d_0_1" x="-700" y="-461" width="1240" height="1359" filterUnits="userSpaceOnUse" color-interpolation-filters="sRGB">
<feFlood flood-opacity="0" result="BackgroundImageFix"/>
<feColorMatrix in="SourceAlpha" type="matrix" values="0 0 0 0 0 0 0 0 0 0 0 0 0 0 0 0 0 0 127 0" result="hardAlpha"/>
<feOffset dx="6" dy="6"/>
<feGaussianBlur stdDeviation="10"/>
<feColorMatrix type="matrix" values="0 0 0 0 0 0 0 0 0 0 0 0 0 0 0 0 0 0 0.1 0"/>
<feBlend mode="normal" in2="BackgroundImageFix" result="effect1_dropShadow_0_1"/>
<feBlend mode="normal" in="SourceGraphic" in2="effect1_dropShadow_0_1" result="shape"/>
</filter>
</defs>
</svg>
